{
.appVersion = "1176";
copyright = "Copyright (c) 2010, Sebastian Kosch (sebastian@aldusleaf.org),\012with Reserved Font Name \"Crimson\".\012This Font Software is licensed under the SIL Open Font License, Version 1.1.\012This license is available with a FAQ at: http://scripts.sil.org/OFL";
customParameters = (
{
name = note;
value = "2010-5-14: Created.";
},
{
name = openTypeNameLicense;

glyphs = (
{
glyphname = A;
lastChange = "2017-07-12 19:24:34 +0000";
layers = (
{
layerId = "DEDDD934-E4FE-4A27-B966-8C21F8A9BC34";
paths = (
{
closed = 1;
nodes = (
"61 134 CURVE SMOOTH",
"355 624 LINE SMOOTH",
"363 637 OFFCURVE",
"386 662 OFFCURVE",
"396 662 CURVE SMOOTH",
"404 662 OFFCURVE",
"413 658 OFFCURVE",
"414 655 CURVE",
"507 148 LINE SMOOTH",
"513 117 OFFCURVE",
"515 97 OFFCURVE",
"519 76 CURVE SMOOTH",
"527 35 OFFCURVE",
"577 33 OFFCURVE",
"584 33 CURVE",
"587 24 OFFCURVE",
"582 0 OFFCURVE",
"578 -4 CURVE",
"541 -2 OFFCURVE",
"496 4 OFFCURVE",
"455 4 CURVE SMOOTH",
"412 4 OFFCURVE",
"347 -2 OFFCURVE",
"313 -4 CURVE",
"309 1 OFFCURVE",
"316 33 OFFCURVE",
"321 33 CURVE",
"337 33 OFFCURVE",
"364 39 OFFCURVE",
"379 51 CURVE SMOOTH",
"386 56 OFFCURVE",
"390 61 OFFCURVE",
"391 68 CURVE SMOOTH",
"393 77 OFFCURVE",
"364 220 OFFCURVE",
"364 220 CURVE",
"364 220 OFFCURVE",
"362 224 OFFCURVE",
"359 224 CURVE SMOOTH",
"324 226 OFFCURVE",
"293 225 OFFCURVE",
"270 225 CURVE SMOOTH",
"232 225 OFFCURVE",
"206 225 OFFCURVE",
"173 224 CURVE SMOOTH",
"170 224 OFFCURVE",
"166 221 OFFCURVE",
"165 219 CURVE",
"165 219 OFFCURVE",
"131 163 OFFCURVE",
"115 135 CURVE SMOOTH",
"101 110 OFFCURVE",
"83 74 OFFCURVE",
"82 67 CURVE SMOOTH",
"77 41 OFFCURVE",
"140 33 OFFCURVE",
"147 33 CURVE",
"151 26 OFFCURVE",
"144 0 OFFCURVE",
"140 -4 CURVE",
"108 0 OFFCURVE",
"82 4 OFFCURVE",
"41 4 CURVE SMOOTH",
"-2 4 OFFCURVE",
"-28 0 OFFCURVE",
"-61 -4 CURVE",
"-64 0 OFFCURVE",
"-62 21 OFFCURVE",
"-56 32 CURVE",
"-45 32 OFFCURVE",
"3 48 OFFCURVE",
"15 64 CURVE SMOOTH",
"36 92 OFFCURVE",
"44 106 OFFCURVE"
);
},
{
closed = 1;
nodes = (
"315 476 LINE",
"197 280 LINE",
"197 280 OFFCURVE",
"197 276 OFFCURVE",
"199 276 CURVE SMOOTH",
"217 274 OFFCURVE",
"254 273 OFFCURVE",
"275 273 CURVE SMOOTH",
"304 273 OFFCURVE",
"321 273 OFFCURVE",
"350 275 CURVE SMOOTH",
"352 275 OFFCURVE",
"354 280 OFFCURVE",
"354 280 CURVE"
);
}
);
width = 620;
}
);
unicode = 0041;
userData = {
com.fontlab.hintData = {
hhints = (
{
position = -4;
width = 37;
},
{
position = 225;
width = 48;
},
{
position = 642;
width = 20;
}
);
};
};
},
{
glyphname = Aogonek;
lastChange = "2017-07-12 19:24:34 +0000";
layers = (
{
layerId = "DEDDD934-E4FE-4A27-B966-8C21F8A9BC34";
paths = (
{
closed = 1;
nodes = (
"455 4 CURVE SMOOTH",
"392 4 OFFCURVE",
"309 -59 OFFCURVE",
"309 -122 CURVE SMOOTH",
"309 -146 OFFCURVE",
"320 -156 OFFCURVE",
"345 -156 CURVE SMOOTH",
"387 -156 OFFCURVE",
"412 -125 OFFCURVE",
"419 -120 CURVE",
"426 -122 OFFCURVE",
"424 -142 OFFCURVE",
"422 -146 CURVE SMOOTH",
"399 -185 OFFCURVE",
"350 -218 OFFCURVE",
"308 -218 CURVE SMOOTH",
"269 -218 OFFCURVE",
"248 -187 OFFCURVE",
"248 -160 CURVE SMOOTH",
"248 -94 OFFCURVE",
"291 -54 OFFCURVE",
"334 -7 CURVE SMOOTH",
"362 23 OFFCURVE",
"390 41 OFFCURVE",
"390 81 CURVE SMOOTH",
"390 90 OFFCURVE",
"364 220 OFFCURVE",
"364 220 CURVE",
"364 220 OFFCURVE",
"362 224 OFFCURVE",
"359 224 CURVE SMOOTH",
"324 226 OFFCURVE",
"293 225 OFFCURVE",
"270 225 CURVE SMOOTH",
"232 225 OFFCURVE",
"206 225 OFFCURVE",
"173 224 CURVE SMOOTH",
"170 224 OFFCURVE",
"166 221 OFFCURVE",
"165 219 CURVE",
"165 219 OFFCURVE",
"131 163 OFFCURVE",
"115 135 CURVE SMOOTH",
"101 110 OFFCURVE",
"83 74 OFFCURVE",
"82 67 CURVE SMOOTH",
"77 41 OFFCURVE",
"140 33 OFFCURVE",
"147 33 CURVE",
"151 26 OFFCURVE",
"144 0 OFFCURVE",
"140 -4 CURVE",
"108 0 OFFCURVE",
"82 4 OFFCURVE",
"41 4 CURVE SMOOTH",
"-2 4 OFFCURVE",
"-28 0 OFFCURVE",
"-61 -4 CURVE",
"-64 0 OFFCURVE",
"-62 21 OFFCURVE",
"-56 32 CURVE",
"-45 32 OFFCURVE",
"3 48 OFFCURVE",
"15 64 CURVE SMOOTH",
"36 92 OFFCURVE",
"44 106 OFFCURVE",
"61 134 CURVE SMOOTH",
"355 624 LINE SMOOTH",
"363 637 OFFCURVE",
"386 662 OFFCURVE",
"396 662 CURVE SMOOTH",
"404 662 OFFCURVE",
"413 658 OFFCURVE",
"414 655 CURVE",
"507 148 LINE SMOOTH",
"513 117 OFFCURVE",
"515 97 OFFCURVE",
"519 76 CURVE SMOOTH",
"527 35 OFFCURVE",
"577 33 OFFCURVE",
"584 33 CURVE",
"587 24 OFFCURVE",
"582 0 OFFCURVE",
"578 -4 CURVE",
"541 -2 OFFCURVE",
"496 4 OFFCURVE"
);
},
{
closed = 1;
nodes = (
"315 476 LINE",
"197 280 LINE",
"197 280 OFFCURVE",
"197 276 OFFCURVE",
"199 276 CURVE SMOOTH",
"217 274 OFFCURVE",
"254 273 OFFCURVE",
"275 273 CURVE SMOOTH",
"304 273 OFFCURVE",
"321 273 OFFCURVE",
"350 275 CURVE SMOOTH",
"352 275 OFFCURVE",
"354 280 OFFCURVE",
"354 280 CURVE"
);
}
);
width = 620;
}
);
unicode = 0104;
userData = {
com.fontlab.hintData = {
hhints = (
{
position = -218;
width = 62;
},
{
position = -4;
width = 37;
},
{
position = 225;
width = 48;
},
{
position = 642;
width = 20;
}
);
vhints = (
{
position = 248;
width = 61;
}
);
};
};
},
{
glyphname = AE;
lastChange = "2017-07-12 19:24:34 +0000";
layers = (
{
layerId = "DEDDD934-E4FE-4A27-B966-8C21F8A9BC34";
paths = (
{
closed = 1;
nodes = (
"507 657 CURVE SMOOTH",
"546 657 OFFCURVE",
"756 663 OFFCURVE",
"811 664 CURVE",
"813 614 OFFCURVE",
"818 561 OFFCURVE",
"822 516 CURVE",
"819 513 OFFCURVE",
"807 511 OFFCURVE",
"800 511 CURVE SMOOTH",
"793 511 OFFCURVE",
"787 514 OFFCURVE",
"786 519 CURVE SMOOTH",
"772 574 OFFCURVE",
"753 620 OFFCURVE",
"696 620 CURVE SMOOTH",
"619 620 LINE SMOOTH",
"598 620 OFFCURVE",
"577 619 OFFCURVE",
"571 608 CURVE SMOOTH",
"565 596 OFFCURVE",
"563 576 OFFCURVE",
"560 547 CURVE SMOOTH",
"542 360 LINE SMOOTH",
"542 354 OFFCURVE",
"561 349 OFFCURVE",
"581 349 CURVE SMOOTH",
"630 349 LINE SMOOTH",
"685 349 OFFCURVE",
"699 361 OFFCURVE",
"720 419 CURVE SMOOTH",
"722 424 OFFCURVE",
"724 427 OFFCURVE",
"731 427 CURVE SMOOTH",
"738 427 OFFCURVE",
"746 425 OFFCURVE",
"748 422 CURVE",
"729 230 LINE",
"727 228 OFFCURVE",
"719 226 OFFCURVE",
"712 226 CURVE SMOOTH",
"705 226 OFFCURVE",
"700 229 OFFCURVE",
"700 234 CURVE SMOOTH",
"694 282 OFFCURVE",
"681 291 OFFCURVE",
"673 295 CURVE SMOOTH",
"663 300 OFFCURVE",
"639 302 OFFCURVE",
"604 302 CURVE SMOOTH",
"578 302 OFFCURVE",
"536 300 OFFCURVE",
"535 288 CURVE SMOOTH",
"519 141 LINE SMOOTH",
"518 135 OFFCURVE",
"513 82 OFFCURVE",
"519 62 CURVE SMOOTH",
"523 48 OFFCURVE",
"553 42 OFFCURVE",
"577 42 CURVE SMOOTH",
"639 42 LINE SMOOTH",
"674 42 OFFCURVE",
"705 52 OFFCURVE",
"729 75 CURVE SMOOTH",
"751 96 OFFCURVE",
"767 125 OFFCURVE",
"788 170 CURVE SMOOTH",
"790 174 OFFCURVE",
"795 176 OFFCURVE",
"802 176 CURVE SMOOTH",
"811 176 OFFCURVE",
"827 173 OFFCURVE",
"829 170 CURVE",
"806 116 OFFCURVE",
"773 42 OFFCURVE",
"762 -2 CURVE",
"736 -2 OFFCURVE",
"562 -2 OFFCURVE",
"436 -2 CURVE SMOOTH",
"372 -2 OFFCURVE",
"320 -3 OFFCURVE",
"308 -3 CURVE",
"304 3 OFFCURVE",
"306 27 OFFCURVE",
"311 34 CURVE",
"323 35 OFFCURVE",
"367 38 OFFCURVE",
"373 51 CURVE SMOOTH",
"382 71 OFFCURVE",
"385 102 OFFCURVE",
"389 145 CURVE SMOOTH",
"401 265 LINE SMOOTH",
"400 266 OFFCURVE",
"399 269 OFFCURVE",
"397 269 CURVE SMOOTH",
"362 271 OFFCURVE",
"340 270 OFFCURVE",
"317 270 CURVE SMOOTH",
"279 270 OFFCURVE",
"264 270 OFFCURVE",
"231 269 CURVE SMOOTH",
"228 269 OFFCURVE",
"223 266 OFFCURVE",
"222 264 CURVE SMOOTH",
"222 264 OFFCURVE",
"151 163 OFFCURVE",
"132 135 CURVE SMOOTH",
"116 110 OFFCURVE",
"95 74 OFFCURVE",
"93 67 CURVE SMOOTH",
"86 41 OFFCURVE",
"148 33 OFFCURVE",
"155 33 CURVE",
"158 26 OFFCURVE",
"156 0 OFFCURVE",
"152 -4 CURVE",
"120 0 OFFCURVE",
"81 4 OFFCURVE",
"40 4 CURVE SMOOTH",
"-3 4 OFFCURVE",
"-29 0 OFFCURVE",
"-62 -4 CURVE",
"-65 0 OFFCURVE",
"-68 21 OFFCURVE",
"-61 32 CURVE",
"-50 32 OFFCURVE",
"0 48 OFFCURVE",
"13 64 CURVE SMOOTH",
"37 92 OFFCURVE",
"45 106 OFFCURVE",
"65 134 CURVE SMOOTH",
"381 590 LINE SMOOTH",
"381 590 OFFCURVE",
"389 603 OFFCURVE",
"389 608 CURVE SMOOTH",
"389 618 OFFCURVE",
"370 623 OFFCURVE",
"364 623 CURVE",
"360 630 OFFCURVE",
"365 654 OFFCURVE",
"369 660 CURVE",
"410 657 OFFCURVE",
"468 657 OFFCURVE"
);
},
{
closed = 1;
nodes = (
"431 567 CURVE",
"260 325 LINE",
"260 325 OFFCURVE",
"260 321 OFFCURVE",
"262 321 CURVE SMOOTH",
"280 319 OFFCURVE",
"305 318 OFFCURVE",
"326 318 CURVE SMOOTH",
"355 318 OFFCURVE",
"373 318 OFFCURVE",
"402 320 CURVE SMOOTH",
"404 320 OFFCURVE",
"407 325 OFFCURVE",
"407 325 CURVE",
"427 513 LINE SMOOTH",
"429 534 OFFCURVE",
"430 552 OFFCURVE"
);
}
);
width = 864;
}
);
unicode = 00C6;
userData = {
com.fontlab.hintData = {
hhints = (
{
position = -3;
width = 37;
},
{
position = -2;
width = 44;
},
{
position = 270;
width = 48;
},
{
position = 302;
width = 47;
},
{
position = 620;
width = 37;
}
);
vhints = (
{
position = 700;
width = 29;
},
{
position = 720;
width = 28;
},
{
position = 786;
width = 36;
}
);
};
};
},
{
glyphname = B;
lastChange = "2017-07-12 19:24:34 +0000";
layers = (
{
layerId = "DEDDD934-E4FE-4A27-B966-8C21F8A9BC34";
paths = (
{
closed = 1;
nodes = (
"262 371 LINE",
"310 371 LINE SMOOTH",
"356 371 OFFCURVE",
"397 412 OFFCURVE",
"412 487 CURVE SMOOTH",
"430 582 OFFCURVE",
"408 620 OFFCURVE",
"361 620 CURVE SMOOTH",
"340 620 OFFCURVE",
"319 619 OFFCURVE",
"312 608 CURVE SMOOTH",
"305 596 OFFCURVE",
"302 576 OFFCURVE",
"296 547 CURVE SMOOTH"
);
},
{
closed = 1;
nodes = (
"254 332 LINE",
"211 109 LINE SMOOTH",
"210 103 OFFCURVE",
"202 63 OFFCURVE",
"207 51 CURVE SMOOTH",
"212 40 OFFCURVE",
"239 39 OFFCURVE",
"263 39 CURVE SMOOTH",
"306 39 OFFCURVE",
"368 73 OFFCURVE",
"388 176 CURVE SMOOTH",
"403 251 OFFCURVE",
"390 332 OFFCURVE",
"302 332 CURVE SMOOTH"
);
},
{
closed = 1;
nodes = (
"396 660 CURVE SMOOTH",
"482 660 OFFCURVE",
"576 618 OFFCURVE",
"553 502 CURVE SMOOTH",
"537 422 OFFCURVE",
"453 376 OFFCURVE",
"426 366 CURVE SMOOTH",
"418 363 OFFCURVE",
"419 360 OFFCURVE",
"420 360 CURVE SMOOTH",
"465 354 OFFCURVE",
"557 296 OFFCURVE",
"537 192 CURVE SMOOTH",
"524 126 OFFCURVE",
"473 67 OFFCURVE",
"408 30 CURVE SMOOTH",
"346 -5 OFFCURVE",
"277 -4 OFFCURVE",
"208 -3 CURVE SMOOTH",
"169 -3 OFFCURVE",
"28 -2 OFFCURVE",
"-8 -3 CURVE",
"-11 3 OFFCURVE",
"-7 27 OFFCURVE",
"-1 34 CURVE",
"11 35 OFFCURVE",
"55 38 OFFCURVE",
"62 51 CURVE SMOOTH",
"73 71 OFFCURVE",
"79 102 OFFCURVE",
"87 145 CURVE SMOOTH",
"159 513 LINE SMOOTH",
"167 556 OFFCURVE",
"174 587 OFFCURVE",
"170 607 CURVE SMOOTH",
"168 620 OFFCURVE",
"125 622 OFFCURVE",
"113 623 CURVE",
"110 630 OFFCURVE",
"116 654 OFFCURVE",
"121 660 CURVE",
"162 657 OFFCURVE",
"214 657 OFFCURVE",
"253 657 CURVE SMOOTH",
"292 657 OFFCURVE",
"342 660 OFFCURVE"
);
}
);
width = 589;
}
);
unicode = 0042;
userData = {
com.fontlab.hintData = {
hhints = (
{
position = -3;
width = 42;
},
{
position = 332;
width = 39;
},
{
position = 620;
width = 40;
}
);
};
};
},
{
glyphname = C;
lastChange = "2017-07-12 19:24:34 +0000";
layers = (
{
layerId = "DEDDD934-E4FE-4A27-B966-8C21F8A9BC34";
paths = (
{
closed = 1;
nodes = (
"443 624 CURVE SMOOTH",
"312 624 OFFCURVE",
"196 478 OFFCURVE",
"196 268 CURVE SMOOTH",
"196 176 OFFCURVE",
"234 37 OFFCURVE",
"365 37 CURVE SMOOTH",
"412 37 OFFCURVE",
"455 55 OFFCURVE",
"485 80 CURVE SMOOTH",
"531 118 OFFCURVE",
"571 196 OFFCURVE",
"574 204 CURVE",
"588 204 OFFCURVE",
"599 199 OFFCURVE",
"605 192 CURVE",
"603 181 OFFCURVE",
"551 48 OFFCURVE",
"537 40 CURVE SMOOTH",
"481 9 OFFCURVE",
"423 -7 OFFCURVE",
"337 -7 CURVE SMOOTH",
"142 -7 OFFCURVE",
"52 142 OFFCURVE",
"52 276 CURVE SMOOTH",
"52 526 OFFCURVE",
"266 667 OFFCURVE",
"443 667 CURVE SMOOTH",
"504 667 OFFCURVE",
"585 650 OFFCURVE",
"638 638 CURVE",
"638 627 OFFCURVE",
"627 506 OFFCURVE",
"625 494 CURVE SMOOTH",
"624 488 OFFCURVE",
"614 480 OFFCURVE",
"603 480 CURVE SMOOTH",
"598 480 OFFCURVE",
"594 480 OFFCURVE",
"591 484 CURVE",
"589 523 OFFCURVE",
"561 624 OFFCURVE"
);
}
);
width = 646;
}
);
unicode = 0043;
userData = {
com.fontlab.hintData = {
hhints = (
{
position = -7;
width = 44;
},
{
position = 624;
width = 43;
}
);
vhints = (
{
position = 52;
width = 144;
},
{
position = 591;
width = 34;
}
);
};
};
},
{
glyphname = D;
lastChange = "2017-07-12 19:24:34 +0000";
layers = (
{
layerId = "DEDDD934-E4FE-4A27-B966-8C21F8A9BC34";
paths = (
{
closed = 1;
nodes = (
"296 547 CURVE SMOOTH",
"217 141 LINE SMOOTH",
"216 135 OFFCURVE",
"205 82 OFFCURVE",
"209 62 CURVE SMOOTH",
"212 48 OFFCURVE",
"239 39 OFFCURVE",
"263 39 CURVE SMOOTH",
"415 39 OFFCURVE",
"500 119 OFFCURVE",
"538 314 CURVE SMOOTH",
"576 510 OFFCURVE",
"499 620 OFFCURVE",
"361 620 CURVE SMOOTH",
"340 620 OFFCURVE",
"319 619 OFFCURVE",
"312 608 CURVE SMOOTH",
"305 596 OFFCURVE",
"302 576 OFFCURVE"
);
},
{
closed = 1;
nodes = (
"396 660 CURVE SMOOTH",
"611 660 OFFCURVE",
"726 522 OFFCURVE",
"686 317 CURVE SMOOTH",
"641 83 OFFCURVE",
"461 -3 OFFCURVE",
"260 -3 CURVE SMOOTH",
"221 -3 OFFCURVE",
"28 -2 OFFCURVE",
"-8 -3 CURVE",
"-11 3 OFFCURVE",
"-7 27 OFFCURVE",
"-1 34 CURVE",
"11 35 OFFCURVE",
"55 38 OFFCURVE",
"62 51 CURVE SMOOTH",
"73 71 OFFCURVE",
"79 102 OFFCURVE",
"87 145 CURVE SMOOTH",
"159 513 LINE SMOOTH",
"167 556 OFFCURVE",
"174 587 OFFCURVE",
"170 607 CURVE SMOOTH",
"168 620 OFFCURVE",
"125 622 OFFCURVE",
"113 623 CURVE",
"110 630 OFFCURVE",
"116 654 OFFCURVE",
"121 660 CURVE",
"162 657 OFFCURVE",
"214 657 OFFCURVE",
"253 657 CURVE SMOOTH",
"292 657 OFFCURVE",
"341 659 OFFCURVE"
);
}
);
width = 720;
}
);
unicode = 0044;
userData = {
com.fontlab.hintData = {
hhints = (
{
position = -3;
width = 42;
},
{
position = 620;
width = 40;
}
);
};
};
},
{
glyphname = Eth;
lastChange = "2017-07-12 19:24:34 +0000";
layers = (
{
components = (
{
name = D;
transform = "{1, 0, 0, 1, 1, 0}";
}
);
layerId = "DEDDD934-E4FE-4A27-B966-8C21F8A9BC34";
paths = (
{
closed = 1;
nodes = (
"60 343 CURVE",
"88 343 OFFCURVE",
"377 343 OFFCURVE",
"390 343 CURVE SMOOTH",
"394 343 OFFCURVE",
"396 339 OFFCURVE",
"395 335 CURVE SMOOTH",
"394 330 OFFCURVE",
"389 311 OFFCURVE",
"384 304 CURVE",
"356 304 OFFCURVE",
"66 304 OFFCURVE",
"53 304 CURVE SMOOTH",
"49 304 OFFCURVE",
"49 311 OFFCURVE",
"50 315 CURVE SMOOTH",
"51 320 OFFCURVE",
"53 336 OFFCURVE"
);
}
);
width = 721;
}
);
unicode = 00D0;
userData = {
com.fontlab.hintData = {
hhints = (
{
position = -3;
width = 42;
},
{
position = 304;
width = 39;
},
{
position = 620;
width = 40;
}
);
};
};
},
{
glyphname = E;
lastChange = "2017-07-12 19:24:34 +0000";
layers = (
{
layerId = "DEDDD934-E4FE-4A27-B966-8C21F8A9BC34";
paths = (
{
closed = 1;
nodes = (
"253 657 CURVE SMOOTH",
"292 657 OFFCURVE",
"502 663 OFFCURVE",
"557 664 CURVE",
"554 614 OFFCURVE",
"555 561 OFFCURVE",
"555 516 CURVE",
"552 513 OFFCURVE",
"539 511 OFFCURVE",
"532 511 CURVE SMOOTH",
"525 511 OFFCURVE",
"520 514 OFFCURVE",
"519 519 CURVE SMOOTH",
"510 574 OFFCURVE",
"495 620 OFFCURVE",
"438 620 CURVE SMOOTH",
"361 620 LINE SMOOTH",
"340 620 OFFCURVE",
"319 619 OFFCURVE",
"312 608 CURVE SMOOTH",
"305 596 OFFCURVE",
"302 576 OFFCURVE",
"296 547 CURVE SMOOTH",
"261 368 LINE SMOOTH",
"260 362 OFFCURVE",
"279 357 OFFCURVE",
"299 357 CURVE SMOOTH",
"348 357 LINE SMOOTH",
"403 357 OFFCURVE",
"418 369 OFFCURVE",
"444 427 CURVE SMOOTH",
"446 432 OFFCURVE",
"449 435 OFFCURVE",
"456 435 CURVE SMOOTH",
"463 435 OFFCURVE",
"471 433 OFFCURVE",
"473 430 CURVE",
"436 238 LINE",
"434 236 OFFCURVE",
"425 234 OFFCURVE",
"418 234 CURVE SMOOTH",
"411 234 OFFCURVE",
"407 237 OFFCURVE",
"407 242 CURVE SMOOTH",
"405 290 OFFCURVE",
"394 299 OFFCURVE",
"386 303 CURVE SMOOTH",
"376 308 OFFCURVE",
"352 310 OFFCURVE",
"317 310 CURVE SMOOTH",
"291 310 OFFCURVE",
"249 308 OFFCURVE",
"247 296 CURVE SMOOTH",
"217 141 LINE SMOOTH",
"216 135 OFFCURVE",
"205 82 OFFCURVE",
"209 62 CURVE SMOOTH",
"212 48 OFFCURVE",
"241 42 OFFCURVE",
"265 42 CURVE SMOOTH",
"327 42 LINE SMOOTH",
"362 42 OFFCURVE",
"394 52 OFFCURVE",
"420 75 CURVE SMOOTH",
"444 96 OFFCURVE",
"463 125 OFFCURVE",
"488 170 CURVE SMOOTH",
"490 174 OFFCURVE",
"496 176 OFFCURVE",
"503 176 CURVE SMOOTH",
"512 176 OFFCURVE",
"527 173 OFFCURVE",
"529 170 CURVE",
"501 116 OFFCURVE",
"461 42 OFFCURVE",
"446 -2 CURVE",
"420 -2 OFFCURVE",
"246 -2 OFFCURVE",
"120 -2 CURVE SMOOTH",
"56 -2 OFFCURVE",
"4 -3 OFFCURVE",
"-8 -3 CURVE",
"-11 3 OFFCURVE",
"-7 27 OFFCURVE",
"-1 34 CURVE",
"11 35 OFFCURVE",
"55 38 OFFCURVE",
"62 51 CURVE SMOOTH",
"73 71 OFFCURVE",
"79 102 OFFCURVE",
"87 145 CURVE SMOOTH",
"159 513 LINE SMOOTH",
"167 556 OFFCURVE",
"174 587 OFFCURVE",
"170 607 CURVE SMOOTH",
"168 620 OFFCURVE",
"125 622 OFFCURVE",
"113 623 CURVE",
"110 630 OFFCURVE",
"116 654 OFFCURVE",
"121 660 CURVE",
"162 657 OFFCURVE",
"214 657 OFFCURVE"
);
}
);
width = 572;
}
);
unicode = 0045;
userData = {
com.fontlab.hintData = {
hhints = (
{
position = -3;
width = 37;
},
{
position = -2;
width = 44;
},
{
position = 310;
width = 47;
},
{
position = 620;
width = 37;
}
);
vhints = (
{
position = 407;
width = 29;
},
{
position = 444;
width = 29;
},
{
position = 519;
width = 36;
}
);
};
};
},
{
glyphname = Eogonek;
lastChange = "2017-07-12 19:24:34 +0000";
layers = (
{
layerId = "DEDDD934-E4FE-4A27-B966-8C21F8A9BC34";
paths = (
{
closed = 1;
nodes = (
"232 -160 CURVE SMOOTH",
"232 -101 OFFCURVE",
"283 -31 OFFCURVE",
"353 -1 CURVE",
"286 -1 OFFCURVE",
"197 -2 OFFCURVE",
"124 -2 CURVE SMOOTH",
"57 -2 OFFCURVE",
"4 -3 OFFCURVE",
"-8 -3 CURVE",
"-11 3 OFFCURVE",
"-7 27 OFFCURVE",
"-1 34 CURVE",
"11 35 OFFCURVE",
"55 38 OFFCURVE",
"62 51 CURVE SMOOTH",
"73 71 OFFCURVE",
"79 102 OFFCURVE",
"87 145 CURVE SMOOTH",
"159 513 LINE SMOOTH",
"167 556 OFFCURVE",
"174 587 OFFCURVE",
"170 607 CURVE SMOOTH",
"168 620 OFFCURVE",
"125 622 OFFCURVE",
"113 623 CURVE",
"110 630 OFFCURVE",
"116 654 OFFCURVE",
"121 660 CURVE",
"162 657 OFFCURVE",
"214 657 OFFCURVE",
"253 657 CURVE SMOOTH",
"292 657 OFFCURVE",
"502 663 OFFCURVE",
"557 664 CURVE",
"554 614 OFFCURVE",
"555 561 OFFCURVE",
"555 516 CURVE",
"552 513 OFFCURVE",
"539 511 OFFCURVE",
"532 511 CURVE SMOOTH",
"525 511 OFFCURVE",
"520 514 OFFCURVE",
"519 519 CURVE SMOOTH",
"510 574 OFFCURVE",
"495 620 OFFCURVE",
"438 620 CURVE SMOOTH",
"361 620 LINE SMOOTH",
"340 620 OFFCURVE",
"319 619 OFFCURVE",
"312 608 CURVE SMOOTH",
"305 596 OFFCURVE",
"302 576 OFFCURVE",
"296 547 CURVE SMOOTH",
"261 368 LINE SMOOTH",
"260 362 OFFCURVE",
"279 357 OFFCURVE",
"299 357 CURVE SMOOTH",
"348 357 LINE SMOOTH",
"403 357 OFFCURVE",
"418 369 OFFCURVE",
"444 427 CURVE SMOOTH",
"446 432 OFFCURVE",
"449 435 OFFCURVE",
"456 435 CURVE SMOOTH",
"463 435 OFFCURVE",
"471 433 OFFCURVE",
"473 430 CURVE",
"436 238 LINE",
"434 236 OFFCURVE",
"425 234 OFFCURVE",
"418 234 CURVE SMOOTH",
"411 234 OFFCURVE",
"407 237 OFFCURVE",
"407 242 CURVE SMOOTH",
"405 290 OFFCURVE",
"394 299 OFFCURVE",
"386 303 CURVE SMOOTH",
"376 308 OFFCURVE",
"352 310 OFFCURVE",
"317 310 CURVE SMOOTH",
"291 310 OFFCURVE",
"249 308 OFFCURVE",
"247 296 CURVE SMOOTH",
"217 141 LINE SMOOTH",
"216 135 OFFCURVE",
"205 82 OFFCURVE",
"209 62 CURVE SMOOTH",
"212 48 OFFCURVE",
"241 42 OFFCURVE",
"265 42 CURVE SMOOTH",
"327 42 LINE SMOOTH",
"362 42 OFFCURVE",
"394 52 OFFCURVE",
"420 75 CURVE SMOOTH",
"444 96 OFFCURVE",
"463 125 OFFCURVE",
"488 170 CURVE SMOOTH",
"490 174 OFFCURVE",
"496 176 OFFCURVE",
"503 176 CURVE SMOOTH",
"512 176 OFFCURVE",
"527 173 OFFCURVE",
"529 170 CURVE",
"501 116 OFFCURVE",
"461 42 OFFCURVE",
"446 -2 CURVE",
"375 -2 OFFCURVE",
"293 -69 OFFCURVE",
"293 -122 CURVE SMOOTH",
"293 -146 OFFCURVE",
"304 -156 OFFCURVE",
"329 -156 CURVE SMOOTH",
"371 -156 OFFCURVE",
"396 -125 OFFCURVE",
"403 -120 CURVE",
"410 -122 OFFCURVE",
"408 -142 OFFCURVE",
"406 -146 CURVE SMOOTH",
"383 -185 OFFCURVE",
"334 -218 OFFCURVE",
"292 -218 CURVE SMOOTH",
"253 -218 OFFCURVE",
"232 -187 OFFCURVE"
);
}
);
width = 573;
}
);
unicode = 0118;
userData = {
com.fontlab.hintData = {
hhints = (
{
position = -218;
width = 62;
},
{
position = -3;
width = 37;
},
{
position = -2;
width = 44;
},
{
position = 310;
width = 47;
},
{
position = 620;
width = 37;
}
);
vhints = (
{
position = 232;
width = 61;
},
{
position = 407;
width = 29;
},
{
position = 444;
width = 29;
},
{
position = 519;
width = 36;
}
);
};
};
},
{
glyphname = F;
lastChange = "2017-07-12 19:24:34 +0000";
layers = (
{
layerId = "DEDDD934-E4FE-4A27-B966-8C21F8A9BC34";
paths = (
{
closed = 1;
nodes = (
"253 657 CURVE SMOOTH",
"292 657 OFFCURVE",
"502 663 OFFCURVE",
"557 664 CURVE",
"554 614 OFFCURVE",
"555 561 OFFCURVE",
"555 516 CURVE",
"552 513 OFFCURVE",
"539 511 OFFCURVE",
"532 511 CURVE SMOOTH",
"525 511 OFFCURVE",
"520 514 OFFCURVE",
"519 519 CURVE SMOOTH",
"510 574 OFFCURVE",
"495 620 OFFCURVE",
"438 620 CURVE SMOOTH",
"361 620 LINE SMOOTH",
"340 620 OFFCURVE",
"319 619 OFFCURVE",
"312 608 CURVE SMOOTH",
"305 596 OFFCURVE",
"302 576 OFFCURVE",
"296 547 CURVE SMOOTH",
"260 364 LINE SMOOTH",
"259 358 OFFCURVE",
"278 353 OFFCURVE",
"298 353 CURVE SMOOTH",
"347 353 LINE SMOOTH",
"402 353 OFFCURVE",
"417 365 OFFCURVE",
"443 423 CURVE SMOOTH",
"445 428 OFFCURVE",
"448 431 OFFCURVE",
"455 431 CURVE SMOOTH",
"462 431 OFFCURVE",
"470 429 OFFCURVE",
"472 426 CURVE",
"435 234 LINE",
"433 232 OFFCURVE",
"424 230 OFFCURVE",
"417 230 CURVE SMOOTH",
"410 230 OFFCURVE",
"406 233 OFFCURVE",
"406 238 CURVE SMOOTH",
"404 286 OFFCURVE",
"393 295 OFFCURVE",
"385 299 CURVE SMOOTH",
"375 304 OFFCURVE",
"351 306 OFFCURVE",
"316 306 CURVE SMOOTH",
"290 306 OFFCURVE",
"248 304 OFFCURVE",
"246 292 CURVE SMOOTH",
"218 145 LINE SMOOTH",
"210 102 OFFCURVE",
"203 71 OFFCURVE",
"207 51 CURVE SMOOTH",
"209 38 OFFCURVE",
"259 34 OFFCURVE",
"271 33 CURVE",
"274 26 OFFCURVE",
"269 2 OFFCURVE",
"264 -4 CURVE",
"229 0 OFFCURVE",
"163 3 OFFCURVE",
"124 3 CURVE SMOOTH",
"85 3 OFFCURVE",
"28 0 OFFCURVE",
"-9 -4 CURVE",
"-12 2 OFFCURVE",
"-7 26 OFFCURVE",
"-1 33 CURVE",
"11 34 OFFCURVE",
"55 38 OFFCURVE",
"62 51 CURVE SMOOTH",
"73 71 OFFCURVE",
"79 102 OFFCURVE",
"87 145 CURVE SMOOTH",
"159 513 LINE SMOOTH",
"167 556 OFFCURVE",
"174 587 OFFCURVE",
"170 607 CURVE SMOOTH",
"168 620 OFFCURVE",
"125 622 OFFCURVE",
"113 623 CURVE",
"110 630 OFFCURVE",
"116 654 OFFCURVE",
"121 660 CURVE",
"162 657 OFFCURVE",
"214 657 OFFCURVE"
);
}
);
width = 525;
}
);
unicode = 0046;
userData = {
com.fontlab.hintData = {
hhints = (
{
position = -4;
width = 37;
},
{
position = 306;
width = 47;
},
{
position = 620;
width = 37;
}
);
vhints = (
{
position = 406;
width = 29;
},
{
position = 443;
width = 29;
},
{
position = 519;
width = 36;
}
);
};
};
},
{
glyphname = G;
lastChange = "2017-07-12 19:24:34 +0000";
layers = (
{
layerId = "DEDDD934-E4FE-4A27-B966-8C21F8A9BC34";
paths = (
{
closed = 1;
nodes = (
"443 667 CURVE SMOOTH",
"504 667 OFFCURVE",
"585 650 OFFCURVE",
"638 638 CURVE",
"638 627 OFFCURVE",
"627 506 OFFCURVE",
"625 494 CURVE SMOOTH",
"624 488 OFFCURVE",
"614 480 OFFCURVE",
"603 480 CURVE SMOOTH",
"598 480 OFFCURVE",
"594 480 OFFCURVE",
"591 484 CURVE",
"589 523 OFFCURVE",
"560 624 OFFCURVE",
"443 624 CURVE SMOOTH",
"312 624 OFFCURVE",
"196 478 OFFCURVE",
"196 268 CURVE SMOOTH",
"196 176 OFFCURVE",
"234 37 OFFCURVE",
"365 37 CURVE SMOOTH",
"399 37 OFFCURVE",
"415 45 OFFCURVE",
"422 50 CURVE SMOOTH",
"426 53 OFFCURVE",
"430 58 OFFCURVE",
"432 67 CURVE SMOOTH",
"435 82 OFFCURVE",
"447 148 OFFCURVE",
"456 196 CURVE SMOOTH",
"460 216 OFFCURVE",
"462 225 OFFCURVE",
"461 247 CURVE SMOOTH",
"459 272 OFFCURVE",
"411 274 OFFCURVE",
"400 274 CURVE SMOOTH",
"395 274 OFFCURVE",
"401 306 OFFCURVE",
"407 311 CURVE",
"454 309 OFFCURVE",
"506 305 OFFCURVE",
"553 305 CURVE SMOOTH",
"592 305 OFFCURVE",
"625 309 OFFCURVE",
"663 311 CURVE",
"664 298 OFFCURVE",
"658 274 OFFCURVE",
"655 274 CURVE",
"648 274 OFFCURVE",
"620 268 OFFCURVE",
"608 261 CURVE SMOOTH",
"602 257 OFFCURVE",
"593 237 OFFCURVE",
"589 218 CURVE SMOOTH",
"582 181 OFFCURVE",
"573 132 OFFCURVE",
"566 98 CURVE SMOOTH",
"564 89 OFFCURVE",
"567 74 OFFCURVE",
"566 69 CURVE SMOOTH",
"564 58 OFFCURVE",
"542 42 OFFCURVE",
"529 36 CURVE SMOOTH",
"476 10 OFFCURVE",
"423 -7 OFFCURVE",
"337 -7 CURVE SMOOTH",
"142 -7 OFFCURVE",
"52 142 OFFCURVE",
"52 276 CURVE SMOOTH",
"52 526 OFFCURVE",
"266 667 OFFCURVE"
);
}
);
width = 678;
}
);
unicode = 0047;
userData = {
com.fontlab.hintData = {
hhints = (
{
position = -7;
width = 44;
},
{
position = 274;
width = 37;
},
{
position = 624;
width = 43;
}
);
vhints = (
{
position = 52;
width = 144;
},
{
position = 461;
width = 105;
},
{
position = 591;
width = 34;
}
);
};
};
},
{
glyphname = H;
lastChange = "2017-07-12 19:24:34 +0000";
layers = (
{
layerId = "DEDDD934-E4FE-4A27-B966-8C21F8A9BC34";
paths = (
{
closed = 1;
nodes = (
"253 655 CURVE SMOOTH",
"292 655 OFFCURVE",
"348 658 OFFCURVE",
"385 662 CURVE",
"388 656 OFFCURVE",
"384 632 OFFCURVE",
"378 625 CURVE",
"366 624 OFFCURVE",
"322 620 OFFCURVE",
"315 607 CURVE SMOOTH",
"304 587 OFFCURVE",
"297 556 OFFCURVE",
"289 513 CURVE SMOOTH",
"262 371 LINE",
"262 369 OFFCURVE",
"263 368 OFFCURVE",
"263 368 CURVE",
"299 367 OFFCURVE",
"333 365 OFFCURVE",
"375 365 CURVE SMOOTH",
"409 365 OFFCURVE",
"450 367 OFFCURVE",
"484 368 CURVE",
"484 368 OFFCURVE",
"487 370 OFFCURVE",
"487 372 CURVE SMOOTH",
"513 513 LINE SMOOTH",
"521 556 OFFCURVE",
"528 587 OFFCURVE",
"524 607 CURVE SMOOTH",
"522 620 OFFCURVE",
"480 624 OFFCURVE",
"468 625 CURVE",
"465 632 OFFCURVE",
"470 656 OFFCURVE",
"475 662 CURVE",
"510 658 OFFCURVE",
"568 655 OFFCURVE",
"607 655 CURVE SMOOTH",
"646 655 OFFCURVE",
"702 658 OFFCURVE",
"739 662 CURVE",
"742 656 OFFCURVE",
"738 632 OFFCURVE",
"732 625 CURVE",
"720 624 OFFCURVE",
"676 620 OFFCURVE",
"669 607 CURVE SMOOTH",
"658 587 OFFCURVE",
"651 556 OFFCURVE",
"643 513 CURVE SMOOTH",
"572 145 LINE SMOOTH",
"564 102 OFFCURVE",
"557 71 OFFCURVE",
"561 51 CURVE SMOOTH",
"563 38 OFFCURVE",
"605 34 OFFCURVE",
"617 33 CURVE",
"620 26 OFFCURVE",
"615 2 OFFCURVE",
"610 -4 CURVE",
"575 0 OFFCURVE",
"517 3 OFFCURVE",
"478 3 CURVE SMOOTH",
"439 3 OFFCURVE",
"383 0 OFFCURVE",
"346 -4 CURVE",
"343 2 OFFCURVE",
"347 26 OFFCURVE",
"353 33 CURVE",
"365 34 OFFCURVE",
"409 38 OFFCURVE",
"416 51 CURVE SMOOTH",
"427 71 OFFCURVE",
"434 102 OFFCURVE",
"442 145 CURVE SMOOTH",
"474 310 LINE SMOOTH",
"474 312 OFFCURVE",
"473 315 OFFCURVE",
"473 315 CURVE",
"439 316 OFFCURVE",
"403 317 OFFCURVE",
"365 317 CURVE SMOOTH",
"262 317 OFFCURVE",
"254 315 OFFCURVE",
"251 313 CURVE",
"250 312 OFFCURVE",
"249 309 OFFCURVE",
"249 309 CURVE",
"218 145 LINE SMOOTH",
"210 102 OFFCURVE",
"203 71 OFFCURVE",
"207 51 CURVE SMOOTH",
"209 38 OFFCURVE",
"251 34 OFFCURVE",
"263 33 CURVE",
"266 26 OFFCURVE",
"261 2 OFFCURVE",
"256 -4 CURVE",
"221 0 OFFCURVE",
"163 3 OFFCURVE",
"124 3 CURVE SMOOTH",
"85 3 OFFCURVE",
"28 0 OFFCURVE",
"-9 -4 CURVE",
"-12 2 OFFCURVE",
"-7 26 OFFCURVE",
"-1 33 CURVE",
"11 34 OFFCURVE",
"55 38 OFFCURVE",
"62 51 CURVE SMOOTH",
"73 71 OFFCURVE",
"79 102 OFFCURVE",
"87 145 CURVE SMOOTH",
"159 513 LINE SMOOTH",
"167 556 OFFCURVE",
"174 587 OFFCURVE",
"170 607 CURVE SMOOTH",
"168 620 OFFCURVE",
"126 624 OFFCURVE",
"114 625 CURVE",
"111 632 OFFCURVE",
"116 656 OFFCURVE",
"121 662 CURVE",
"156 658 OFFCURVE",
"214 655 OFFCURVE"
);
}
);
width = 707;
}
);
unicode = 0048;
userData = {
com.fontlab.hintData = {
hhints = (
{
position = -4;
width = 37;
},
{
position = 317;
width = 51;
},
{
position = 625;
width = 37;
}
);
};
};
},
{
glyphname = Hbar;
lastChange = "2017-07-12 19:24:34 +0000";
layers = (
{
components = (
{
name = H;
}
);
layerId = "DEDDD934-E4FE-4A27-B966-8C21F8A9BC34";
paths = (
{
closed = 1;
nodes = (
"107 516 CURVE",
"132 516 OFFCURVE",
"686 516 OFFCURVE",
"698 516 CURVE SMOOTH",
"701 516 OFFCURVE",
"702 512 OFFCURVE",
"701 508 CURVE SMOOTH",
"700 503 OFFCURVE",
"695 485 OFFCURVE",
"690 477 CURVE",
"665 477 OFFCURVE",
"110 477 OFFCURVE",
"98 477 CURVE SMOOTH",
"95 477 OFFCURVE",
"95 484 OFFCURVE",
"96 488 CURVE SMOOTH",
"97 493 OFFCURVE",
"100 508 OFFCURVE"
);
}
);
width = 707;
}
);
unicode = 0126;
userData = {
com.fontlab.hintData = {
hhints = (
{
position = -4;
width = 37;
},
{
position = 317;
width = 51;
},
{
position = 477;
width = 39;
},
{
position = 625;
width = 37;
}
);
};
};
},
{
glyphname = I;
lastChange = "2017-07-12 19:24:34 +0000";
layers = (
{
layerId = "DEDDD934-E4FE-4A27-B966-8C21F8A9BC34";
paths = (
{
closed = 1;
nodes = (
"253 655 CURVE SMOOTH",
"292 655 OFFCURVE",
"348 658 OFFCURVE",
"385 662 CURVE",
"388 656 OFFCURVE",
"384 632 OFFCURVE",
"378 625 CURVE",
"366 624 OFFCURVE",
"322 620 OFFCURVE",
"315 607 CURVE SMOOTH",
"304 587 OFFCURVE",
"297 556 OFFCURVE",
"289 513 CURVE SMOOTH",
"218 145 LINE SMOOTH",
"210 102 OFFCURVE",
"203 71 OFFCURVE",
"207 51 CURVE SMOOTH",
"209 38 OFFCURVE",
"251 34 OFFCURVE",
"263 33 CURVE",
"266 26 OFFCURVE",
"261 2 OFFCURVE",
"256 -4 CURVE",
"221 0 OFFCURVE",
"163 3 OFFCURVE",
"124 3 CURVE SMOOTH",
"85 3 OFFCURVE",
"28 0 OFFCURVE",
"-9 -4 CURVE",
"-12 2 OFFCURVE",
"-7 26 OFFCURVE",
"-1 33 CURVE",
"11 34 OFFCURVE",
"55 38 OFFCURVE",
"62 51 CURVE SMOOTH",
"73 71 OFFCURVE",
"79 102 OFFCURVE",
"87 145 CURVE SMOOTH",
"159 513 LINE SMOOTH",
"167 556 OFFCURVE",
"174 587 OFFCURVE",
"170 607 CURVE SMOOTH",
"168 620 OFFCURVE",
"126 624 OFFCURVE",
"114 625 CURVE",
"111 632 OFFCURVE",
"116 656 OFFCURVE",
"121 662 CURVE",
"156 658 OFFCURVE",
"214 655 OFFCURVE"
);
}
);
width = 353;
}
);
unicode = 0049;
userData = {
com.fontlab.hintData = {
hhints = (
{
position = -4;
width = 37;
},
{
position = 625;
width = 37;
}
);
};
};
},
{
glyphname = Iogonek;
lastChange = "2017-07-12 19:24:34 +0000";
layers = (
{
layerId = "DEDDD934-E4FE-4A27-B966-8C21F8A9BC34";
paths = (
{
closed = 1;
nodes = (
"263 33 CURVE",
"266 26 OFFCURVE",
"261 2 OFFCURVE",
"256 -4 CURVE",
"247 -4 OFFCURVE",
"216 -3 OFFCURVE",
"192 -6 CURVE SMOOTH",
"141 -12 OFFCURVE",
"73 -69 OFFCURVE",
"73 -122 CURVE SMOOTH",
"73 -146 OFFCURVE",
"84 -156 OFFCURVE",
"109 -156 CURVE SMOOTH",
"151 -156 OFFCURVE",
"176 -125 OFFCURVE",
"183 -120 CURVE",
"190 -122 OFFCURVE",
"188 -142 OFFCURVE",
"186 -146 CURVE SMOOTH",
"163 -185 OFFCURVE",
"114 -218 OFFCURVE",
"72 -218 CURVE SMOOTH",
"33 -218 OFFCURVE",
"12 -187 OFFCURVE",
"12 -160 CURVE SMOOTH",
"12 -82 OFFCURVE",
"92 -15 OFFCURVE",
"129 4 CURVE",
"91 4 OFFCURVE",
"25 0 OFFCURVE",
"-9 -4 CURVE",
"-12 2 OFFCURVE",
"-7 26 OFFCURVE",
"-1 33 CURVE",
"11 34 OFFCURVE",
"55 38 OFFCURVE",
"62 51 CURVE SMOOTH",
"73 71 OFFCURVE",
"79 102 OFFCURVE",
"87 145 CURVE SMOOTH",
"159 513 LINE SMOOTH",
"167 556 OFFCURVE",
"174 587 OFFCURVE",
"170 607 CURVE SMOOTH",
"168 620 OFFCURVE",
"126 624 OFFCURVE",
"114 625 CURVE",
"111 632 OFFCURVE",
"116 656 OFFCURVE",
"121 662 CURVE",
"156 658 OFFCURVE",
"214 655 OFFCURVE",
"253 655 CURVE SMOOTH",
"292 655 OFFCURVE",
"348 658 OFFCURVE",
"385 662 CURVE",
"388 656 OFFCURVE",
"384 632 OFFCURVE",
"378 625 CURVE",
"366 624 OFFCURVE",
"322 620 OFFCURVE",
"315 607 CURVE SMOOTH",
"304 587 OFFCURVE",
"297 556 OFFCURVE",
"289 513 CURVE SMOOTH",
"218 145 LINE SMOOTH",
"210 102 OFFCURVE",
"203 71 OFFCURVE",
"207 51 CURVE SMOOTH",
"209 38 OFFCURVE",
"251 34 OFFCURVE"
);
}
);
width = 353;
}
);
unicode = 012E;
userData = {
com.fontlab.hintData = {
hhints = (
{
position = -218;
width = 62;
},
{
position = -4;
width = 37;
},
{
position = 625;
width = 37;
}
);
vhints = (
{
position = 12;
width = 61;
}
);
};
};
},
{
glyphname = J;
lastChange = "2017-07-12 19:24:34 +0000";
layers = (
{
layerId = "DEDDD934-E4FE-4A27-B966-8C21F8A9BC34";
paths = (
{
closed = 1;
nodes = (
"247 655 CURVE SMOOTH",
"286 655 OFFCURVE",
"342 658 OFFCURVE",
"379 662 CURVE",
"382 656 OFFCURVE",
"378 632 OFFCURVE",
"372 625 CURVE",
"360 624 OFFCURVE",
"316 620 OFFCURVE",
"309 607 CURVE SMOOTH",
"298 587 OFFCURVE",
"291 556 OFFCURVE",
"283 513 CURVE SMOOTH",
"211 143 LINE SMOOTH",
"167 -85 OFFCURVE",
"-39 -200 OFFCURVE",
"-98 -218 CURVE",
"-103 -215 OFFCURVE",
"-109 -205 OFFCURVE",
"-109 -200 CURVE SMOOTH",
"-109 -197 OFFCURVE",
"-108 -195 OFFCURVE",
"-107 -194 CURVE",
"-4 -138 OFFCURVE",
"48 -31 OFFCURVE",
"80 135 CURVE SMOOTH",
"153 513 LINE SMOOTH",
"161 556 OFFCURVE",
"168 587 OFFCURVE",
"164 607 CURVE SMOOTH",
"162 620 OFFCURVE",
"120 624 OFFCURVE",
"108 625 CURVE",
"105 632 OFFCURVE",
"110 656 OFFCURVE",
"115 662 CURVE",
"150 658 OFFCURVE",
"208 655 OFFCURVE"
);
}
);
width = 336;
}
);
unicode = 004A;
userData = {
com.fontlab.hintData = {
hhints = (
{
position = -218;
width = 24;
},
{
position = 625;
width = 37;
}
);
};
};
},
{
glyphname = K;
lastChange = "2017-07-12 19:24:34 +0000";
layers = (
{
layerId = "DEDDD934-E4FE-4A27-B966-8C21F8A9BC34";
paths = (
{
closed = 1;
nodes = (
"521 141 CURVE SMOOTH",
"598 26 OFFCURVE",
"653 29 OFFCURVE",
"660 29 CURVE",
"663 22 OFFCURVE",
"656 0 OFFCURVE",
"655 -2 CURVE",
"628 -4 OFFCURVE",
"628 -6 OFFCURVE",
"590 -6 CURVE SMOOTH",
"491 -6 OFFCURVE",
"449 20 OFFCURVE",
"401 92 CURVE SMOOTH",
"378 126 OFFCURVE",
"304 244 OFFCURVE",
"267 302 CURVE SMOOTH",
"265 305 OFFCURVE",
"260 306 OFFCURVE",
"258 306 CURVE SMOOTH",
"254 306 OFFCURVE",
"251 304 OFFCURVE",
"248 300 CURVE",
"218 145 LINE SMOOTH",
"210 102 OFFCURVE",
"203 71 OFFCURVE",
"207 51 CURVE SMOOTH",
"209 38 OFFCURVE",
"251 34 OFFCURVE",
"263 33 CURVE",
"266 26 OFFCURVE",
"261 2 OFFCURVE",
"256 -4 CURVE",
"221 0 OFFCURVE",
"163 3 OFFCURVE",
"124 3 CURVE SMOOTH",
"85 3 OFFCURVE",
"28 0 OFFCURVE",
"-9 -4 CURVE",
"-12 2 OFFCURVE",
"-7 26 OFFCURVE",
"-1 33 CURVE",
"11 34 OFFCURVE",
"55 38 OFFCURVE",
"62 51 CURVE SMOOTH",
"73 71 OFFCURVE",
"79 102 OFFCURVE",
"87 145 CURVE SMOOTH",
"159 513 LINE SMOOTH",
"167 556 OFFCURVE",
"174 587 OFFCURVE",
"170 607 CURVE SMOOTH",
"168 620 OFFCURVE",
"126 624 OFFCURVE",
"114 625 CURVE",
"111 632 OFFCURVE",
"116 656 OFFCURVE",
"121 662 CURVE",
"156 658 OFFCURVE",
"214 655 OFFCURVE",
"253 655 CURVE SMOOTH",
"292 655 OFFCURVE",
"348 658 OFFCURVE",
"385 662 CURVE",
"388 656 OFFCURVE",
"384 632 OFFCURVE",
"378 625 CURVE",
"366 624 OFFCURVE",
"322 620 OFFCURVE",
"315 607 CURVE SMOOTH",
"304 587 OFFCURVE",
"297 556 OFFCURVE",
"289 513 CURVE SMOOTH",
"255 337 LINE",
"303 372 OFFCURVE",
"342 403 OFFCURVE",
"369 428 CURVE SMOOTH",
"437 489 OFFCURVE",
"468 514 OFFCURVE",
"518 570 CURVE SMOOTH",
"530 583 OFFCURVE",
"533 596 OFFCURVE",
"534 603 CURVE SMOOTH",
"538 624 OFFCURVE",
"499 626 OFFCURVE",
"486 626 CURVE",
"483 634 OFFCURVE",
"486 653 OFFCURVE",
"491 662 CURVE",
"525 660 OFFCURVE",
"577 655 OFFCURVE",
"611 655 CURVE SMOOTH",
"652 655 OFFCURVE",
"692 658 OFFCURVE",
"727 662 CURVE",
"728 655 OFFCURVE",
"725 633 OFFCURVE",
"719 627 CURVE",
"710 626 OFFCURVE",
"644 619 OFFCURVE",
"605 583 CURVE SMOOTH",
"605 583 OFFCURVE",
"465 455 OFFCURVE",
"380 376 CURVE SMOOTH",
"373 369 OFFCURVE",
"372 365 OFFCURVE",
"375 360 CURVE SMOOTH",
"429 274 OFFCURVE",
"468 220 OFFCURVE"
);
}
);
width = 688;
}
);
unicode = 004B;
userData = {
com.fontlab.hintData = {
hhints = (
{
position = -4;
width = 37;
},
{
position = 625;
width = 37;
}
);
};
};
},
{
glyphname = L;
lastChange = "2017-07-12 19:24:34 +0000";
layers = (
{
layerId = "DEDDD934-E4FE-4A27-B966-8C21F8A9BC34";
paths = (
{
closed = 1;
nodes = (
"217 141 LINE SMOOTH",
"216 135 OFFCURVE",
"205 82 OFFCURVE",
"209 62 CURVE SMOOTH",
"212 48 OFFCURVE",
"241 42 OFFCURVE",
"265 42 CURVE SMOOTH",
"327 42 LINE SMOOTH",
"362 42 OFFCURVE",
"394 52 OFFCURVE",
"420 75 CURVE SMOOTH",
"444 96 OFFCURVE",
"463 125 OFFCURVE",
"488 170 CURVE SMOOTH",
"490 174 OFFCURVE",
"496 176 OFFCURVE",
"503 176 CURVE SMOOTH",
"512 176 OFFCURVE",
"527 173 OFFCURVE",
"529 170 CURVE",
"501 116 OFFCURVE",
"461 42 OFFCURVE",
"446 -2 CURVE",
"420 -2 OFFCURVE",
"249 -2 OFFCURVE",
"124 -2 CURVE SMOOTH",
"58 -2 OFFCURVE",
"5 -3 OFFCURVE",
"-8 -3 CURVE",
"-11 3 OFFCURVE",
"-7 27 OFFCURVE",
"-1 34 CURVE",
"11 35 OFFCURVE",
"55 38 OFFCURVE",
"62 51 CURVE SMOOTH",
"73 71 OFFCURVE",
"79 102 OFFCURVE",
"87 145 CURVE SMOOTH",
"159 513 LINE SMOOTH",
"167 556 OFFCURVE",
"174 587 OFFCURVE",
"170 607 CURVE SMOOTH",
"168 620 OFFCURVE",
"126 624 OFFCURVE",
"114 625 CURVE",
"111 632 OFFCURVE",
"116 656 OFFCURVE",
"121 662 CURVE",
"156 658 OFFCURVE",
"214 655 OFFCURVE",
"253 655 CURVE SMOOTH",
"292 655 OFFCURVE",
"348 658 OFFCURVE",
"385 662 CURVE",
"388 656 OFFCURVE",
"384 632 OFFCURVE",
"378 625 CURVE",
"366 624 OFFCURVE",
"322 620 OFFCURVE",
"315 607 CURVE SMOOTH",
"304 587 OFFCURVE",
"297 556 OFFCURVE",
"289 513 CURVE SMOOTH"
);
}
);
width = 547;
}
);
unicode = 004C;
userData = {
com.fontlab.hintData = {
hhints = (
{
position = -3;
width = 37;
},
{
position = -2;
width = 44;
},
{
position = 625;
width = 37;
}
);
};
};
},
{
glyphname = Lslash;
lastChange = "2017-07-12 19:24:34 +0000";
layers = (
{
components = (
{
name = L;
transform = "{1, 0, 0, 1, 1, 0}";
}
);
layerId = "DEDDD934-E4FE-4A27-B966-8C21F8A9BC34";
paths = (
{
closed = 1;
nodes = (
"2 196 LINE SMOOTH",
"-3 192 OFFCURVE",
"7 245 OFFCURVE",
"12 250 CURVE SMOOTH",
"169 338.659 LINE",
"210 353.812 LINE",
"437 482 LINE SMOOTH",
"443 486 OFFCURVE",
"432 432 OFFCURVE",
"427 428 CURVE SMOOTH",
"199 296.247 LINE",
"165 286.047 LINE"
);
}
);
width = 548;
}
);
unicode = 0141;
userData = {
com.fontlab.hintData = {
vhints = (
{
position = 48;
width = 257;
}
);
};
};
},
{
glyphname = M;
lastChange = "2017-07-12 19:24:34 +0000";
layers = (
{
layerId = "DEDDD934-E4FE-4A27-B966-8C21F8A9BC34";
paths = (
{
closed = 1;
nodes = (
"242 656 CURVE SMOOTH",
"274 656 OFFCURVE",
"302 660 OFFCURVE",
"340 662 CURVE",
"355 598 OFFCURVE",
"397 408 OFFCURVE",
"434 238 CURVE",
"434 238 OFFCURVE",
"436 236 OFFCURVE",
"437 236 CURVE SMOOTH",
"438 236 OFFCURVE",
"442 241 OFFCURVE",
"442 242 CURVE SMOOTH",
"442 242 OFFCURVE",
"548 426 OFFCURVE",
"611 546 CURVE SMOOTH",
"634 589 OFFCURVE",
"663 658 OFFCURVE",
"663 658 CURVE",
"671 657 OFFCURVE",
"745 655 OFFCURVE",
"763 655 CURVE SMOOTH",
"795 655 OFFCURVE",
"835 660 OFFCURVE",
"873 662 CURVE",
"876 658 OFFCURVE",
"876 632 OFFCURVE",
"870 624 CURVE",
"863 624 OFFCURVE",
"830 620 OFFCURVE",
"819 613 CURVE SMOOTH",
"808 606 OFFCURVE",
"802 599 OFFCURVE",
"798 572 CURVE SMOOTH",
"787 502 OFFCURVE",
"749 280 OFFCURVE",
"730 152 CURVE SMOOTH",
"724 113 OFFCURVE",
"719 77 OFFCURVE",
"723 51 CURVE SMOOTH",
"726 37 OFFCURVE",
"771 33 OFFCURVE",
"778 33 CURVE",
"780 24 OFFCURVE",
"778 6 OFFCURVE",
"773 -4 CURVE",
"736 -2 OFFCURVE",
"689 4 OFFCURVE",
"648 4 CURVE SMOOTH",
"605 4 OFFCURVE",
"543 -2 OFFCURVE",
"500 -4 CURVE",
"497 0 OFFCURVE",
"502 25 OFFCURVE",
"506 33 CURVE",
"517 33 OFFCURVE",
"563 38 OFFCURVE",
"574 52 CURVE SMOOTH",
"580 60 OFFCURVE",
"587 77 OFFCURVE",
"589 87 CURVE SMOOTH",
"591 97 OFFCURVE",
"596 130 OFFCURVE",
"599 148 CURVE SMOOTH",
"658 497 LINE SMOOTH",
"659 500 OFFCURVE",
"664 523 OFFCURVE",
"657 523 CURVE SMOOTH",
"655 523 OFFCURVE",
"654 521 OFFCURVE",
"651 516 CURVE SMOOTH",
"394 40 LINE SMOOTH",
"389 31 OFFCURVE",
"363 -2 OFFCURVE",
"346 -2 CURVE SMOOTH",
"343 -2 OFFCURVE",
"341 -1 OFFCURVE",
"338 0 CURVE",
"232 523 LINE",
"185 315 OFFCURVE",
"181 291 OFFCURVE",
"145 134 CURVE SMOOTH",
"140 112 OFFCURVE",
"135 72 OFFCURVE",
"135 65 CURVE SMOOTH",
"136 44 OFFCURVE",
"203 33 OFFCURVE",
"210 33 CURVE",
"211 26 OFFCURVE",
"209 6 OFFCURVE",
"204 -4 CURVE",
"167 -2 OFFCURVE",
"132 4 OFFCURVE",
"91 4 CURVE SMOOTH",
"48 4 OFFCURVE",
"16 -2 OFFCURVE",
"-27 -4 CURVE",
"-29 3 OFFCURVE",
"-26 22 OFFCURVE",
"-21 32 CURVE",
"-10 32 OFFCURVE",
"50 42 OFFCURVE",
"65 68 CURVE SMOOTH",
"71 78 OFFCURVE",
"89 140 OFFCURVE",
"93 156 CURVE SMOOTH",
"121 273 OFFCURVE",
"181 534 OFFCURVE",
"192 581 CURVE SMOOTH",
"193 588 OFFCURVE",
"194 596 OFFCURVE",
"191 603 CURVE SMOOTH",
"186 614 OFFCURVE",
"151 625 OFFCURVE",
"135 625 CURVE",
"131 633 OFFCURVE",
"140 660 OFFCURVE",
"142 662 CURVE",
"184 660 OFFCURVE",
"199 656 OFFCURVE"
);
}
);
width = 859;
}
);
unicode = 004D;
userData = {
com.fontlab.hintData = {
hhints = (
{
position = -4;
width = 37;
},
{
position = 625;
width = 37;
}
);
};
};
},
{
glyphname = N;
lastChange = "2017-07-12 19:24:34 +0000";
layers = (
{
layerId = "DEDDD934-E4FE-4A27-B966-8C21F8A9BC34";
paths = (
{
closed = 1;
nodes = (
"221 655 CURVE SMOOTH",
"254 655 OFFCURVE",
"293 658 OFFCURVE",
"324 662 CURVE",
"344 584 OFFCURVE",
"457 401 OFFCURVE",
"542 248 CURVE",
"545 255 OFFCURVE",
"549 275 OFFCURVE",
"552 289 CURVE SMOOTH",
"588 476 LINE SMOOTH",
"595 514 OFFCURVE",
"607 589 OFFCURVE",
"603 604 CURVE SMOOTH",
"599 622 OFFCURVE",
"543 626 OFFCURVE",
"532 626 CURVE",
"530 626 OFFCURVE",
"533 654 OFFCURVE",
"539 663 CURVE",
"581 661 OFFCURVE",
"608 655 OFFCURVE",
"651 655 CURVE SMOOTH",
"692 655 OFFCURVE",
"732 661 OFFCURVE",
"770 663 CURVE",
"771 657 OFFCURVE",
"768 635 OFFCURVE",
"760 625 CURVE",
"753 625 OFFCURVE",
"691 623 OFFCURVE",
"679 602 CURVE SMOOTH",
"672 588 OFFCURVE",
"652 515 OFFCURVE",
"645 479 CURVE SMOOTH",
"579 139 LINE SMOOTH",
"568 81 OFFCURVE",
"564 51 OFFCURVE",
"556 -1 CURVE",
"553 -4 OFFCURVE",
"535 -5 OFFCURVE",
"532 -5 CURVE SMOOTH",
"524 -5 OFFCURVE",
"515 5 OFFCURVE",
"508 18 CURVE SMOOTH",
"226 519 LINE",
"156 157 LINE SMOOTH",
"149 121 OFFCURVE",
"145 74 OFFCURVE",
"147 60 CURVE SMOOTH",
"150 41 OFFCURVE",
"212 34 OFFCURVE",
"219 34 CURVE",
"223 24 OFFCURVE",
"216 2 OFFCURVE",
"213 -4 CURVE",
"176 -2 OFFCURVE",
"138 4 OFFCURVE",
"97 4 CURVE SMOOTH",
"54 4 OFFCURVE",
"25 -2 OFFCURVE",
"-18 -4 CURVE",
"-21 5 OFFCURVE",
"-12 33 OFFCURVE",
"-10 33 CURVE",
"1 33 OFFCURVE",
"58 41 OFFCURVE",
"69 59 CURVE SMOOTH",
"78 74 OFFCURVE",
"93 122 OFFCURVE",
"100 160 CURVE SMOOTH",
"125 291 OFFCURVE",
"144 383 OFFCURVE",
"169 514 CURVE SMOOTH",
"179 568 OFFCURVE",
"177 585 OFFCURVE",
"169 604 CURVE SMOOTH",
"163 617 OFFCURVE",
"123 625 OFFCURVE",
"112 625 CURVE SMOOTH",
"107 625 OFFCURVE",
"111 657 OFFCURVE",
"117 662 CURVE",
"145 660 OFFCURVE",
"178 655 OFFCURVE"
);
}
);
width = 715;
}
);
unicode = 004E;
userData = {
com.fontlab.hintData = {
hhints = (
{
position = -4;
width = 37;
},
{
position = 4;
width = 29;
},
{
position = 625;
width = 38;
},
{
position = 625;
width = 30;
}
);
};
};
},
{
glyphname = Eng;
lastChange = "2017-07-12 19:24:34 +0000";
layers = (
{
layerId = "DEDDD934-E4FE-4A27-B966-8C21F8A9BC34";
paths = (
{
closed = 1;
nodes = (
"479 69 CURVE",
"226 519 LINE",
"156 157 LINE SMOOTH",
"149 121 OFFCURVE",
"145 74 OFFCURVE",
"147 60 CURVE SMOOTH",
"150 41 OFFCURVE",
"212 34 OFFCURVE",
"219 34 CURVE",
"223 24 OFFCURVE",
"216 2 OFFCURVE",
"213 -4 CURVE",
"176 -2 OFFCURVE",
"138 4 OFFCURVE",
"97 4 CURVE SMOOTH",
"54 4 OFFCURVE",
"25 -2 OFFCURVE",
"-18 -4 CURVE",
"-21 5 OFFCURVE",
"-12 33 OFFCURVE",
"-10 33 CURVE SMOOTH",
"1 33 OFFCURVE",
"58 41 OFFCURVE",
"69 59 CURVE SMOOTH",
"78 74 OFFCURVE",
"93 122 OFFCURVE",
"100 160 CURVE SMOOTH",
"125 291 OFFCURVE",
"144 383 OFFCURVE",
"169 514 CURVE SMOOTH",
"174 542 OFFCURVE",
"177 585 OFFCURVE",
"169 604 CURVE SMOOTH",
"163 617 OFFCURVE",
"123 625 OFFCURVE",
"112 625 CURVE SMOOTH",
"107 625 OFFCURVE",
"111 657 OFFCURVE",
"117 662 CURVE",
"145 660 OFFCURVE",
"178 655 OFFCURVE",
"221 655 CURVE SMOOTH",
"254 655 OFFCURVE",
"293 658 OFFCURVE",
"324 662 CURVE",
"344 584 OFFCURVE",
"457 401 OFFCURVE",
"542 248 CURVE",
"545 255 OFFCURVE",
"549 275 OFFCURVE",
"552 289 CURVE SMOOTH",
"588 476 LINE SMOOTH",
"595 514 OFFCURVE",
"607 589 OFFCURVE",
"603 604 CURVE SMOOTH",
"599 622 OFFCURVE",
"543 626 OFFCURVE",
"532 626 CURVE SMOOTH",
"530 626 OFFCURVE",
"533 654 OFFCURVE",
"539 663 CURVE",
"581 661 OFFCURVE",
"608 655 OFFCURVE",
"651 655 CURVE SMOOTH",
"692 655 OFFCURVE",
"732 661 OFFCURVE",
"770 663 CURVE",
"771 657 OFFCURVE",
"768 635 OFFCURVE",
"760 625 CURVE",
"753 625 OFFCURVE",
"691 623 OFFCURVE",
"679 602 CURVE SMOOTH",
"672 588 OFFCURVE",
"652 515 OFFCURVE",
"645 479 CURVE SMOOTH",
"579 139 LINE SMOOTH",
"534 -89 OFFCURVE",
"329 -200 OFFCURVE",
"270 -218 CURVE",
"265 -215 OFFCURVE",
"259 -205 OFFCURVE",
"259 -200 CURVE SMOOTH",
"259 -197 OFFCURVE",
"260 -195 OFFCURVE",
"261 -194 CURVE SMOOTH",
"352 -145 OFFCURVE",
"438 -63 OFFCURVE"
);
}
);
width = 714;
}
);
unicode = 014A;
userData = {
com.fontlab.hintData = {
hhints = (
{
position = -218;
width = 24;
},
{
position = -4;
width = 37;
},
{
position = 4;
width = 29;
},
{
position = 625;
width = 38;
},
{
position = 625;
width = 30;
}
);
};
};
},
{
glyphname = O;
lastChange = "2017-07-12 19:24:34 +0000";
layers = (
{
layerId = "DEDDD934-E4FE-4A27-B966-8C21F8A9BC34";
paths = (
{
closed = 1;
nodes = (
"402 624 CURVE SMOOTH",
"264 624 OFFCURVE",
"193 409 OFFCURVE",
"193 244 CURVE SMOOTH",
"193 129 OFFCURVE",
"231 33 OFFCURVE",
"326 33 CURVE SMOOTH",
"461 33 OFFCURVE",
"535 245 OFFCURVE",
"535 410 CURVE SMOOTH",
"535 525 OFFCURVE",
"492 624 OFFCURVE"
);
},
{
closed = 1;
nodes = (
"424 667 CURVE SMOOTH",
"588 667 OFFCURVE",
"679 522 OFFCURVE",
"679 393 CURVE SMOOTH",
"679 137 OFFCURVE",
"461 -10 OFFCURVE",
"295 -10 CURVE SMOOTH",
"155 -10 OFFCURVE",
"49 115 OFFCURVE",
"49 261 CURVE SMOOTH",
"49 510 OFFCURVE",
"259 667 OFFCURVE"
);
}
);
width = 705;
}
);
unicode = 004F;
userData = {
com.fontlab.hintData = {
hhints = (
{
position = -10;
width = 43;
},
{
position = 624;
width = 43;
}
);
vhints = (
{
position = 49;
width = 144;
},
{
position = 535;
width = 144;
}
);
};
};
},
{
glyphname = Ohorn;
lastChange = "2017-07-12 19:24:34 +0000";
layers = (
{
layerId = "DEDDD934-E4FE-4A27-B966-8C21F8A9BC34";
paths = (
{
closed = 1;
nodes = (
"402 624 CURVE SMOOTH",
"264 624 OFFCURVE",
"193 409 OFFCURVE",
"193 244 CURVE SMOOTH",
"193 129 OFFCURVE",
"231 33 OFFCURVE",
"326 33 CURVE SMOOTH",
"461 33 OFFCURVE",
"535 245 OFFCURVE",
"535 410 CURVE SMOOTH",
"535 525 OFFCURVE",
"492 624 OFFCURVE"
);
},
{
closed = 1;
nodes = (
"572 618 CURVE",
"596 607 OFFCURVE",
"623 595 OFFCURVE",
"643 596 CURVE SMOOTH",
"664 597 OFFCURVE",
"682 608 OFFCURVE",
"684 621 CURVE SMOOTH",
"687 643 OFFCURVE",
"661 645 OFFCURVE",
"666 677 CURVE SMOOTH",
"671 709 OFFCURVE",
"721 727 OFFCURVE",
"748 709 CURVE",
"751 701 OFFCURVE",
"757 686 OFFCURVE",
"757 678 CURVE SMOOTH",
"758 606 OFFCURVE",
"684 560 OFFCURVE",
"629 556 CURVE",
"662 507 OFFCURVE",
"679 449 OFFCURVE",
"679 393 CURVE SMOOTH",
"679 137 OFFCURVE",
"461 -10 OFFCURVE",
"295 -10 CURVE SMOOTH",
"155 -10 OFFCURVE",
"49 115 OFFCURVE",
"49 261 CURVE SMOOTH",
"49 510 OFFCURVE",
"259 667 OFFCURVE",
"424 667 CURVE SMOOTH",
"483 667 OFFCURVE",
"533 648 OFFCURVE"
);
}
);
width = 705;
}
);
unicode = 01A0;
userData = {
com.fontlab.hintData = {
hhints = (
{
position = -10;
width = 43;
},
{
position = 624;
width = 43;
}
);
vhints = (
{
position = 49;
width = 144;
},
{
position = 535;
width = 144;
},
{
position = 666;
width = 91;
}
);
};
};
},
{
glyphname = Oslash;
lastChange = "2017-07-12 19:24:34 +0000";
layers = (
{
components = (
{
name = O;
}
);
layerId = "DEDDD934-E4FE-4A27-B966-8C21F8A9BC34";
paths = (
{
closed = 1;
nodes = (
"104 -13 LINE",
"96 -10 OFFCURVE",
"75 6 OFFCURVE",
"80 12 CURVE",
"596 669 LINE",
"604 667 OFFCURVE",
"626 651 OFFCURVE",
"621 645 CURVE"
);
}
);
width = 705;
}
);
unicode = 00D8;
userData = {
com.fontlab.hintData = {
hhints = (
{
position = -10;
width = 43;
},
{
position = 624;
width = 43;
}
);
vhints = (
{
position = 49;
width = 144;
},
{
position = 535;
width = 144;
}
);
};
};
},
{
glyphname = OE;
lastChange = "2017-07-12 19:24:34 +0000";
layers = (
{
layerId = "DEDDD934-E4FE-4A27-B966-8C21F8A9BC34";
paths = (
{
closed = 1;
nodes = (
"421 624 CURVE SMOOTH",
"283 624 OFFCURVE",
"195 409 OFFCURVE",
"195 244 CURVE SMOOTH",
"195 129 OFFCURVE",
"232 33 OFFCURVE",
"324 33 CURVE SMOOTH",
"437 33 OFFCURVE",
"481 81 OFFCURVE",
"492 139 CURVE SMOOTH",
"492 139 OFFCURVE",
"535 360 OFFCURVE",
"557 472 CURVE SMOOTH",
"565 514 OFFCURVE",
"557 559 OFFCURVE",
"526 589 CURVE SMOOTH",
"497 617 OFFCURVE",
"454 624 OFFCURVE"
);
},
{
closed = 1;
nodes = (
"549 -2 CURVE SMOOTH",
"537 -2 OFFCURVE",
"480 -3 OFFCURVE",
"427 -6 CURVE SMOOTH",
"390 -8 OFFCURVE",
"349 -10 OFFCURVE",
"297 -10 CURVE SMOOTH",
"157 -10 OFFCURVE",
"51 115 OFFCURVE",
"51 261 CURVE SMOOTH",
"51 510 OFFCURVE",
"228 667 OFFCURVE",
"443 667 CURVE SMOOTH",
"542 667 OFFCURVE",
"567 657 OFFCURVE",
"637 657 CURVE SMOOTH",
"676 657 OFFCURVE",
"908 663 OFFCURVE",
"963 664 CURVE",
"962 646 OFFCURVE",
"961 628 OFFCURVE",
"961 610 CURVE SMOOTH",
"960 577 OFFCURVE",
"961 545 OFFCURVE",
"961 516 CURVE",
"958 513 OFFCURVE",
"945 511 OFFCURVE",
"938 511 CURVE SMOOTH",
"931 511 OFFCURVE",
"926 514 OFFCURVE",
"925 519 CURVE SMOOTH",
"916 574 OFFCURVE",
"901 620 OFFCURVE",
"844 620 CURVE SMOOTH",
"767 620 LINE SMOOTH",
"746 620 OFFCURVE",
"725 619 OFFCURVE",
"718 608 CURVE SMOOTH",
"711 596 OFFCURVE",
"708 576 OFFCURVE",
"702 547 CURVE SMOOTH",
"667 368 LINE SMOOTH",
"666 362 OFFCURVE",
"685 357 OFFCURVE",
"705 357 CURVE SMOOTH",
"754 357 LINE SMOOTH",
"809 357 OFFCURVE",
"824 369 OFFCURVE",
"850 427 CURVE SMOOTH",
"852 432 OFFCURVE",
"855 435 OFFCURVE",
"862 435 CURVE SMOOTH",
"869 435 OFFCURVE",
"877 433 OFFCURVE",
"879 430 CURVE",
"842 238 LINE",
"840 236 OFFCURVE",
"831 234 OFFCURVE",
"824 234 CURVE SMOOTH",
"817 234 OFFCURVE",
"813 237 OFFCURVE",
"813 242 CURVE SMOOTH",
"811 290 OFFCURVE",
"800 299 OFFCURVE",
"792 303 CURVE SMOOTH",
"782 308 OFFCURVE",
"758 310 OFFCURVE",
"723 310 CURVE SMOOTH",
"697 310 OFFCURVE",
"655 308 OFFCURVE",
"653 296 CURVE SMOOTH",
"623 141 LINE SMOOTH",
"622 135 OFFCURVE",
"611 82 OFFCURVE",
"615 62 CURVE SMOOTH",
"618 48 OFFCURVE",
"647 42 OFFCURVE",
"671 42 CURVE SMOOTH",
"733 42 LINE SMOOTH",
"768 42 OFFCURVE",
"800 52 OFFCURVE",
"826 75 CURVE SMOOTH",
"850 96 OFFCURVE",
"869 125 OFFCURVE",
"894 170 CURVE SMOOTH",
"896 174 OFFCURVE",
"902 176 OFFCURVE",
"909 176 CURVE SMOOTH",
"918 176 OFFCURVE",
"933 173 OFFCURVE",
"935 170 CURVE",
"907 116 OFFCURVE",
"867 42 OFFCURVE",
"852 -2 CURVE",
"828 -2 OFFCURVE",
"675 -2 OFFCURVE"
);
}
);
width = 979;
}
);
unicode = 0152;
userData = {
com.fontlab.hintData = {
hhints = (
{
position = -10;
width = 43;
},
{
position = -2;
width = 44;
},
{
position = 310;
width = 47;
},
{
position = 620;
width = 37;
},
{
position = 624;
width = 43;
}
);
vhints = (
{
position = 51;
width = 144;
},
{
position = 813;
width = 29;
},
{
position = 850;
width = 29;
},
{
position = 925;
width = 36;
}
);
};
};
},
{
glyphname = P;
lastChange = "2017-07-12 19:24:34 +0000";
layers = (
{
layerId = "DEDDD934-E4FE-4A27-B966-8C21F8A9BC34";
paths = (
{
closed = 1;
nodes = (
"573 465 CURVE SMOOTH",
"550 345 OFFCURVE",
"428 286 OFFCURVE",
"334 286 CURVE SMOOTH",
"307 286 OFFCURVE",
"294 296 OFFCURVE",
"287 301 CURVE SMOOTH",
"283 304 OFFCURVE",
"277 319 OFFCURVE",
"277 324 CURVE SMOOTH",
"277 328 OFFCURVE",
"280 331 OFFCURVE",
"282 331 CURVE",
"291 328 OFFCURVE",
"298 327 OFFCURVE",
"312 327 CURVE SMOOTH",
"358 327 OFFCURVE",
"419 385 OFFCURVE",
"432 451 CURVE SMOOTH",
"449 540 OFFCURVE",
"423 620 OFFCURVE",
"361 620 CURVE SMOOTH",
"340 620 OFFCURVE",
"319 619 OFFCURVE",
"312 608 CURVE SMOOTH",
"305 596 OFFCURVE",
"302 576 OFFCURVE",
"296 547 CURVE SMOOTH",
"218 145 LINE SMOOTH",
"210 102 OFFCURVE",
"203 71 OFFCURVE",
"207 51 CURVE SMOOTH",
"209 38 OFFCURVE",
"251 34 OFFCURVE",
"263 33 CURVE",
"266 26 OFFCURVE",
"261 2 OFFCURVE",
"256 -4 CURVE",
"221 0 OFFCURVE",
"163 3 OFFCURVE",
"124 3 CURVE SMOOTH",
"85 3 OFFCURVE",
"28 0 OFFCURVE",
"-9 -4 CURVE",
"-12 2 OFFCURVE",
"-7 26 OFFCURVE",
"-1 33 CURVE",
"11 34 OFFCURVE",
"55 38 OFFCURVE",
"62 51 CURVE SMOOTH",
"73 71 OFFCURVE",
"79 102 OFFCURVE",
"87 145 CURVE SMOOTH",
"159 513 LINE SMOOTH",
"167 556 OFFCURVE",
"174 587 OFFCURVE",
"170 607 CURVE SMOOTH",
"168 620 OFFCURVE",
"125 622 OFFCURVE",
"113 623 CURVE",
"110 630 OFFCURVE",
"116 654 OFFCURVE",
"121 660 CURVE",
"162 657 OFFCURVE",
"214 657 OFFCURVE",
"253 657 CURVE SMOOTH",
"292 657 OFFCURVE",
"342 660 OFFCURVE",
"397 660 CURVE SMOOTH",
"513 660 OFFCURVE",
"594 572 OFFCURVE"
);
}
);
width = 557;
}
);
unicode = 0050;
userData = {
com.fontlab.hintData = {
hhints = (
{
position = -4;
width = 37;
},
{
position = 286;
width = 41;
},
{
position = 620;
width = 40;
}
);
};
};
},
{
glyphname = Thorn;
lastChange = "2017-07-12 19:24:34 +0000";
layers = (
{
layerId = "DEDDD934-E4FE-4A27-B966-8C21F8A9BC34";
paths = (
{
closed = 1;
nodes = (
"364 513 CURVE SMOOTH",
"483 513 OFFCURVE",
"565 424 OFFCURVE",
"544 317 CURVE SMOOTH",
"521 197 OFFCURVE",
"399 135 OFFCURVE",
"305 135 CURVE SMOOTH",
"272 135 OFFCURVE",
"259 147 OFFCURVE",
"254 154 CURVE SMOOTH",
"251 158 OFFCURVE",
"249 171 OFFCURVE",
"249 176 CURVE SMOOTH",
"249 180 OFFCURVE",
"251 183 OFFCURVE",
"253 183 CURVE",
"262 180 OFFCURVE",
"269 179 OFFCURVE",
"283 179 CURVE SMOOTH",
"329 179 OFFCURVE",
"390 237 OFFCURVE",
"403 303 CURVE SMOOTH",
"420 392 OFFCURVE",
"394 472 OFFCURVE",
"332 472 CURVE SMOOTH",
"311 472 OFFCURVE",
"293 468 OFFCURVE",
"284 456 CURVE SMOOTH",
"276 445 OFFCURVE",
"273 428 OFFCURVE",
"267 399 CURVE SMOOTH",
"218 145 LINE SMOOTH",
"210 102 OFFCURVE",
"203 71 OFFCURVE",
"207 51 CURVE SMOOTH",
"209 38 OFFCURVE",
"251 34 OFFCURVE",
"263 33 CURVE",
"266 26 OFFCURVE",
"261 2 OFFCURVE",
"256 -4 CURVE",
"221 0 OFFCURVE",
"163 3 OFFCURVE",
"124 3 CURVE SMOOTH",
"85 3 OFFCURVE",
"28 0 OFFCURVE",
"-9 -4 CURVE",
"-12 2 OFFCURVE",
"-7 26 OFFCURVE",
"-1 33 CURVE",
"11 34 OFFCURVE",
"55 38 OFFCURVE",
"62 51 CURVE SMOOTH",
"73 71 OFFCURVE",
"79 102 OFFCURVE",
"87 145 CURVE SMOOTH",
"159 513 LINE SMOOTH",
"167 556 OFFCURVE",
"174 587 OFFCURVE",
"170 607 CURVE SMOOTH",
"168 620 OFFCURVE",
"125 622 OFFCURVE",
"113 623 CURVE",
"110 630 OFFCURVE",
"116 654 OFFCURVE",
"121 660 CURVE",
"162 657 OFFCURVE",
"214 657 OFFCURVE",
"253 657 CURVE SMOOTH",
"292 657 OFFCURVE",
"348 660 OFFCURVE",
"385 664 CURVE",
"388 658 OFFCURVE",
"384 634 OFFCURVE",
"378 627 CURVE",
"366 626 OFFCURVE",
"322 622 OFFCURVE",
"315 609 CURVE SMOOTH",
"305 591 OFFCURVE",
"298 559 OFFCURVE",
"291 520 CURVE SMOOTH",
"291 520 OFFCURVE",
"291 509 OFFCURVE",
"293 509 CURVE SMOOTH",
"295 509 OFFCURVE",
"296 510 OFFCURVE",
"298 510 CURVE SMOOTH",
"312 513 OFFCURVE",
"343 513 OFFCURVE"
);
}
);
width = 556;
}
);
unicode = 00DE;
userData = {
com.fontlab.hintData = {
hhints = (
{
position = -4;
width = 37;
},
{
position = 135;
width = 44;
},
{
position = 472;
width = 41;
},
{
position = 623;
width = 37;
}
);
};
};
},
{
glyphname = Q;
lastChange = "2017-07-12 19:24:34 +0000";
layers = (
{
layerId = "DEDDD934-E4FE-4A27-B966-8C21F8A9BC34";
paths = (
{
closed = 1;
nodes = (
"425 667 CURVE SMOOTH",
"589 667 OFFCURVE",
"680 522 OFFCURVE",
"680 393 CURVE SMOOTH",
"680 179 OFFCURVE",
"535 56 OFFCURVE",
"406 10 CURVE",
"486 -36 OFFCURVE",
"527 -73 OFFCURVE",
"623 -73 CURVE SMOOTH",
"646 -73 OFFCURVE",
"667 -68 OFFCURVE",
"674 -66 CURVE",
"681 -66 OFFCURVE",
"689 -70 OFFCURVE",
"693 -76 CURVE",
"681 -86 OFFCURVE",
"592 -140 OFFCURVE",
"535 -140 CURVE SMOOTH",
"429 -140 OFFCURVE",
"355 -58 OFFCURVE",
"234 -8 CURVE SMOOTH",
"118 40 OFFCURVE",
"50 141 OFFCURVE",
"50 261 CURVE SMOOTH",
"50 510 OFFCURVE",
"260 667 OFFCURVE"
);
},
{
closed = 1;
nodes = (
"403 624 CURVE SMOOTH",
"265 624 OFFCURVE",
"194 409 OFFCURVE",
"194 244 CURVE SMOOTH",
"194 129 OFFCURVE",
"232 33 OFFCURVE",
"327 33 CURVE SMOOTH",
"462 33 OFFCURVE",
"536 245 OFFCURVE",
"536 410 CURVE SMOOTH",
"536 525 OFFCURVE",
"493 624 OFFCURVE"
);
}
);
width = 706;
}
);
unicode = 0051;
userData = {
com.fontlab.hintData = {
hhints = (
{
position = -140;
width = 67;
},
{
position = 624;
width = 43;
}
);
vhints = (
{
position = 50;
width = 144;
},
{
position = 536;
width = 144;
}
);
};
};
},
{
glyphname = R;
lastChange = "2017-07-12 19:24:34 +0000";
layers = (
{
layerId = "DEDDD934-E4FE-4A27-B966-8C21F8A9BC34";
paths = (
{
closed = 1;
nodes = (
"253 657 CURVE SMOOTH",
"292 657 OFFCURVE",
"342 660 OFFCURVE",
"397 660 CURVE SMOOTH",
"513 660 OFFCURVE",
"585 582 OFFCURVE",
"561 458 CURVE SMOOTH",
"544 371 OFFCURVE",
"435 325 OFFCURVE",
"396 316 CURVE",
"445 218 OFFCURVE",
"450 200 OFFCURVE",
"495 130 CURVE SMOOTH",
"550 44 OFFCURVE",
"621 28 OFFCURVE",
"636 28 CURVE",
"639 21 OFFCURVE",
"635 -2 OFFCURVE",
"634 -4 CURVE",
"607 -6 OFFCURVE",
"613 -8 OFFCURVE",
"575 -8 CURVE SMOOTH",
"422 -8 OFFCURVE",
"387 65 OFFCURVE",
"370 99 CURVE SMOOTH",
"275 284 LINE SMOOTH",
"275 284 OFFCURVE",
"268 299 OFFCURVE",
"261 299 CURVE SMOOTH",
"248 299 LINE",
"218 145 LINE SMOOTH",
"210 102 OFFCURVE",
"203 71 OFFCURVE",
"207 51 CURVE SMOOTH",
"209 38 OFFCURVE",
"251 34 OFFCURVE",
"263 33 CURVE",
"266 26 OFFCURVE",
"261 2 OFFCURVE",
"256 -4 CURVE",
"221 0 OFFCURVE",
"163 3 OFFCURVE",
"124 3 CURVE SMOOTH",
"85 3 OFFCURVE",
"28 0 OFFCURVE",
"-9 -4 CURVE",
"-12 2 OFFCURVE",
"-7 26 OFFCURVE",
"-1 33 CURVE",
"11 34 OFFCURVE",
"55 38 OFFCURVE",
"62 51 CURVE SMOOTH",
"73 71 OFFCURVE",
"79 102 OFFCURVE",
"87 145 CURVE SMOOTH",
"159 513 LINE SMOOTH",
"167 556 OFFCURVE",
"174 587 OFFCURVE",
"170 607 CURVE SMOOTH",
"168 620 OFFCURVE",
"125 622 OFFCURVE",
"113 623 CURVE",
"110 630 OFFCURVE",
"116 654 OFFCURVE",
"121 660 CURVE",
"162 657 OFFCURVE",
"214 657 OFFCURVE"
);
},
{
closed = 1;
nodes = (
"255 338 LINE",
"298 338 LINE SMOOTH",
"351 338 OFFCURVE",
"400 372 OFFCURVE",
"421 448 CURVE SMOOTH",
"441 520 OFFCURVE",
"437 620 OFFCURVE",
"361 620 CURVE SMOOTH",
"340 620 OFFCURVE",
"319 619 OFFCURVE",
"312 608 CURVE SMOOTH",
"305 596 OFFCURVE",
"302 576 OFFCURVE",
"296 547 CURVE SMOOTH"
);
}
);
width = 645;
}
);
unicode = 0052;
userData = {
com.fontlab.hintData = {
hhints = (
{
position = -4;
width = 37;
},
{
position = 299;
width = 39;
},
{
position = 620;
width = 40;
}
);
};
};
},
{
glyphname = S;
lastChange = "2017-07-12 19:24:34 +0000";
layers = (
{
layerId = "DEDDD934-E4FE-4A27-B966-8C21F8A9BC34";
paths = (
{
closed = 1;
nodes = (
"332 670 CURVE SMOOTH",
"387 670 OFFCURVE",
"429 655 OFFCURVE",
"483 642 CURVE",
"477 589 OFFCURVE",
"470 537 OFFCURVE",
"461 476 CURVE",
"457 472 OFFCURVE",
"453 470 OFFCURVE",
"449 470 CURVE SMOOTH",
"446 470 OFFCURVE",
"423 469 OFFCURVE",
"423 477 CURVE SMOOTH",
"426 533 OFFCURVE",
"400 628 OFFCURVE",
"328 628 CURVE SMOOTH",
"292 628 OFFCURVE",
"245 608 OFFCURVE",
"232 541 CURVE SMOOTH",
"220 479 OFFCURVE",
"287 422 OFFCURVE",
"336 381 CURVE SMOOTH",
"389 337 OFFCURVE",
"456 294 OFFCURVE",
"433 175 CURVE SMOOTH",
"412 65 OFFCURVE",
"296 -10 OFFCURVE",
"194 -10 CURVE SMOOTH",
"139 -10 OFFCURVE",
"75 2 OFFCURVE",
"22 16 CURVE",
"21 60 OFFCURVE",
"29 158 OFFCURVE",
"33 186 CURVE",
"38 192 OFFCURVE",
"58 200 OFFCURVE",
"63 200 CURVE SMOOTH",
"70 200 OFFCURVE",
"73 198 OFFCURVE",
"73 192 CURVE SMOOTH",
"71 138 OFFCURVE",
"109 32 OFFCURVE",
"193 32 CURVE SMOOTH",
"240 32 OFFCURVE",
"288 58 OFFCURVE",
"302 129 CURVE SMOOTH",
"316 200 OFFCURVE",
"236 258 OFFCURVE",
"196 292 CURVE SMOOTH",
"138 341 OFFCURVE",
"79 385 OFFCURVE",
"99 489 CURVE SMOOTH",
"119 592 OFFCURVE",
"236 670 OFFCURVE"
);
}
);
width = 494;
}
);
unicode = 0053;
userData = {
com.fontlab.hintData = {
hhints = (
{
position = -10;
width = 42;
},
{
position = 628;
width = 42;
}
);
vhints = (
{
position = 33;
width = 40;
},
{
position = 423;
width = 38;
}
);
};
};
},
{
glyphname = T;
lastChange = "2017-07-12 19:24:34 +0000";
layers = (
{
layerId = "DEDDD934-E4FE-4A27-B966-8C21F8A9BC34";
paths = (
{
closed = 1;
nodes = (
"364 657 LINE SMOOTH",
"528 657 LINE SMOOTH",
"595 657 OFFCURVE",
"611 676 OFFCURVE",
"628 676 CURVE SMOOTH",
"635 676 OFFCURVE",
"636 675 OFFCURVE",
"639 673 CURVE",
"628 489 LINE",
"625 486 OFFCURVE",
"608 482 OFFCURVE",
"600 482 CURVE SMOOTH",
"595 482 OFFCURVE",
"592 483 OFFCURVE",
"592 487 CURVE SMOOTH",
"595 552 OFFCURVE",
"564 613 OFFCURVE",
"517 613 CURVE SMOOTH",
"430 613 LINE",
"339 145 LINE SMOOTH",
"331 102 OFFCURVE",
"324 71 OFFCURVE",
"328 51 CURVE SMOOTH",
"330 38 OFFCURVE",
"372 34 OFFCURVE",
"384 33 CURVE",
"387 26 OFFCURVE",
"382 2 OFFCURVE",
"377 -4 CURVE",
"342 0 OFFCURVE",
"285 3 OFFCURVE",
"246 3 CURVE SMOOTH",
"207 3 OFFCURVE",
"150 0 OFFCURVE",
"113 -4 CURVE",
"110 2 OFFCURVE",
"114 26 OFFCURVE",
"120 33 CURVE",
"132 34 OFFCURVE",
"176 38 OFFCURVE",
"183 51 CURVE SMOOTH",
"194 71 OFFCURVE",
"201 102 OFFCURVE",
"209 145 CURVE SMOOTH",
"300 613 LINE",
"213 613 LINE SMOOTH",
"166 613 OFFCURVE",
"111 552 OFFCURVE",
"89 487 CURVE SMOOTH",
"87 483 OFFCURVE",
"84 482 OFFCURVE",
"79 482 CURVE SMOOTH",
"71 482 OFFCURVE",
"56 486 OFFCURVE",
"54 489 CURVE",
"114 673 LINE",
"118 675 OFFCURVE",
"119 676 OFFCURVE",
"126 676 CURVE SMOOTH",
"143 676 OFFCURVE",
"152 657 OFFCURVE",
"219 657 CURVE SMOOTH"
);
}
);
width = 596;
}
);
unicode = 0054;
userData = {
com.fontlab.hintData = {
hhints = (
{
position = -4;
width = 37;
},
{
position = 613;
width = 44;
}
);
vhints = (
{
position = 592;
width = 36;
}
);
};
};
},
{
glyphname = Tbar;
lastChange = "2017-07-12 19:24:34 +0000";
layers = (
{
components = (
{
name = T;
}
);
layerId = "DEDDD934-E4FE-4A27-B966-8C21F8A9BC34";
paths = (
{
closed = 1;
nodes = (
"151 343 CURVE",
"179 343 OFFCURVE",
"468 343 OFFCURVE",
"481 343 CURVE SMOOTH",
"485 343 OFFCURVE",
"487 339 OFFCURVE",
"486 335 CURVE SMOOTH",
"485 330 OFFCURVE",
"480 311 OFFCURVE",
"475 304 CURVE",
"447 304 OFFCURVE",
"157 304 OFFCURVE",
"144 304 CURVE SMOOTH",
"140 304 OFFCURVE",
"140 311 OFFCURVE",
"141 315 CURVE SMOOTH",
"142 320 OFFCURVE",
"144 336 OFFCURVE"
);
}
);
width = 596;
}
);
unicode = 0166;
userData = {
com.fontlab.hintData = {
hhints = (
{
position = -4;
width = 37;
},
{
position = 304;
width = 39;
},
{
position = 613;
width = 44;
}
);
vhints = (
{
position = 592;
width = 36;
}
);
};
};
},
{
glyphname = U;
lastChange = "2017-07-12 19:24:34 +0000";
layers = (
{
layerId = "DEDDD934-E4FE-4A27-B966-8C21F8A9BC34";
paths = (
{
closed = 1;
nodes = (
"234 655 CURVE SMOOTH",
"273 655 OFFCURVE",
"329 658 OFFCURVE",
"366 662 CURVE",
"369 656 OFFCURVE",
"365 632 OFFCURVE",
"359 625 CURVE",
"347 624 OFFCURVE",
"303 620 OFFCURVE",
"296 607 CURVE SMOOTH",
"285 587 OFFCURVE",
"278 556 OFFCURVE",
"270 513 CURVE SMOOTH",
"235 330 LINE SMOOTH",
"222 262 OFFCURVE",
"214 212 OFFCURVE",
"225 159 CURVE SMOOTH",
"243 71 OFFCURVE",
"312 63 OFFCURVE",
"348 63 CURVE SMOOTH",
"422 63 OFFCURVE",
"512 134 OFFCURVE",
"546 309 CURVE SMOOTH",
"579 479 LINE SMOOTH",
"587 522 OFFCURVE",
"594 581 OFFCURVE",
"590 601 CURVE SMOOTH",
"586 620 OFFCURVE",
"537 624 OFFCURVE",
"525 625 CURVE",
"522 632 OFFCURVE",
"527 656 OFFCURVE",
"532 662 CURVE",
"575 658 OFFCURVE",
"604 655 OFFCURVE",
"647 655 CURVE SMOOTH",
"688 655 OFFCURVE",
"718 660 OFFCURVE",
"757 662 CURVE",
"760 656 OFFCURVE",
"756 632 OFFCURVE",
"750 625 CURVE",
"738 624 OFFCURVE",
"686 622 OFFCURVE",
"674 601 CURVE SMOOTH",
"663 581 OFFCURVE",
"645 523 OFFCURVE",
"637 480 CURVE SMOOTH",
"599 286 LINE SMOOTH",
"559 82 OFFCURVE",
"421 -9 OFFCURVE",
"287 -9 CURVE SMOOTH",
"209 -9 OFFCURVE",
"141 19 OFFCURVE",
"108 79 CURVE SMOOTH",
"81 128 OFFCURVE",
"79 197 OFFCURVE",
"99 301 CURVE SMOOTH",
"140 513 LINE SMOOTH",
"148 556 OFFCURVE",
"155 587 OFFCURVE",
"151 607 CURVE SMOOTH",
"149 620 OFFCURVE",
"107 624 OFFCURVE",
"95 625 CURVE",
"92 632 OFFCURVE",
"97 656 OFFCURVE",
"102 662 CURVE",
"137 658 OFFCURVE",
"195 655 OFFCURVE"
);
}
);
width = 692;
}
);
unicode = 0055;
userData = {
com.fontlab.hintData = {
hhints = (
{
position = -9;
width = 72;
},
{
position = 625;
width = 37;
}
);
};
};
},
{
glyphname = Uhorn;
lastChange = "2017-07-12 19:24:34 +0000";
layers = (
{
layerId = "DEDDD934-E4FE-4A27-B966-8C21F8A9BC34";
paths = (
{
closed = 1;
nodes = (
"234 655 CURVE SMOOTH",
"273 655 OFFCURVE",
"329 658 OFFCURVE",
"366 662 CURVE",
"369 656 OFFCURVE",
"365 632 OFFCURVE",
"359 625 CURVE",
"347 624 OFFCURVE",
"303 620 OFFCURVE",
"296 607 CURVE SMOOTH",
"285 587 OFFCURVE",
"278 556 OFFCURVE",
"270 513 CURVE SMOOTH",
"235 330 LINE SMOOTH",
"222 262 OFFCURVE",
"214 212 OFFCURVE",
"225 159 CURVE SMOOTH",
"243 71 OFFCURVE",
"312 63 OFFCURVE",
"348 63 CURVE SMOOTH",
"422 63 OFFCURVE",
"512 134 OFFCURVE",
"546 309 CURVE SMOOTH",
"579 479 LINE SMOOTH",
"587 522 OFFCURVE",
"594 581 OFFCURVE",
"590 601 CURVE SMOOTH",
"586 620 OFFCURVE",
"537 624 OFFCURVE",
"525 625 CURVE",
"522 632 OFFCURVE",
"527 656 OFFCURVE",
"532 662 CURVE",
"575 658 OFFCURVE",
"604 656 OFFCURVE",
"647 656 CURVE SMOOTH",
"687 656 OFFCURVE",
"709 659 OFFCURVE",
"734 676 CURVE SMOOTH",
"752 689 OFFCURVE",
"711 700 OFFCURVE",
"716 732 CURVE SMOOTH",
"721 764 OFFCURVE",
"771 782 OFFCURVE",
"798 764 CURVE",
"801 756 OFFCURVE",
"807 741 OFFCURVE",
"807 733 CURVE SMOOTH",
"808 690 OFFCURVE",
"782 661 OFFCURVE",
"750 643 CURVE SMOOTH",
"723 628 OFFCURVE",
"688 626 OFFCURVE",
"674 601 CURVE SMOOTH",
"663 581 OFFCURVE",
"645 523 OFFCURVE",
"637 480 CURVE SMOOTH",
"599 286 LINE SMOOTH",
"559 82 OFFCURVE",
"421 -9 OFFCURVE",
"287 -9 CURVE SMOOTH",
"209 -9 OFFCURVE",
"141 19 OFFCURVE",
"108 79 CURVE SMOOTH",
"81 128 OFFCURVE",
"79 197 OFFCURVE",
"99 301 CURVE SMOOTH",
"140 513 LINE SMOOTH",
"148 556 OFFCURVE",
"155 587 OFFCURVE",
"151 607 CURVE SMOOTH",
"149 620 OFFCURVE",
"107 624 OFFCURVE",
"95 625 CURVE",
"92 632 OFFCURVE",
"97 656 OFFCURVE",
"102 662 CURVE",
"137 658 OFFCURVE",
"195 655 OFFCURVE"
);
}
);
width = 692;
}
);
unicode = 01AF;
userData = {
com.fontlab.hintData = {
hhints = (
{
position = -9;
width = 72;
},
{
position = 625;
width = 37;
}
);
vhints = (
{
position = 716;
width = 91;
}
);
};
};
},
{
glyphname = Uogonek;
lastChange = "2017-07-12 19:24:34 +0000";
layers = (
{
layerId = "DEDDD934-E4FE-4A27-B966-8C21F8A9BC34";
paths = (
{
closed = 1;
nodes = (
"314 -122 CURVE SMOOTH",
"314 -146 OFFCURVE",
"325 -156 OFFCURVE",
"350 -156 CURVE SMOOTH",
"392 -156 OFFCURVE",
"417 -125 OFFCURVE",
"424 -120 CURVE",
"431 -122 OFFCURVE",
"429 -142 OFFCURVE",
"427 -146 CURVE SMOOTH",
"404 -185 OFFCURVE",
"355 -218 OFFCURVE",
"313 -218 CURVE SMOOTH",
"274 -218 OFFCURVE",
"253 -187 OFFCURVE",
"253 -160 CURVE SMOOTH",
"253 -98 OFFCURVE",
"308 -48 OFFCURVE",
"349 -3 CURVE",
"329 -7 OFFCURVE",
"308 -9 OFFCURVE",
"287 -9 CURVE SMOOTH",
"209 -9 OFFCURVE",
"141 19 OFFCURVE",
"108 79 CURVE SMOOTH",
"81 128 OFFCURVE",
"79 197 OFFCURVE",
"99 301 CURVE SMOOTH",
"140 513 LINE SMOOTH",
"148 556 OFFCURVE",
"155 587 OFFCURVE",
"151 607 CURVE SMOOTH",
"149 620 OFFCURVE",
"107 624 OFFCURVE",
"95 625 CURVE",
"92 632 OFFCURVE",
"97 656 OFFCURVE",
"102 662 CURVE",
"137 658 OFFCURVE",
"195 655 OFFCURVE",
"234 655 CURVE SMOOTH",
"273 655 OFFCURVE",
"329 658 OFFCURVE",
"366 662 CURVE",
"369 656 OFFCURVE",
"365 632 OFFCURVE",
"359 625 CURVE",
"347 624 OFFCURVE",
"303 620 OFFCURVE",
"296 607 CURVE SMOOTH",
"285 587 OFFCURVE",
"278 556 OFFCURVE",
"270 513 CURVE SMOOTH",
"235 330 LINE SMOOTH",
"222 262 OFFCURVE",
"214 212 OFFCURVE",
"225 159 CURVE SMOOTH",
"243 71 OFFCURVE",
"312 63 OFFCURVE",
"348 63 CURVE SMOOTH",
"422 63 OFFCURVE",
"512 134 OFFCURVE",
"546 309 CURVE SMOOTH",
"579 479 LINE SMOOTH",
"587 522 OFFCURVE",
"594 581 OFFCURVE",
"590 601 CURVE SMOOTH",
"586 620 OFFCURVE",
"537 624 OFFCURVE",
"525 625 CURVE",
"522 632 OFFCURVE",
"527 656 OFFCURVE",
"532 662 CURVE",
"575 658 OFFCURVE",
"604 655 OFFCURVE",
"647 655 CURVE SMOOTH",
"688 655 OFFCURVE",
"718 660 OFFCURVE",
"757 662 CURVE",
"760 656 OFFCURVE",
"756 632 OFFCURVE",
"750 625 CURVE",
"738 624 OFFCURVE",
"686 622 OFFCURVE",
"674 601 CURVE SMOOTH",
"663 581 OFFCURVE",
"645 523 OFFCURVE",
"637 480 CURVE SMOOTH",
"599 286 LINE SMOOTH",
"574 161 OFFCURVE",
"513 78 OFFCURVE",
"438 33 CURVE SMOOTH",
"389 3 OFFCURVE",
"314 -70 OFFCURVE"
);
}
);
width = 692;
}
);
unicode = 0172;
userData = {
com.fontlab.hintData = {
hhints = (
{
position = -218;
width = 62;
},
{
position = -9;
width = 72;
},
{
position = 625;
width = 37;
}
);
vhints = (
{
position = 253;
width = 61;
}
);
};
};
},
{
glyphname = V;
lastChange = "2017-07-12 19:24:34 +0000";
layers = (
{
layerId = "DEDDD934-E4FE-4A27-B966-8C21F8A9BC34";
paths = (
{
closed = 1;
nodes = (
"197 655 CURVE SMOOTH",
"236 655 OFFCURVE",
"293 658 OFFCURVE",
"330 662 CURVE",
"333 656 OFFCURVE",
"328 632 OFFCURVE",
"322 625 CURVE",
"310 624 OFFCURVE",
"265 623 OFFCURVE",
"260 598 CURVE SMOOTH",
"257 582 OFFCURVE",
"262 551 OFFCURVE",
"268 523 CURVE SMOOTH",
"296 390 OFFCURVE",
"341 186 OFFCURVE",
"341 186 CURVE",
"341 186 OFFCURVE",
"514 493 OFFCURVE",
"529 521 CURVE SMOOTH",
"542 547 OFFCURVE",
"561 580 OFFCURVE",
"565 601 CURVE SMOOTH",
"568 619 OFFCURVE",
"507 624 OFFCURVE",
"495 625 CURVE",
"492 632 OFFCURVE",
"498 656 OFFCURVE",
"503 662 CURVE",
"546 658 OFFCURVE",
"569 655 OFFCURVE",
"612 655 CURVE SMOOTH",
"653 655 OFFCURVE",
"678 660 OFFCURVE",
"717 662 CURVE",
"720 656 OFFCURVE",
"716 632 OFFCURVE",
"710 625 CURVE",
"698 624 OFFCURVE",
"656 623 OFFCURVE",
"642 607 CURVE SMOOTH",
"624 587 OFFCURVE",
"606 557 OFFCURVE",
"587 524 CURVE SMOOTH",
"472 323 OFFCURVE",
"407 215 OFFCURVE",
"299 30 CURVE SMOOTH",
"288 12 OFFCURVE",
"257 -11 OFFCURVE",
"246 -11 CURVE SMOOTH",
"238 -11 OFFCURVE",
"239 -4 OFFCURVE",
"236 3 CURVE",
"132 510 LINE SMOOTH",
"126 539 OFFCURVE",
"119 572 OFFCURVE",
"115 592 CURVE SMOOTH",
"109 618 OFFCURVE",
"70 624 OFFCURVE",
"58 625 CURVE",
"55 632 OFFCURVE",
"61 656 OFFCURVE",
"66 662 CURVE",
"101 658 OFFCURVE",
"158 655 OFFCURVE"
);
}
);
width = 627;
}
);
unicode = 0056;
userData = {
com.fontlab.hintData = {
hhints = (
{
position = -11;
width = 21;
},
{
position = 625;
width = 37;
}
);
};
};
},
{
glyphname = W;
lastChange = "2017-07-12 19:24:34 +0000";
layers = (
{
layerId = "DEDDD934-E4FE-4A27-B966-8C21F8A9BC34";
paths = (
{
closed = 1;
nodes = (
"199 655 CURVE SMOOTH",
"238 655 OFFCURVE",
"294 658 OFFCURVE",
"331 662 CURVE",
"334 656 OFFCURVE",
"330 632 OFFCURVE",
"324 625 CURVE",
"312 624 OFFCURVE",
"264 620 OFFCURVE",
"264 586 CURVE SMOOTH",
"264 581 OFFCURVE",
"266 552 OFFCURVE",
"270 523 CURVE SMOOTH",
"287 401 OFFCURVE",
"308 251 OFFCURVE",
"308 251 CURVE",
"308 251 OFFCURVE",
"469 560 OFFCURVE",
"504 625 CURVE SMOOTH",
"514 644 OFFCURVE",
"530 662 OFFCURVE",
"540 662 CURVE SMOOTH",
"544 662 OFFCURVE",
"546 657 OFFCURVE",
"548 646 CURVE SMOOTH",
"577 478 OFFCURVE",
"623 214 OFFCURVE",
"623 214 CURVE",
"623 214 OFFCURVE",
"758 489 OFFCURVE",
"774 521 CURVE SMOOTH",
"786 547 OFFCURVE",
"804 580 OFFCURVE",
"808 601 CURVE SMOOTH",
"811 619 OFFCURVE",
"752 624 OFFCURVE",
"740 625 CURVE",
"737 632 OFFCURVE",
"743 656 OFFCURVE",
"748 662 CURVE",
"791 658 OFFCURVE",
"814 655 OFFCURVE",
"857 655 CURVE SMOOTH",
"898 655 OFFCURVE",
"924 660 OFFCURVE",
"963 662 CURVE",
"966 656 OFFCURVE",
"961 632 OFFCURVE",
"955 625 CURVE",
"943 624 OFFCURVE",
"901 623 OFFCURVE",
"887 607 CURVE SMOOTH",
"869 587 OFFCURVE",
"849 559 OFFCURVE",
"832 524 CURVE SMOOTH",
"738 335 OFFCURVE",
"681 225 OFFCURVE",
"586 40 CURVE SMOOTH",
"573 15 OFFCURVE",
"550 -11 OFFCURVE",
"539 -11 CURVE SMOOTH",
"531 -11 OFFCURVE",
"527 -4 OFFCURVE",
"524 3 CURVE",
"451 418 LINE",
"451 418 OFFCURVE",
"334 188 OFFCURVE",
"260 44 CURVE SMOOTH",
"254 33 OFFCURVE",
"228 -11 OFFCURVE",
"217 -11 CURVE SMOOTH",
"209 -11 OFFCURVE",
"205 -4 OFFCURVE",
"202 3 CURVE",
"133 510 LINE SMOOTH",
"130 540 OFFCURVE",
"128 549 OFFCURVE",
"122 590 CURVE SMOOTH",
"118 616 OFFCURVE",
"72 624 OFFCURVE",
"60 625 CURVE",
"56 632 OFFCURVE",
"62 656 OFFCURVE",
"67 662 CURVE",
"102 658 OFFCURVE",
"160 655 OFFCURVE"
);
}
);
width = 877;
}
);
unicode = 0057;
userData = {
com.fontlab.hintData = {
hhints = (
{
position = -11;
width = 21;
},
{
position = 625;
width = 37;
}
);
};
};
},
{
glyphname = X;
lastChange = "2017-07-12 19:24:34 +0000";
layers = (
{
layerId = "DEDDD934-E4FE-4A27-B966-8C21F8A9BC34";
paths = (
{
closed = 1;
nodes = (
"239 656 CURVE SMOOTH",
"285 656 OFFCURVE",
"336 660 OFFCURVE",
"374 662 CURVE",
"375 656 OFFCURVE",
"370 625 OFFCURVE",
"365 625 CURVE",
"352 625 OFFCURVE",
"316 619 OFFCURVE",
"312 604 CURVE SMOOTH",
"311 598 OFFCURVE",
"312 588 OFFCURVE",
"315 582 CURVE SMOOTH",
"386 414 LINE",
"438 471 OFFCURVE",
"520 551 OFFCURVE",
"540 584 CURVE SMOOTH",
"543 588 OFFCURVE",
"544 591 OFFCURVE",
"544 594 CURVE SMOOTH",
"547 611 OFFCURVE",
"514 625 OFFCURVE",
"482 625 CURVE",
"477 625 OFFCURVE",
"482 657 OFFCURVE",
"488 662 CURVE",
"520 658 OFFCURVE",
"576 655 OFFCURVE",
"610 655 CURVE SMOOTH",
"658 655 OFFCURVE",
"695 658 OFFCURVE",
"723 662 CURVE",
"725 656 OFFCURVE",
"720 625 OFFCURVE",
"715 625 CURVE",
"708 625 OFFCURVE",
"651 623 OFFCURVE",
"601 572 CURVE SMOOTH",
"402 369 LINE",
"455 242 OFFCURVE",
"521 93 OFFCURVE",
"532 76 CURVE SMOOTH",
"552 41 OFFCURVE",
"603 33 OFFCURVE",
"616 33 CURVE",
"618 24 OFFCURVE",
"615 4 OFFCURVE",
"609 -4 CURVE",
"572 -2 OFFCURVE",
"499 2 OFFCURVE",
"461 2 CURVE SMOOTH",
"409 2 OFFCURVE",
"365 -2 OFFCURVE",
"313 -4 CURVE",
"309 1 OFFCURVE",
"317 33 OFFCURVE",
"322 33 CURVE SMOOTH",
"332 33 OFFCURVE",
"377 43 OFFCURVE",
"380 61 CURVE SMOOTH",
"381 64 OFFCURVE",
"380 69 OFFCURVE",
"379 72 CURVE SMOOTH",
"294 273 LINE",
"276 253 OFFCURVE",
"164 130 OFFCURVE",
"129 83 CURVE SMOOTH",
"123 75 OFFCURVE",
"119 69 OFFCURVE",
"118 66 CURVE SMOOTH",
"113 42 OFFCURVE",
"161 33 OFFCURVE",
"189 33 CURVE",
"192 26 OFFCURVE",
"190 7 OFFCURVE",
"185 -4 CURVE",
"155 -2 OFFCURVE",
"97 2 OFFCURVE",
"63 2 CURVE SMOOTH",
"15 2 OFFCURVE",
"-19 -2 OFFCURVE",
"-57 -4 CURVE",
"-60 2 OFFCURVE",
"-56 26 OFFCURVE",
"-50 33 CURVE",
"-43 33 OFFCURVE",
"22 35 OFFCURVE",
"60 79 CURVE SMOOTH",
"273 322 LINE",
"185 537 LINE SMOOTH",
"174 564 OFFCURVE",
"160 600 OFFCURVE",
"149 610 CURVE SMOOTH",
"138 620 OFFCURVE",
"99 625 OFFCURVE",
"88 625 CURVE",
"83 625 OFFCURVE",
"89 657 OFFCURVE",
"95 662 CURVE",
"140 660 OFFCURVE",
"193 656 OFFCURVE"
);
}
);
width = 659;
}
);
unicode = 0058;
userData = {
com.fontlab.hintData = {
hhints = (
{
position = -4;
width = 37;
},
{
position = 625;
width = 37;
}
);
};
};
},
{
glyphname = Y;
lastChange = "2017-07-12 19:24:34 +0000";
layers = (
{
layerId = "DEDDD934-E4FE-4A27-B966-8C21F8A9BC34";
paths = (
{
closed = 1;
nodes = (
"191 145 CURVE SMOOTH",
"218 284 LINE SMOOTH",
"219 291 OFFCURVE",
"218 296 OFFCURVE",
"216 304 CURVE SMOOTH",
"203 359 OFFCURVE",
"145 537 OFFCURVE",
"145 537 CURVE SMOOTH",
"136 565 OFFCURVE",
"134 572 OFFCURVE",
"127 592 CURVE SMOOTH",
"118 617 OFFCURVE",
"82 624 OFFCURVE",
"70 625 CURVE",
"67 632 OFFCURVE",
"72 656 OFFCURVE",
"77 662 CURVE",
"112 658 OFFCURVE",
"170 655 OFFCURVE",
"209 655 CURVE SMOOTH",
"248 655 OFFCURVE",
"304 658 OFFCURVE",
"341 662 CURVE",
"344 656 OFFCURVE",
"340 632 OFFCURVE",
"334 625 CURVE",
"322 624 OFFCURVE",
"277 623 OFFCURVE",
"272 598 CURVE SMOOTH",
"271 594 OFFCURVE",
"274 589 OFFCURVE",
"276 582 CURVE SMOOTH",
"344 361 LINE",
"348 356 OFFCURVE",
"448 498 OFFCURVE",
"504 578 CURVE SMOOTH",
"509 586 OFFCURVE",
"512 594 OFFCURVE",
"513 601 CURVE SMOOTH",
"516 619 OFFCURVE",
"461 624 OFFCURVE",
"449 625 CURVE",
"446 632 OFFCURVE",
"451 656 OFFCURVE",
"456 662 CURVE",
"499 658 OFFCURVE",
"516 655 OFFCURVE",
"559 655 CURVE SMOOTH",
"600 655 OFFCURVE",
"626 660 OFFCURVE",
"665 662 CURVE",
"668 656 OFFCURVE",
"664 632 OFFCURVE",
"658 625 CURVE",
"646 624 OFFCURVE",
"602 623 OFFCURVE",
"584 600 CURVE SMOOTH",
"560 571 OFFCURVE",
"394 357 OFFCURVE",
"356 298 CURVE SMOOTH",
"351 291 OFFCURVE",
"348 285 OFFCURVE",
"347 279 CURVE SMOOTH",
"321 145 LINE SMOOTH",
"312 102 OFFCURVE",
"306 71 OFFCURVE",
"310 51 CURVE SMOOTH",
"312 38 OFFCURVE",
"354 34 OFFCURVE",
"366 33 CURVE",
"369 26 OFFCURVE",
"364 2 OFFCURVE",
"359 -4 CURVE",
"324 0 OFFCURVE",
"266 3 OFFCURVE",
"227 3 CURVE SMOOTH",
"188 3 OFFCURVE",
"132 0 OFFCURVE",
"95 -4 CURVE",
"92 2 OFFCURVE",
"96 26 OFFCURVE",
"102 33 CURVE",
"114 34 OFFCURVE",
"158 38 OFFCURVE",
"165 51 CURVE SMOOTH",
"176 71 OFFCURVE",
"182 102 OFFCURVE"
);
}
);
width = 576;
}
);
unicode = 0059;
userData = {
com.fontlab.hintData = {
hhints = (
{
position = -4;
width = 37;
},
{
position = 625;
width = 37;
}
);
};
};
},
{
glyphname = Z;
lastChange = "2017-07-12 19:24:34 +0000";
layers = (
{
layerId = "DEDDD934-E4FE-4A27-B966-8C21F8A9BC34";
paths = (
{
closed = 1;
nodes = (
"291 610 LINE SMOOTH",
"192 610 OFFCURVE",
"163 536 OFFCURVE",
"130 474 CURVE SMOOTH",
"128 471 OFFCURVE",
"126 468 OFFCURVE",
"117 468 CURVE SMOOTH",
"107 468 OFFCURVE",
"93 470 OFFCURVE",
"91 473 CURVE",
"113 531 OFFCURVE",
"139 598 OFFCURVE",
"161 662 CURVE",
"175 658 OFFCURVE",
"269 655 OFFCURVE",
"282 655 CURVE SMOOTH",
"412 656 LINE SMOOTH",
"490 657 OFFCURVE",
"551 660 OFFCURVE",
"630 666 CURVE",
"634 665 OFFCURVE",
"635 643 OFFCURVE",
"633 633 CURVE",
"630 625 OFFCURVE",
"157 47 OFFCURVE",
"157 47 CURVE",
"358 47 LINE SMOOTH",
"393 47 OFFCURVE",
"427 59 OFFCURVE",
"453 82 CURVE SMOOTH",
"477 103 OFFCURVE",
"494 125 OFFCURVE",
"519 170 CURVE SMOOTH",
"521 174 OFFCURVE",
"526 176 OFFCURVE",
"533 176 CURVE SMOOTH",
"542 176 OFFCURVE",
"558 173 OFFCURVE",
"560 170 CURVE",
"535 117 OFFCURVE",
"494 44 OFFCURVE",
"477 1 CURVE",
"438 1 OFFCURVE",
"-1 0 OFFCURVE",
"-1 0 CURVE",
"-13 0 OFFCURVE",
"-25 18 OFFCURVE",
"-21 22 CURVE SMOOTH",
"462 610 LINE"
);
}
);
width = 608;
}
);
unicode = 005A;
userData = {
com.fontlab.hintData = {
hhints = (
{
position = 1;
width = 46;
},
{
position = 610;
width = 45;
},
{
position = 642;
width = 20;
}
);
};
};
},
{
glyphname = a;
lastChange = "2017-07-12 19:24:34 +0000";
layers = (
{
layerId = "DEDDD934-E4FE-4A27-B966-8C21F8A9BC34";
paths = (
{
closed = 1;
nodes = (
"318 449 CURVE SMOOTH",
"354 449 OFFCURVE",
"405 438 OFFCURVE",
"425 431 CURVE",
"363 132 LINE SMOOTH",
"362 128 OFFCURVE",
"359 104 OFFCURVE",
"359 99 CURVE SMOOTH",
"359 90 OFFCURVE",
"363 78 OFFCURVE",
"373 78 CURVE SMOOTH",
"395 78 OFFCURVE",
"441 133 OFFCURVE",
"444 139 CURVE",
"451 139 OFFCURVE",
"458 118 OFFCURVE",
"458 112 CURVE",
"441 80 OFFCURVE",
"353 -8 OFFCURVE",
"299 -8 CURVE SMOOTH",
"264 -8 OFFCURVE",
"237 14 OFFCURVE",
"237 58 CURVE SMOOTH",
"237 62 OFFCURVE",
"238 70 OFFCURVE",
"239 77 CURVE SMOOTH",
"240 85 OFFCURVE",
"242 92 OFFCURVE",
"243 96 CURVE",
"222 59 OFFCURVE",
"157 -7 OFFCURVE",
"97 -7 CURVE SMOOTH",
"41 -7 OFFCURVE",
"11 47 OFFCURVE",
"11 115 CURVE SMOOTH",
"11 294 OFFCURVE",
"191 449 OFFCURVE"
);
},
{
closed = 1;
nodes = (
"262 394 CURVE SMOOTH",
"194 394 OFFCURVE",
"137 270 OFFCURVE",
"137 152 CURVE SMOOTH",
"137 104 OFFCURVE",
"151 81 OFFCURVE",
"173 81 CURVE SMOOTH",
"207 81 OFFCURVE",
"257 182 OFFCURVE",
"277 281 CURVE SMOOTH",
"297 382 LINE",
"290 390 OFFCURVE",
"276 394 OFFCURVE"
);
}
);
width = 489;
}
);
unicode = 0061;
userData = {
com.fontlab.hintData = {
hhints = (
{
position = -8;
width = 86;
},
{
position = 394;
width = 55;
}
);
vhints = (
{
position = 11;
width = 126;
}
);
};
};
},
{
glyphname = aogonek;
lastChange = "2017-07-12 19:24:34 +0000";
layers = (
{
layerId = "DEDDD934-E4FE-4A27-B966-8C21F8A9BC34";
paths = (
{
closed = 1;
nodes = (
"262 394 CURVE SMOOTH",
"194 394 OFFCURVE",
"137 270 OFFCURVE",
"137 152 CURVE SMOOTH",
"137 104 OFFCURVE",
"151 81 OFFCURVE",
"173 81 CURVE SMOOTH",
"207 81 OFFCURVE",
"257 182 OFFCURVE",
"277 281 CURVE SMOOTH",
"297 382 LINE",
"290 390 OFFCURVE",
"276 394 OFFCURVE"
);
},
{
closed = 1;
nodes = (
"458 112 CURVE",
"449 95 OFFCURVE",
"419 62 OFFCURVE",
"385 34 CURVE SMOOTH",
"324 -16 OFFCURVE",
"256 -67 OFFCURVE",
"256 -122 CURVE SMOOTH",
"256 -146 OFFCURVE",
"267 -156 OFFCURVE",
"292 -156 CURVE SMOOTH",
"334 -156 OFFCURVE",
"359 -125 OFFCURVE",
"366 -120 CURVE",
"373 -122 OFFCURVE",
"371 -142 OFFCURVE",
"369 -146 CURVE SMOOTH",
"346 -185 OFFCURVE",
"297 -218 OFFCURVE",
"255 -218 CURVE SMOOTH",
"216 -218 OFFCURVE",
"195 -187 OFFCURVE",
"195 -160 CURVE SMOOTH",
"195 -96 OFFCURVE",
"246 -52 OFFCURVE",
"288 -7 CURVE",
"258 -3 OFFCURVE",
"237 18 OFFCURVE",
"237 58 CURVE SMOOTH",
"237 62 OFFCURVE",
"238 70 OFFCURVE",
"239 77 CURVE SMOOTH",
"240 85 OFFCURVE",
"242 92 OFFCURVE",
"243 96 CURVE",
"222 59 OFFCURVE",
"157 -7 OFFCURVE",
"97 -7 CURVE SMOOTH",
"41 -7 OFFCURVE",
"11 47 OFFCURVE",
"11 115 CURVE SMOOTH",
"11 294 OFFCURVE",
"191 449 OFFCURVE",
"318 449 CURVE SMOOTH",
"354 449 OFFCURVE",
"405 438 OFFCURVE",
"425 431 CURVE",
"363 132 LINE SMOOTH",
"362 128 OFFCURVE",
"359 104 OFFCURVE",
"359 99 CURVE SMOOTH",
"359 90 OFFCURVE",
"363 78 OFFCURVE",
"373 78 CURVE SMOOTH",
"395 78 OFFCURVE",
"441 133 OFFCURVE",
"444 139 CURVE",
"451 139 OFFCURVE",
"458 118 OFFCURVE"
);
}
);
width = 489;
}
);
unicode = 0105;
userData = {
com.fontlab.hintData = {
hhints = (
{
position = -218;
width = 62;
},
{
position = -7;
width = 88;
},
{
position = 394;
width = 55;
}
);
vhints = (
{
position = 11;
width = 126;
},
{
position = 195;
width = 61;
}
);
};
};
},
{
glyphname = ae;
lastChange = "2017-07-12 19:24:34 +0000";
layers = (
{
layerId = "DEDDD934-E4FE-4A27-B966-8C21F8A9BC34";
paths = (
{
closed = 1;
nodes = (
"449 412 CURVE SMOOTH",
"401 412 OFFCURVE",
"365 277 OFFCURVE",
"360 226 CURVE",
"399 226 OFFCURVE",
"475 299 OFFCURVE",
"475 373 CURVE SMOOTH",
"475 391 OFFCURVE",
"471 412 OFFCURVE"
);
},
{
closed = 1;
nodes = (
"236 91 CURVE",
"233 106 OFFCURVE",
"234 186 OFFCURVE",
"240 209 CURVE",
"219 205 OFFCURVE",
"177 189 OFFCURVE",
"167 182 CURVE SMOOTH",
"152 172 OFFCURVE",
"131 146 OFFCURVE",
"128 124 CURVE",
"120 81 OFFCURVE",
"146 62 OFFCURVE",
"168 62 CURVE SMOOTH",
"188 62 OFFCURVE",
"226 83 OFFCURVE"
);
},
{
closed = 1;
nodes = (
"259 449 CURVE SMOOTH",
"302 449 OFFCURVE",
"336 427 OFFCURVE",
"354 391 CURVE",
"395 427 OFFCURVE",
"440 449 OFFCURVE",
"483 449 CURVE SMOOTH",
"534 449 OFFCURVE",
"594 427 OFFCURVE",
"594 357 CURVE SMOOTH",
"594 254 OFFCURVE",
"419 188 OFFCURVE",
"357 188 CURVE",
"356 185 OFFCURVE",
"355 168 OFFCURVE",
"355 163 CURVE SMOOTH",
"355 126 OFFCURVE",
"366 77 OFFCURVE",
"416 77 CURVE SMOOTH",
"461 77 OFFCURVE",
"514 139 OFFCURVE",
"517 142 CURVE",
"526 142 OFFCURVE",
"532 118 OFFCURVE",
"532 112 CURVE",
"519 90 OFFCURVE",
"409 -6 OFFCURVE",
"346 -6 CURVE SMOOTH",
"300 -6 OFFCURVE",
"266 16 OFFCURVE",
"247 57 CURVE",
"232 46 OFFCURVE",
"126 -8 OFFCURVE",
"96 -8 CURVE SMOOTH",
"30 -8 OFFCURVE",
"-5 55 OFFCURVE",
"6 114 CURVE SMOOTH",
"14 153 OFFCURVE",
"43 186 OFFCURVE",
"67 194 CURVE SMOOTH",
"103 206 OFFCURVE",
"173 228 OFFCURVE",
"239 249 CURVE SMOOTH",
"244 251 OFFCURVE",
"245 254 OFFCURVE",
"246 263 CURVE SMOOTH",
"249 311 LINE SMOOTH",
"250 319 OFFCURVE",
"250 328 OFFCURVE",
"250 336 CURVE SMOOTH",
"250 376 OFFCURVE",
"243 411 OFFCURVE",
"217 411 CURVE SMOOTH",
"184 411 OFFCURVE",
"168 372 OFFCURVE",
"150 327 CURVE SMOOTH",
"141 304 OFFCURVE",
"124 283 OFFCURVE",
"94 283 CURVE SMOOTH",
"71 283 OFFCURVE",
"51 303 OFFCURVE",
"56 331 CURVE SMOOTH",
"59 344 OFFCURVE",
"67 358 OFFCURVE",
"77 372 CURVE",
"91 385 OFFCURVE",
"182 449 OFFCURVE"
);
}
);
width = 607;
}
);
unicode = 00E6;
userData = {
com.fontlab.hintData = {
hhints = (
{
position = -8;
width = 70;
},
{
position = -6;
width = 83;
},
{
position = 188;
width = 38;
},
{
position = 411;
width = 38;
}
);
vhints = (
{
position = 236;
width = 119;
},
{
position = 475;
width = 119;
}
);
};
};
},
{
glyphname = b;
lastChange = "2017-07-12 19:24:34 +0000";
layers = (
{
layerId = "DEDDD934-E4FE-4A27-B966-8C21F8A9BC34";
paths = (
{
closed = 1;
nodes = (
"280 361 CURVE SMOOTH",
"235 361 OFFCURVE",
"175 255 OFFCURVE",
"158 167 CURVE SMOOTH",
"147 111 OFFCURVE",
"147 39 OFFCURVE",
"183 39 CURVE SMOOTH",
"247 39 OFFCURVE",
"308 206 OFFCURVE",
"308 302 CURVE SMOOTH",
"308 327 OFFCURVE",
"304 361 OFFCURVE"
);
},
{
closed = 1;
nodes = (
"190 336 LINE",
"218 379 OFFCURVE",
"298 449 OFFCURVE",
"346 449 CURVE SMOOTH",
"402 449 OFFCURVE",
"437 410 OFFCURVE",
"437 337 CURVE SMOOTH",
"437 149 OFFCURVE",
"265 -6 OFFCURVE",
"151 -6 CURVE SMOOTH",
"88 -6 OFFCURVE",
"35 38 OFFCURVE",
"35 107 CURVE SMOOTH",
"35 120 OFFCURVE",
"38 148 OFFCURVE",
"41 162 CURVE SMOOTH",
"119 560 LINE SMOOTH",
"123 578 OFFCURVE",
"128 602 OFFCURVE",
"128 613 CURVE SMOOTH",
"128 632 OFFCURVE",
"83 632 OFFCURVE",
"67 632 CURVE",
"64 636 OFFCURVE",
"67 657 OFFCURVE",
"71 661 CURVE",
"126 666 OFFCURVE",
"229 688 OFFCURVE",
"251 696 CURVE",
"256 693 OFFCURVE",
"257 683 OFFCURVE",
"257 677 CURVE SMOOTH",
"257 669 OFFCURVE",
"249 626 OFFCURVE",
"244 602 CURVE SMOOTH"
);
}
);
width = 465;
}
);
unicode = 0062;
userData = {
com.fontlab.hintData = {
hhints = (
{
position = -6;
width = 45;
},
{
position = 361;
width = 88;
},
{
position = 632;
width = 29;
},
{
position = 676;
width = 20;
}
);
vhints = (
{
position = 128;
width = 129;
},
{
position = 308;
width = 129;
}
);
};
};
},
{
glyphname = c;
lastChange = "2017-07-12 19:24:34 +0000";
layers = (
{
layerId = "DEDDD934-E4FE-4A27-B966-8C21F8A9BC34";
paths = (
{
closed = 1;
nodes = (
"266 449 CURVE SMOOTH",
"306 449 OFFCURVE",
"341 437 OFFCURVE",
"354 427 CURVE",
"360 418 OFFCURVE",
"369 400 OFFCURVE",
"369 377 CURVE SMOOTH",
"369 347 OFFCURVE",
"343 316 OFFCURVE",
"313 316 CURVE SMOOTH",
"288 316 OFFCURVE",
"272 334 OFFCURVE",
"262 353 CURVE SMOOTH",
"253 370 OFFCURVE",
"240 399 OFFCURVE",
"218 399 CURVE SMOOTH",
"181 399 OFFCURVE",
"141 275 OFFCURVE",
"141 170 CURVE SMOOTH",
"141 102 OFFCURVE",
"163 77 OFFCURVE",
"203 77 CURVE SMOOTH",
"248 77 OFFCURVE",
"300 137 OFFCURVE",
"303 140 CURVE",
"311 140 OFFCURVE",
"316 120 OFFCURVE",
"316 114 CURVE",
"301 91 OFFCURVE",
"211 -6 OFFCURVE",
"135 -6 CURVE SMOOTH",
"76 -6 OFFCURVE",
"15 37 OFFCURVE",
"15 131 CURVE SMOOTH",
"15 287 OFFCURVE",
"146 449 OFFCURVE"
);
}
);
width = 377;
}
);
unicode = 0063;
userData = {
com.fontlab.hintData = {
hhints = (
{
position = -6;
width = 83;
},
{
position = 399;
width = 50;
}
);
vhints = (
{
position = 15;
width = 126;
}
);
};
};
},
{
glyphname = d;
lastChange = "2017-07-12 19:24:34 +0000";
layers = (
{
layerId = "DEDDD934-E4FE-4A27-B966-8C21F8A9BC34";
paths = (
{
closed = 1;
nodes = (
"287 353 CURVE SMOOTH",
"287 383 OFFCURVE",
"278 394 OFFCURVE",
"261 394 CURVE SMOOTH",
"193 394 OFFCURVE",
"136 270 OFFCURVE",
"136 152 CURVE SMOOTH",
"136 104 OFFCURVE",
"150 81 OFFCURVE",
"172 81 CURVE SMOOTH",
"206 81 OFFCURVE",
"264 201 OFFCURVE",
"276 281 CURVE SMOOTH",
"276 281 OFFCURVE",
"287 340 OFFCURVE"
);
},
{
closed = 1;
nodes = (
"332 560 LINE SMOOTH",
"335 578 OFFCURVE",
"341 602 OFFCURVE",
"341 613 CURVE SMOOTH",
"341 632 OFFCURVE",
"296 632 OFFCURVE",
"280 632 CURVE",
"277 636 OFFCURVE",
"280 657 OFFCURVE",
"284 661 CURVE",
"339 666 OFFCURVE",
"442 688 OFFCURVE",
"464 696 CURVE",
"469 693 OFFCURVE",
"470 683 OFFCURVE",
"470 677 CURVE SMOOTH",
"470 669 OFFCURVE",
"462 626 OFFCURVE",
"457 602 CURVE SMOOTH",
"362 132 LINE SMOOTH",
"361 128 OFFCURVE",
"358 104 OFFCURVE",
"358 99 CURVE SMOOTH",
"358 90 OFFCURVE",
"362 78 OFFCURVE",
"372 78 CURVE SMOOTH",
"394 78 OFFCURVE",
"440 133 OFFCURVE",
"443 139 CURVE",
"450 139 OFFCURVE",
"457 118 OFFCURVE",
"457 112 CURVE",
"440 80 OFFCURVE",
"352 -8 OFFCURVE",
"298 -8 CURVE SMOOTH",
"276 -8 OFFCURVE",
"259 0 OFFCURVE",
"248 16 CURVE SMOOTH",
"242 25 OFFCURVE",
"236 36 OFFCURVE",
"236 58 CURVE SMOOTH",
"236 66 OFFCURVE",
"240 88 OFFCURVE",
"242 96 CURVE",
"221 59 OFFCURVE",
"156 -7 OFFCURVE",
"96 -7 CURVE SMOOTH",
"40 -7 OFFCURVE",
"10 47 OFFCURVE",
"10 115 CURVE SMOOTH",
"10 282 OFFCURVE",
"169 429 OFFCURVE",
"293 448 CURVE SMOOTH",
"299 449 OFFCURVE",
"304 449 OFFCURVE",
"310 449 CURVE"
);
}
);
width = 487;
}
);
unicode = 0064;
userData = {
com.fontlab.hintData = {
hhints = (
{
position = -7;
width = 88;
},
{
position = 394;
width = 55;
},
{
position = 632;
width = 29;
},
{
position = 676;
width = 20;
}
);
vhints = (
{
position = 10;
width = 126;
},
{
position = 341;
width = 129;
}
);
};
};
},
{
glyphname = eth;
lastChange = "2017-07-12 19:24:34 +0000";
layers = (
{
layerId = "DEDDD934-E4FE-4A27-B966-8C21F8A9BC34";
paths = (
{
closed = 1;
nodes = (
"285 217 CURVE SMOOTH",
"296 272 OFFCURVE",
"308 355 OFFCURVE",
"305 369 CURVE SMOOTH",
"297 405 OFFCURVE",
"274 409 OFFCURVE",
"260 409 CURVE SMOOTH",
"200 409 OFFCURVE",
"164 304 OFFCURVE",
"148 210 CURVE SMOOTH",
"131 112 OFFCURVE",
"137 34 OFFCURVE",
"173 34 CURVE SMOOTH",
"223 34 OFFCURVE",
"266 119 OFFCURVE"
);
},
{
closed = 1;
nodes = (
"145 674 CURVE",
"146 681 OFFCURVE",
"151 695 OFFCURVE",
"158 695 CURVE SMOOTH",
"202.609 682.573 OFFCURVE",
"249.96 659.181 OFFCURVE",
"292.223 625.114 CURVE",
"414 705 LINE",
"418 699 OFFCURVE",
"429 679 OFFCURVE",
"424 674 CURVE SMOOTH",
"316.781 603.518 LINE",
"394.219 529.235 OFFCURVE",
"446.663 415.021 OFFCURVE",
"417 263 CURVE SMOOTH",
"388 115 OFFCURVE",
"249 -7 OFFCURVE",
"159 -7 CURVE SMOOTH",
"37 -7 OFFCURVE",
"1 94 OFFCURVE",
"22 204 CURVE SMOOTH",
"43 312 OFFCURVE",
"165 449 OFFCURVE",
"271 449 CURVE SMOOTH",
"289 449 OFFCURVE",
"305 447 OFFCURVE",
"312 446 CURVE",
"312 481.766 OFFCURVE",
"304.679 526.851 OFFCURVE",
"270.647 573.19 CURVE",
"173 509 LINE",
"169 516 OFFCURVE",
"159 536 OFFCURVE",
"164 541 CURVE SMOOTH",
"250.238 597.572 LINE",
"225.678 623.565 OFFCURVE",
"191.725 649.509 OFFCURVE"
);
}
);
width = 463;
}
);
unicode = 00F0;
userData = {
com.fontlab.hintData = {
hhints = (
{
position = -7;
width = 41;
},
{
position = 409;
width = 40;
},
{
position = 674;
width = 21;
}
);
};
};
},
{
glyphname = dcroat;
lastChange = "2017-07-12 19:24:34 +0000";
layers = (
{
components = (
{
name = d;
}
);
layerId = "DEDDD934-E4FE-4A27-B966-8C21F8A9BC34";
paths = (
{
closed = 1;
nodes = (
"204 556 CURVE",
"232 556 OFFCURVE",
"496 556 OFFCURVE",
"509 556 CURVE SMOOTH",
"513 556 OFFCURVE",
"515 552 OFFCURVE",
"514 548 CURVE SMOOTH",
"513 543 OFFCURVE",
"508 524 OFFCURVE",
"503 517 CURVE",
"475 517 OFFCURVE",
"210 517 OFFCURVE",
"197 517 CURVE SMOOTH",
"193 517 OFFCURVE",
"193 524 OFFCURVE",
"194 528 CURVE SMOOTH",
"195 533 OFFCURVE",
"197 549 OFFCURVE"
);
}
);
width = 480;
}
);
unicode = 0111;
userData = {
com.fontlab.hintData = {
hhints = (
{
position = -7;
width = 88;
},
{
position = 394;
width = 55;
},
{
position = 517;
width = 39;
},
{
position = 632;
width = 29;
},
{
position = 676;
width = 20;
}
);
vhints = (
{
position = 10;
width = 126;
},
{
position = 341;
width = 129;
}
);
};
};
},
{
glyphname = e;
lastChange = "2017-07-12 19:24:34 +0000";
layers = (
{
layerId = "DEDDD934-E4FE-4A27-B966-8C21F8A9BC34";
paths = (
{
closed = 1;
nodes = (
"268 449 CURVE SMOOTH",
"319 449 OFFCURVE",
"379 427 OFFCURVE",
"379 357 CURVE SMOOTH",
"379 254 OFFCURVE",
"204 188 OFFCURVE",
"142 188 CURVE",
"141 185 OFFCURVE",
"140 168 OFFCURVE",
"140 163 CURVE SMOOTH",
"140 126 OFFCURVE",
"151 77 OFFCURVE",
"201 77 CURVE SMOOTH",
"246 77 OFFCURVE",
"299 139 OFFCURVE",
"302 142 CURVE",
"311 142 OFFCURVE",
"317 118 OFFCURVE",
"317 112 CURVE",
"304 90 OFFCURVE",
"194 -6 OFFCURVE",
"131 -6 CURVE SMOOTH",
"60 -6 OFFCURVE",
"16 47 OFFCURVE",
"16 140 CURVE SMOOTH",
"16 288 OFFCURVE",
"153 449 OFFCURVE"
);
},
{
closed = 1;
nodes = (
"145 226 CURVE",
"184 226 OFFCURVE",
"260 299 OFFCURVE",
"260 373 CURVE SMOOTH",
"260 391 OFFCURVE",
"256 412 OFFCURVE",
"234 412 CURVE SMOOTH",
"186 412 OFFCURVE",
"150 277 OFFCURVE"
);
}
);
width = 394;
}
);
unicode = 0065;
userData = {
com.fontlab.hintData = {
hhints = (
{
position = -6;
width = 83;
},
{
position = 188;
width = 38;
},
{
position = 412;
width = 37;
}
);
vhints = (
{
position = 16;
width = 124;
},
{
position = 260;
width = 119;
}
);
};
};
},
{
glyphname = eogonek;
lastChange = "2017-07-12 19:24:34 +0000";
layers = (
{
layerId = "DEDDD934-E4FE-4A27-B966-8C21F8A9BC34";
paths = (
{
closed = 1;
nodes = (
"145 226 CURVE",
"184 226 OFFCURVE",
"260 299 OFFCURVE",
"260 373 CURVE SMOOTH",
"260 400 OFFCURVE",
"256 412 OFFCURVE",
"234 412 CURVE SMOOTH",
"186 412 OFFCURVE",
"150 277 OFFCURVE"
);
},
{
closed = 1;
nodes = (
"62 -160 CURVE SMOOTH",
"62 -102 OFFCURVE",
"109 -49 OFFCURVE",
"149 -4 CURVE",
"142 -6 OFFCURVE",
"138 -6 OFFCURVE",
"131 -6 CURVE SMOOTH",
"60 -6 OFFCURVE",
"16 47 OFFCURVE",
"16 140 CURVE SMOOTH",
"16 288 OFFCURVE",
"153 449 OFFCURVE",
"268 449 CURVE SMOOTH",
"319 449 OFFCURVE",
"379 427 OFFCURVE",
"379 357 CURVE SMOOTH",
"379 254 OFFCURVE",
"204 188 OFFCURVE",
"142 188 CURVE",
"141 185 OFFCURVE",
"140 168 OFFCURVE",
"140 163 CURVE SMOOTH",
"140 126 OFFCURVE",
"151 77 OFFCURVE",
"201 77 CURVE SMOOTH",
"246 77 OFFCURVE",
"299 139 OFFCURVE",
"302 142 CURVE",
"311 142 OFFCURVE",
"317 118 OFFCURVE",
"317 112 CURVE",
"311 102 OFFCURVE",
"286 78 OFFCURVE",
"254 53 CURVE SMOOTH",
"187 1 OFFCURVE",
"123 -67 OFFCURVE",
"123 -122 CURVE SMOOTH",
"123 -146 OFFCURVE",
"134 -156 OFFCURVE",
"159 -156 CURVE SMOOTH",
"201 -156 OFFCURVE",
"226 -125 OFFCURVE",
"233 -120 CURVE",
"240 -122 OFFCURVE",
"238 -142 OFFCURVE",
"236 -146 CURVE SMOOTH",
"213 -185 OFFCURVE",
"164 -218 OFFCURVE",
"122 -218 CURVE SMOOTH",
"83 -218 OFFCURVE",
"62 -187 OFFCURVE"
);
}
);
width = 394;
}
);
unicode = 0119;
userData = {
com.fontlab.hintData = {
hhints = (
{
position = -218;
width = 62;
},
{
position = -6;
width = 21;
},
{
position = 188;
width = 38;
},
{
position = 412;
width = 37;
}
);
vhints = (
{
position = 16;
width = 124;
},
{
position = 62;
width = 61;
},
{
position = 260;
width = 119;
}
);
};
};
},
{
glyphname = f;
lastChange = "2017-07-12 19:24:34 +0000";
layers = (
{
layerId = "DEDDD934-E4FE-4A27-B966-8C21F8A9BC34";
paths = (
{
closed = 1;
nodes = (
"343 695 CURVE SMOOTH",
"377 695 OFFCURVE",
"406 685 OFFCURVE",
"417 677 CURVE",
"422 669 OFFCURVE",
"426 657 OFFCURVE",
"426 644 CURVE SMOOTH",
"426 619 OFFCURVE",
"411 595 OFFCURVE",
"388 595 CURVE SMOOTH",
"371 595 OFFCURVE",
"357 604 OFFCURVE",
"346 619 CURVE SMOOTH",
"337 632 OFFCURVE",
"327 649 OFFCURVE",
"309 649 CURVE SMOOTH",
"278 649 OFFCURVE",
"262 583 OFFCURVE",
"231 424 CURVE",
"331 424 LINE SMOOTH",
"335 424 OFFCURVE",
"336 417 OFFCURVE",
"336 412 CURVE SMOOTH",
"336 402 OFFCURVE",
"330 386 OFFCURVE",
"325 378 CURVE",
"222 378 LINE",
"222 378 OFFCURVE",
"191 184 OFFCURVE",
"167 58 CURVE SMOOTH",
"135 -106 OFFCURVE",
"22 -218 OFFCURVE",
"-58 -218 CURVE SMOOTH",
"-92 -218 OFFCURVE",
"-121 -208 OFFCURVE",
"-132 -200 CURVE",
"-137 -192 OFFCURVE",
"-141 -180 OFFCURVE",
"-141 -167 CURVE SMOOTH",
"-141 -142 OFFCURVE",
"-126 -118 OFFCURVE",
"-103 -118 CURVE SMOOTH",
"-86 -118 OFFCURVE",
"-72 -127 OFFCURVE",
"-61 -142 CURVE SMOOTH",
"-52 -155 OFFCURVE",
"-42 -172 OFFCURVE",
"-24 -172 CURVE SMOOTH",
"15 -172 OFFCURVE",
"20 -105 OFFCURVE",
"51 54 CURVE",
"107 378 LINE",
"42 378 LINE SMOOTH",
"41 378 OFFCURVE",
"40 379 OFFCURVE",
"40 381 CURVE SMOOTH",
"40 391 OFFCURVE",
"65 424 OFFCURVE",
"88 424 CURVE SMOOTH",
"115 424 LINE",
"147 588 OFFCURVE",
"276 695 OFFCURVE"
);
}
);
width = 318;
}
);
unicode = 0066;
userData = {
com.fontlab.hintData = {
hhints = (
{
position = -218;
width = 46;
},
{
position = 378;
width = 46;
},
{
position = 649;
width = 46;
}
);
};
};
},
{
glyphname = g;
lastChange = "2017-07-12 19:24:34 +0000";
layers = (
{
layerId = "DEDDD934-E4FE-4A27-B966-8C21F8A9BC34";
paths = (
{
closed = 1;
nodes = (
"274 -113 CURVE SMOOTH",
"274 -72 OFFCURVE",
"174 -32 OFFCURVE",
"115 -14 CURVE",
"79 -33 OFFCURVE",
"59 -53 OFFCURVE",
"59 -84 CURVE SMOOTH",
"59 -149 OFFCURVE",
"112 -178 OFFCURVE",
"172 -178 CURVE SMOOTH",
"211 -178 OFFCURVE",
"274 -157 OFFCURVE"
);
},
{
closed = 1;
nodes = (
"235 419 CURVE SMOOTH",
"186 421 OFFCURVE",
"158 344 OFFCURVE",
"155 277 CURVE SMOOTH",
"153 230 OFFCURVE",
"162 180 OFFCURVE",
"199 178 CURVE SMOOTH",
"243 176 OFFCURVE",
"278 242 OFFCURVE",
"280 302 CURVE SMOOTH",
"282 349 OFFCURVE",
"274 417 OFFCURVE"
);
},
{
closed = 1;
nodes = (
"364 394 CURVE",
"368 388 OFFCURVE",
"392 360 OFFCURVE",
"392 309 CURVE SMOOTH",
"392 215 OFFCURVE",
"302 159 OFFCURVE",
"254 140 CURVE SMOOTH",
"226 129 OFFCURVE",
"188 126 OFFCURVE",
"188 105 CURVE SMOOTH",
"188 75 OFFCURVE",
"378 60 OFFCURVE",
"378 -40 CURVE SMOOTH",
"378 -135 OFFCURVE",
"267 -226 OFFCURVE",
"121 -226 CURVE SMOOTH",
"11 -226 OFFCURVE",
"-57 -174 OFFCURVE",
"-57 -110 CURVE SMOOTH",
"-57 -39 OFFCURVE",
"31 -13 OFFCURVE",
"79 4 CURVE",
"79 4 OFFCURVE",
"41 21 OFFCURVE",
"34 28 CURVE SMOOTH",
"26 36 OFFCURVE",
"19 37 OFFCURVE",
"19 56 CURVE SMOOTH",
"19 81 OFFCURVE",
"116 133 OFFCURVE",
"164 144 CURVE",
"102 160 OFFCURVE",
"41 198 OFFCURVE",
"41 277 CURVE SMOOTH",
"41 376 OFFCURVE",
"125 458 OFFCURVE",
"223 458 CURVE",
"262 458 OFFCURVE",
"293 445 OFFCURVE",
"318 434 CURVE SMOOTH",
"327 430 OFFCURVE",
"391 447 OFFCURVE",
"404 449 CURVE",
"417 445 OFFCURVE",
"455 424 OFFCURVE",
"455 412 CURVE SMOOTH",
"455 405 OFFCURVE",
"447 394 OFFCURVE",
"439 394 CURVE SMOOTH",
"425 394 OFFCURVE",
"377 394 OFFCURVE"
);
}
);
width = 444;
}
);
unicode = 0067;
userData = {
com.fontlab.hintData = {
hhints = (
{
position = -226;
width = 48;
},
{
position = 394;
width = 55;
},
{
position = 419;
width = 39;
}
);
vhints = (
{
position = -57;
width = 116;
},
{
position = 19;
width = 169;
},
{
position = 41;
width = 114;
},
{
position = 274;
width = 104;
},
{
position = 280;
width = 112;
}
);
};
};
},
{
glyphname = h;
lastChange = "2017-07-12 19:24:34 +0000";
layers = (
{
layerId = "DEDDD934-E4FE-4A27-B966-8C21F8A9BC34";
paths = (
{
closed = 1;
nodes = (
"247 602 CURVE SMOOTH",
"247 602 OFFCURVE",
"192 323 OFFCURVE",
"190 314 CURVE SMOOTH",
"187 302 OFFCURVE",
"184 284 OFFCURVE",
"182 274 CURVE",
"212 342 OFFCURVE",
"301 449 OFFCURVE",
"351 449 CURVE SMOOTH",
"407 449 OFFCURVE",
"423 419 OFFCURVE",
"423 362 CURVE SMOOTH",
"423 328 OFFCURVE",
"408 259 OFFCURVE",
"403 233 CURVE SMOOTH",
"384 132 LINE SMOOTH",
"383 128 OFFCURVE",
"380 104 OFFCURVE",
"380 99 CURVE SMOOTH",
"380 90 OFFCURVE",
"384 78 OFFCURVE",
"394 78 CURVE SMOOTH",
"416 78 OFFCURVE",
"462 133 OFFCURVE",
"465 139 CURVE",
"472 139 OFFCURVE",
"479 118 OFFCURVE",
"479 112 CURVE",
"462 80 OFFCURVE",
"374 -8 OFFCURVE",
"320 -8 CURVE SMOOTH",
"287 -8 OFFCURVE",
"257 12 OFFCURVE",
"257 63 CURVE SMOOTH",
"257 77 OFFCURVE",
"264 115 OFFCURVE",
"266 123 CURVE",
"289 242 LINE SMOOTH",
"292 254 OFFCURVE",
"301 308 OFFCURVE",
"301 318 CURVE SMOOTH",
"301 328 OFFCURVE",
"296 339 OFFCURVE",
"285 339 CURVE SMOOTH",
"256 339 OFFCURVE",
"178 218 OFFCURVE",
"150 91 CURVE SMOOTH",
"130 0 LINE",
"120 -3 OFFCURVE",
"85 -6 OFFCURVE",
"74 -6 CURVE SMOOTH",
"63 -6 OFFCURVE",
"27 -3 OFFCURVE",
"15 0 CURVE",
"21 31 OFFCURVE",
"121 554 OFFCURVE",
"122 560 CURVE SMOOTH",
"126 579 OFFCURVE",
"131 602 OFFCURVE",
"131 613 CURVE SMOOTH",
"131 632 OFFCURVE",
"86 632 OFFCURVE",
"70 632 CURVE",
"67 636 OFFCURVE",
"70 657 OFFCURVE",
"74 661 CURVE",
"129 666 OFFCURVE",
"232 688 OFFCURVE",
"254 696 CURVE",
"259 693 OFFCURVE",
"260 683 OFFCURVE",
"260 677 CURVE SMOOTH",
"260 669 OFFCURVE",
"250 616 OFFCURVE"
);
}
);
width = 504;
}
);
unicode = 0068;
userData = {
com.fontlab.hintData = {
hhints = (
{
position = -8;
width = 86;
},
{
position = 339;
width = 110;
},
{
position = 632;
width = 29;
},
{
position = 676;
width = 20;
}
);
vhints = (
{
position = 131;
width = 129;
},
{
position = 257;
width = 123;
},
{
position = 301;
width = 122;
}
);
};
};
},
{
glyphname = hbar;
lastChange = "2017-07-12 19:24:34 +0000";
layers = (
{
components = (
{
name = h;
}
);
layerId = "DEDDD934-E4FE-4A27-B966-8C21F8A9BC34";
paths = (
{
closed = 1;
nodes = (
"72 556 CURVE",
"100 556 OFFCURVE",
"364 556 OFFCURVE",
"377 556 CURVE SMOOTH",
"381 556 OFFCURVE",
"383 552 OFFCURVE",
"382 548 CURVE SMOOTH",
"381 543 OFFCURVE",
"376 524 OFFCURVE",
"371 517 CURVE",
"343 517 OFFCURVE",
"78 517 OFFCURVE",
"65 517 CURVE SMOOTH",
"61 517 OFFCURVE",
"61 524 OFFCURVE",
"62 528 CURVE SMOOTH",
"63 533 OFFCURVE",
"65 549 OFFCURVE"
);
}
);
width = 504;
}
);
unicode = 0127;
userData = {
com.fontlab.hintData = {
hhints = (
{
position = -8;
width = 86;
},
{
position = 339;
width = 110;
},
{
position = 517;
width = 39;
},
{
position = 632;
width = 29;
},
{
position = 676;
width = 20;
}
);
vhints = (
{
position = 131;
width = 129;
},
{
position = 257;
width = 123;
},
{
position = 301;
width = 122;
}
);
};
};
},
{
glyphname = i;
lastChange = "2017-07-12 19:24:34 +0000";
layers = (
{
layerId = "DEDDD934-E4FE-4A27-B966-8C21F8A9BC34";
paths = (
{
closed = 1;
nodes = (
"106 309 LINE SMOOTH",
"107 313 OFFCURVE",
"111 337 OFFCURVE",
"111 342 CURVE SMOOTH",
"111 351 OFFCURVE",
"106 363 OFFCURVE",
"96 363 CURVE SMOOTH",
"74 363 OFFCURVE",
"28 308 OFFCURVE",
"25 302 CURVE",
"18 302 OFFCURVE",
"11 323 OFFCURVE",
"11 329 CURVE",
"28 361 OFFCURVE",
"112 449 OFFCURVE",
"166 449 CURVE SMOOTH",
"206 449 OFFCURVE",
"233 424 OFFCURVE",
"233 378 CURVE SMOOTH",
"233 364 OFFCURVE",
"226 328 OFFCURVE",
"224 318 CURVE SMOOTH",
"187 132 LINE SMOOTH",
"186 128 OFFCURVE",
"183 104 OFFCURVE",
"183 99 CURVE SMOOTH",
"183 90 OFFCURVE",
"187 78 OFFCURVE",
"197 78 CURVE SMOOTH",
"219 78 OFFCURVE",
"265 133 OFFCURVE",
"268 139 CURVE",
"275 139 OFFCURVE",
"282 118 OFFCURVE",
"282 112 CURVE",
"265 80 OFFCURVE",
"177 -8 OFFCURVE",
"123 -8 CURVE SMOOTH",
"90 -8 OFFCURVE",
"60 12 OFFCURVE",
"60 63 CURVE SMOOTH",
"60 77 OFFCURVE",
"67 115 OFFCURVE",
"69 123 CURVE"
);
},
{
closed = 1;
nodes = (
"213 687 CURVE SMOOTH",
"247 687 OFFCURVE",
"271 660 OFFCURVE",
"271 625 CURVE SMOOTH",
"271 581 OFFCURVE",
"235 540 OFFCURVE",
"193 540 CURVE SMOOTH",
"159 540 OFFCURVE",
"135 568 OFFCURVE",
"135 603 CURVE SMOOTH",
"135 647 OFFCURVE",
"171 687 OFFCURVE"
);
}
);
width = 310;
}
);
unicode = 0069;
userData = {
com.fontlab.hintData = {
hhints = (
{
position = -8;
width = 86;
},
{
position = 363;
width = 86;
},
{
position = 540;
width = 147;
}
);
vhints = (
{
position = 60;
width = 123;
},
{
position = 111;
width = 122;
},
{
position = 135;
width = 136;
}
);
};
};
},
{
glyphname = dotlessi;
lastChange = "2017-07-12 19:24:34 +0000";
layers = (
{
layerId = "DEDDD934-E4FE-4A27-B966-8C21F8A9BC34";
paths = (
{
closed = 1;
nodes = (
"106 309 LINE SMOOTH",
"107 313 OFFCURVE",
"111 337 OFFCURVE",
"111 342 CURVE SMOOTH",
"111 351 OFFCURVE",
"106 363 OFFCURVE",
"96 363 CURVE SMOOTH",
"74 363 OFFCURVE",
"28 308 OFFCURVE",
"25 302 CURVE",
"18 302 OFFCURVE",
"11 323 OFFCURVE",
"11 329 CURVE",
"28 361 OFFCURVE",
"112 449 OFFCURVE",
"166 449 CURVE SMOOTH",
"206 449 OFFCURVE",
"233 424 OFFCURVE",
"233 378 CURVE SMOOTH",
"233 364 OFFCURVE",
"226 328 OFFCURVE",
"224 318 CURVE SMOOTH",
"187 132 LINE SMOOTH",
"186 128 OFFCURVE",
"183 104 OFFCURVE",
"183 99 CURVE SMOOTH",
"183 90 OFFCURVE",
"187 78 OFFCURVE",
"197 78 CURVE SMOOTH",
"219 78 OFFCURVE",
"265 133 OFFCURVE",
"268 139 CURVE",
"275 139 OFFCURVE",
"282 118 OFFCURVE",
"282 112 CURVE",
"265 80 OFFCURVE",
"177 -8 OFFCURVE",
"123 -8 CURVE SMOOTH",
"90 -8 OFFCURVE",
"60 12 OFFCURVE",
"60 63 CURVE SMOOTH",
"60 77 OFFCURVE",
"67 115 OFFCURVE",
"69 123 CURVE"
);
}
);
width = 310;
}
);
unicode = 0131;
userData = {
com.fontlab.hintData = {
hhints = (
{
position = -8;
width = 86;
},
{
position = 363;
width = 86;
}
);
vhints = (
{
position = 60;
width = 123;
},
{
position = 111;
width = 122;
}
);
};
};
},
{
glyphname = iogonek;
lastChange = "2017-07-12 19:24:34 +0000";
layers = (
{
layerId = "DEDDD934-E4FE-4A27-B966-8C21F8A9BC34";
paths = (
{
closed = 1;
nodes = (
"214 687 CURVE SMOOTH",
"248 687 OFFCURVE",
"272 660 OFFCURVE",
"272 625 CURVE SMOOTH",
"272 581 OFFCURVE",
"236 540 OFFCURVE",
"194 540 CURVE SMOOTH",
"160 540 OFFCURVE",
"136 568 OFFCURVE",
"136 603 CURVE SMOOTH",
"136 647 OFFCURVE",
"172 687 OFFCURVE"
);
},
{
closed = 1;
nodes = (
"283 112 CURVE",
"273 93 OFFCURVE",
"235 56 OFFCURVE",
"201 27 CURVE SMOOTH",
"145 -21 OFFCURVE",
"82 -70 OFFCURVE",
"82 -122 CURVE SMOOTH",
"82 -146 OFFCURVE",
"93 -156 OFFCURVE",
"118 -156 CURVE SMOOTH",
"160 -156 OFFCURVE",
"185 -125 OFFCURVE",
"192 -120 CURVE",
"199 -122 OFFCURVE",
"197 -142 OFFCURVE",
"195 -146 CURVE SMOOTH",
"172 -185 OFFCURVE",
"123 -218 OFFCURVE",
"81 -218 CURVE SMOOTH",
"42 -218 OFFCURVE",
"21 -187 OFFCURVE",
"21 -160 CURVE SMOOTH",
"21 -97 OFFCURVE",
"72 -52 OFFCURVE",
"114 -7 CURVE",
"85 -3 OFFCURVE",
"61 17 OFFCURVE",
"61 63 CURVE SMOOTH",
"61 77 OFFCURVE",
"68 115 OFFCURVE",
"70 123 CURVE SMOOTH",
"107 309 LINE SMOOTH",
"108 313 OFFCURVE",
"112 337 OFFCURVE",
"112 342 CURVE SMOOTH",
"112 351 OFFCURVE",
"107 363 OFFCURVE",
"97 363 CURVE SMOOTH",
"75 363 OFFCURVE",
"29 308 OFFCURVE",
"26 302 CURVE",
"19 302 OFFCURVE",
"12 323 OFFCURVE",
"12 329 CURVE",
"29 361 OFFCURVE",
"113 449 OFFCURVE",
"167 449 CURVE SMOOTH",
"207 449 OFFCURVE",
"234 424 OFFCURVE",
"234 378 CURVE SMOOTH",
"234 364 OFFCURVE",
"227 328 OFFCURVE",
"225 318 CURVE SMOOTH",
"188 132 LINE SMOOTH",
"187 128 OFFCURVE",
"184 104 OFFCURVE",
"184 99 CURVE SMOOTH",
"184 90 OFFCURVE",
"188 78 OFFCURVE",
"198 78 CURVE SMOOTH",
"220 78 OFFCURVE",
"266 133 OFFCURVE",
"269 139 CURVE",
"276 139 OFFCURVE",
"283 118 OFFCURVE"
);
}
);
width = 311;
}
);
unicode = 012F;
userData = {
com.fontlab.hintData = {
hhints = (
{
position = -218;
width = 62;
},
{
position = 363;
width = 86;
},
{
position = 540;
width = 147;
}
);
vhints = (
{
position = 21;
width = 61;
},
{
position = 112;
width = 122;
},
{
position = 136;
width = 136;
}
);
};
};
},
{
glyphname = j;
lastChange = "2017-07-12 19:24:34 +0000";
layers = (
{
layerId = "DEDDD934-E4FE-4A27-B966-8C21F8A9BC34";
paths = (
{
closed = 1;
nodes = (
"116 309 LINE SMOOTH",
"117 313 OFFCURVE",
"121 337 OFFCURVE",
"121 342 CURVE SMOOTH",
"121 351 OFFCURVE",
"116 363 OFFCURVE",
"106 363 CURVE SMOOTH",
"84 363 OFFCURVE",
"38 308 OFFCURVE",
"35 302 CURVE",
"28 302 OFFCURVE",
"21 323 OFFCURVE",
"21 329 CURVE",
"38 361 OFFCURVE",
"122 449 OFFCURVE",
"176 449 CURVE SMOOTH",
"216 449 OFFCURVE",
"243 424 OFFCURVE",
"243 378 CURVE SMOOTH",
"243 364 OFFCURVE",
"236 328 OFFCURVE",
"234 318 CURVE SMOOTH",
"234 318 OFFCURVE",
"211 195 OFFCURVE",
"196 120 CURVE SMOOTH",
"180 36 OFFCURVE",
"150 -20 OFFCURVE",
"109 -75 CURVE SMOOTH",
"66 -132 OFFCURVE",
"-51 -210 OFFCURVE",
"-79 -218 CURVE",
"-84 -218 OFFCURVE",
"-88 -205 OFFCURVE",
"-88 -196 CURVE",
"17 -115 OFFCURVE",
"47 -49 OFFCURVE",
"76 100 CURVE SMOOTH"
);
},
{
closed = 1;
nodes = (
"236 689 CURVE SMOOTH",
"270 689 OFFCURVE",
"294 661 OFFCURVE",
"294 626 CURVE SMOOTH",
"294 582 OFFCURVE",
"258 541 OFFCURVE",
"216 541 CURVE SMOOTH",
"182 541 OFFCURVE",
"158 569 OFFCURVE",
"158 604 CURVE SMOOTH",
"158 648 OFFCURVE",
"194 689 OFFCURVE"
);
}
);
width = 286;
}
);
unicode = 006A;
userData = {
com.fontlab.hintData = {
hhints = (
{
position = -218;
width = 22;
},
{
position = 363;
width = 86;
},
{
position = 541;
width = 148;
}
);
vhints = (
{
position = 121;
width = 122;
},
{
position = 158;
width = 136;
}
);
};
};
},
{
glyphname = uni0237;
lastChange = "2017-07-12 19:24:34 +0000";
layers = (
{
layerId = "DEDDD934-E4FE-4A27-B966-8C21F8A9BC34";
paths = (
{
closed = 1;
nodes = (
"116 309 LINE SMOOTH",
"117 313 OFFCURVE",
"121 337 OFFCURVE",
"121 342 CURVE SMOOTH",
"121 351 OFFCURVE",
"116 363 OFFCURVE",
"106 363 CURVE SMOOTH",
"84 363 OFFCURVE",
"38 308 OFFCURVE",
"35 302 CURVE",
"28 302 OFFCURVE",
"21 323 OFFCURVE",
"21 329 CURVE",
"38 361 OFFCURVE",
"122 449 OFFCURVE",
"176 449 CURVE SMOOTH",
"216 449 OFFCURVE",
"243 424 OFFCURVE",
"243 378 CURVE SMOOTH",
"243 364 OFFCURVE",
"236 328 OFFCURVE",
"234 318 CURVE SMOOTH",
"234 318 OFFCURVE",
"211 195 OFFCURVE",
"196 120 CURVE SMOOTH",
"180 36 OFFCURVE",
"150 -20 OFFCURVE",
"109 -75 CURVE SMOOTH",
"66 -132 OFFCURVE",
"-51 -210 OFFCURVE",
"-79 -218 CURVE",
"-84 -218 OFFCURVE",
"-88 -205 OFFCURVE",
"-88 -196 CURVE",
"17 -115 OFFCURVE",
"47 -49 OFFCURVE",
"76 100 CURVE SMOOTH"
);
}
);
width = 286;
}
);
unicode = 0237;
userData = {
com.fontlab.hintData = {
hhints = (
{
position = -218;
width = 22;
},
{
position = 363;
width = 86;
}
);
vhints = (
{
position = 121;
width = 122;
}
);
};
};
},
{
glyphname = k;
lastChange = "2017-07-12 19:24:34 +0000";
layers = (
{
layerId = "DEDDD934-E4FE-4A27-B966-8C21F8A9BC34";
paths = (
{
closed = 1;
nodes = (
"376 449 CURVE SMOOTH",
"434 449 OFFCURVE",
"458 423 OFFCURVE",
"458 377 CURVE SMOOTH",
"458 311 OFFCURVE",
"361 255 OFFCURVE",
"286 230 CURVE",
"303 182 OFFCURVE",
"347 82 OFFCURVE",
"390 82 CURVE SMOOTH",
"414 82 OFFCURVE",
"450 127 OFFCURVE",
"458 138 CURVE",
"468 138 OFFCURVE",
"472 117 OFFCURVE",
"472 112 CURVE",
"462 85 OFFCURVE",
"381 -4 OFFCURVE",
"321 -4 CURVE SMOOTH",
"244 -4 OFFCURVE",
"192 137 OFFCURVE",
"171 208 CURVE",
"156 133 OFFCURVE",
"130 0 OFFCURVE",
"130 0 CURVE",
"120 -3 OFFCURVE",
"85 -6 OFFCURVE",
"74 -6 CURVE SMOOTH",
"63 -6 OFFCURVE",
"27 -3 OFFCURVE",
"15 0 CURVE",
"21 31 OFFCURVE",
"121 554 OFFCURVE",
"122 560 CURVE SMOOTH",
"126 579 OFFCURVE",
"131 602 OFFCURVE",
"131 613 CURVE SMOOTH",
"131 632 OFFCURVE",
"86 632 OFFCURVE",
"70 632 CURVE",
"67 636 OFFCURVE",
"70 657 OFFCURVE",
"74 661 CURVE",
"129 666 OFFCURVE",
"232 688 OFFCURVE",
"254 696 CURVE",
"259 693 OFFCURVE",
"260 683 OFFCURVE",
"260 677 CURVE SMOOTH",
"260 669 OFFCURVE",
"250 616 OFFCURVE",
"247 602 CURVE SMOOTH",
"198 341 LINE",
"210 367 OFFCURVE",
"292 449 OFFCURVE"
);
},
{
closed = 1;
nodes = (
"301 374 CURVE SMOOTH",
"242 374 OFFCURVE",
"179 272 OFFCURVE",
"179 248 CURVE",
"241 248 OFFCURVE",
"329 288 OFFCURVE",
"329 342 CURVE SMOOTH",
"329 352 OFFCURVE",
"324 374 OFFCURVE"
);
}
);
width = 503;
}
);
unicode = 006B;
userData = {
com.fontlab.hintData = {
hhints = (
{
position = -4;
width = 86;
},
{
position = 374;
width = 75;
},
{
position = 632;
width = 29;
},
{
position = 676;
width = 20;
}
);
vhints = (
{
position = 131;
width = 129;
},
{
position = 329;
width = 129;
}
);
};
};
},
{
glyphname = kgreenlandic;
lastChange = "2017-07-12 19:24:34 +0000";
layers = (
{
layerId = "DEDDD934-E4FE-4A27-B966-8C21F8A9BC34";
paths = (
{
closed = 1;
nodes = (
"106 309 CURVE SMOOTH",
"107 313 OFFCURVE",
"111 337 OFFCURVE",
"111 342 CURVE SMOOTH",
"111 351 OFFCURVE",
"106 363 OFFCURVE",
"96 363 CURVE SMOOTH",
"74 363 OFFCURVE",
"28 308 OFFCURVE",
"25 302 CURVE",
"18 302 OFFCURVE",
"11 323 OFFCURVE",
"11 329 CURVE",
"28 361 OFFCURVE",
"112 449 OFFCURVE",
"166 449 CURVE SMOOTH",
"206 449 OFFCURVE",
"233 424 OFFCURVE",
"233 378 CURVE SMOOTH",
"233 366 OFFCURVE",
"232 358 OFFCURVE",
"231 348 CURVE SMOOTH",
"231 346 OFFCURVE",
"230 343 OFFCURVE",
"230 341 CURVE",
"242 367 OFFCURVE",
"324 449 OFFCURVE",
"408 449 CURVE SMOOTH",
"466 449 OFFCURVE",
"490 423 OFFCURVE",
"490 377 CURVE SMOOTH",
"490 311 OFFCURVE",
"393 255 OFFCURVE",
"318 230 CURVE",
"335 182 OFFCURVE",
"379 82 OFFCURVE",
"422 82 CURVE SMOOTH",
"446 82 OFFCURVE",
"482 127 OFFCURVE",
"490 138 CURVE",
"500 138 OFFCURVE",
"504 117 OFFCURVE",
"504 112 CURVE",
"494 85 OFFCURVE",
"413 -4 OFFCURVE",
"353 -4 CURVE SMOOTH",
"276 -4 OFFCURVE",
"224 137 OFFCURVE",
"203 208 CURVE",
"188 133 OFFCURVE",
"162 0 OFFCURVE",
"162 0 CURVE",
"152 -3 OFFCURVE",
"117 -6 OFFCURVE",
"106 -6 CURVE SMOOTH",
"95 -6 OFFCURVE",
"59 -3 OFFCURVE",
"47 0 CURVE",
"53 31 OFFCURVE",
"106 309 OFFCURVE"
);
},
{
closed = 1;
nodes = (
"333 374 CURVE SMOOTH",
"274 374 OFFCURVE",
"211 272 OFFCURVE",
"211 248 CURVE",
"273 248 OFFCURVE",
"361 288 OFFCURVE",
"361 342 CURVE SMOOTH",
"361 352 OFFCURVE",
"356 374 OFFCURVE"
);
}
);
width = 535;
}
);
unicode = 0138;
userData = {
com.fontlab.hintData = {
hhints = (
{
position = -4;
width = 86;
},
{
position = 363;
width = 86;
},
{
position = 374;
width = 75;
}
);
vhints = (
{
position = 361;
width = 129;
}
);
};
};
},
{
glyphname = l;
lastChange = "2017-07-12 19:24:34 +0000";
layers = (
{
layerId = "DEDDD934-E4FE-4A27-B966-8C21F8A9BC34";
paths = (
{
closed = 1;
nodes = (
"125 560 LINE SMOOTH",
"128 578 OFFCURVE",
"134 602 OFFCURVE",
"134 613 CURVE SMOOTH",
"134 632 OFFCURVE",
"89 632 OFFCURVE",
"73 632 CURVE",
"70 636 OFFCURVE",
"73 657 OFFCURVE",
"77 661 CURVE",
"132 666 OFFCURVE",
"235 688 OFFCURVE",
"257 696 CURVE",
"262 693 OFFCURVE",
"263 683 OFFCURVE",
"263 677 CURVE SMOOTH",
"263 669 OFFCURVE",
"255 626 OFFCURVE",
"250 602 CURVE SMOOTH",
"158 132 LINE SMOOTH",
"157 126 OFFCURVE",
"154 104 OFFCURVE",
"154 99 CURVE SMOOTH",
"154 90 OFFCURVE",
"158 78 OFFCURVE",
"168 78 CURVE SMOOTH",
"190 78 OFFCURVE",
"236 133 OFFCURVE",
"239 139 CURVE",
"246 139 OFFCURVE",
"253 118 OFFCURVE",
"253 112 CURVE",
"236 80 OFFCURVE",
"148 -8 OFFCURVE",
"94 -8 CURVE SMOOTH",
"61 -8 OFFCURVE",
"31 12 OFFCURVE",
"31 63 CURVE SMOOTH",
"31 77 OFFCURVE",
"38 115 OFFCURVE",
"40 123 CURVE"
);
}
);
width = 283;
}
);
unicode = 006C;
userData = {
com.fontlab.hintData = {
hhints = (
{
position = -8;
width = 86;
},
{
position = 632;
width = 29;
},
{
position = 676;
width = 20;
}
);
vhints = (
{
position = 31;
width = 123;
},
{
position = 134;
width = 129;
}
);
};
};
},
{
glyphname = lslash;
lastChange = "2017-07-12 19:24:34 +0000";
layers = (
{
components = (
{
name = l;
transform = "{1, 0, 0, 1, 21, 0}";
}
);
layerId = "DEDDD934-E4FE-4A27-B966-8C21F8A9BC34";
paths = (
{
closed = 1;
nodes = (
"33 290 CURVE SMOOTH",
"268 439 LINE",
"271 434 OFFCURVE",
"281 413 OFFCURVE",
"276 410 CURVE SMOOTH",
"40 260 LINE",
"36 266 OFFCURVE",
"28 287 OFFCURVE"
);
}
);
width = 285;
}
);
unicode = 0142;
userData = {
com.fontlab.hintData = {
hhints = (
{
position = -8;
width = 86;
},
{
position = 632;
width = 29;
},
{
position = 676;
width = 20;
}
);
vhints = (
{
position = 52;
width = 123;
},
{
position = 155;
width = 129;
}
);
};
};
},
{
glyphname = m;
lastChange = "2017-07-12 19:24:34 +0000";
layers = (
{
layerId = "DEDDD934-E4FE-4A27-B966-8C21F8A9BC34";
paths = (
{
closed = 1;
nodes = (
"517 123 CURVE SMOOTH",
"527 168 OFFCURVE",
"543 242 OFFCURVE",
"543 242 CURVE SMOOTH",
"546 254 OFFCURVE",
"555 308 OFFCURVE",
"555 318 CURVE SMOOTH",
"555 328 OFFCURVE",
"550 339 OFFCURVE",
"539 339 CURVE SMOOTH",
"510 339 OFFCURVE",
"432 218 OFFCURVE",
"404 91 CURVE",
"384 0 LINE",
"374 -3 OFFCURVE",
"339 -6 OFFCURVE",
"328 -6 CURVE SMOOTH",
"317 -6 OFFCURVE",
"281 -3 OFFCURVE",
"269 0 CURVE",
"321 242 LINE SMOOTH",
"324 254 OFFCURVE",
"333 308 OFFCURVE",
"333 318 CURVE SMOOTH",
"333 328 OFFCURVE",
"328 339 OFFCURVE",
"317 339 CURVE SMOOTH",
"288 339 OFFCURVE",
"210 218 OFFCURVE",
"182 91 CURVE SMOOTH",
"162 0 LINE",
"152 -3 OFFCURVE",
"117 -6 OFFCURVE",
"106 -6 CURVE SMOOTH",
"95 -6 OFFCURVE",
"59 -3 OFFCURVE",
"47 0 CURVE",
"106 309 LINE SMOOTH",
"107 313 OFFCURVE",
"111 337 OFFCURVE",
"111 342 CURVE SMOOTH",
"111 351 OFFCURVE",
"106 363 OFFCURVE",
"96 363 CURVE SMOOTH",
"74 363 OFFCURVE",
"28 308 OFFCURVE",
"25 302 CURVE",
"18 302 OFFCURVE",
"11 323 OFFCURVE",
"11 329 CURVE",
"28 361 OFFCURVE",
"112 449 OFFCURVE",
"166 449 CURVE SMOOTH",
"206 449 OFFCURVE",
"233 424 OFFCURVE",
"233 378 CURVE SMOOTH",
"233 364 OFFCURVE",
"226 328 OFFCURVE",
"224 318 CURVE SMOOTH",
"222 306 OFFCURVE",
"214 274 OFFCURVE",
"214 274 CURVE",
"244 342 OFFCURVE",
"333 449 OFFCURVE",
"383 449 CURVE SMOOTH",
"439 449 OFFCURVE",
"455 419 OFFCURVE",
"455 362 CURVE SMOOTH",
"455 346 OFFCURVE",
"452 321 OFFCURVE",
"448 297 CURVE",
"485 364 OFFCURVE",
"560 449 OFFCURVE",
"605 449 CURVE SMOOTH",
"661 449 OFFCURVE",
"677 419 OFFCURVE",
"677 362 CURVE SMOOTH",
"677 325 OFFCURVE",
"662 260 OFFCURVE",
"657 233 CURVE SMOOTH",
"652 208 OFFCURVE",
"640 160 OFFCURVE",
"635 132 CURVE SMOOTH",
"633 122 OFFCURVE",
"631 104 OFFCURVE",
"631 99 CURVE SMOOTH",
"631 90 OFFCURVE",
"635 78 OFFCURVE",
"645 78 CURVE SMOOTH",
"667 78 OFFCURVE",
"713 133 OFFCURVE",
"716 139 CURVE",
"723 139 OFFCURVE",
"730 118 OFFCURVE",
"730 112 CURVE",
"713 80 OFFCURVE",
"625 -8 OFFCURVE",
"571 -8 CURVE SMOOTH",
"538 -8 OFFCURVE",
"508 12 OFFCURVE",
"508 63 CURVE SMOOTH",
"508 77 OFFCURVE",
"515 115 OFFCURVE"
);
}
);
width = 755;
}
);
unicode = 006D;
userData = {
com.fontlab.hintData = {
hhints = (
{
position = -8;
width = 86;
},
{
position = 429;
width = 20;
}
);
vhints = (
{
position = 111;
width = 122;
},
{
position = 333;
width = 122;
},
{
position = 508;
width = 123;
},
{
position = 555;
width = 122;
}
);
};
};
},
{
glyphname = n;
lastChange = "2017-07-12 19:24:34 +0000";
layers = (
{
layerId = "DEDDD934-E4FE-4A27-B966-8C21F8A9BC34";
paths = (
{
closed = 1;
nodes = (
"224 318 CURVE SMOOTH",
"222 306 OFFCURVE",
"214 273 OFFCURVE",
"214 274 CURVE",
"244 342 OFFCURVE",
"333 449 OFFCURVE",
"383 449 CURVE SMOOTH",
"439 449 OFFCURVE",
"455 419 OFFCURVE",
"455 362 CURVE SMOOTH",
"455 328 OFFCURVE",
"440 259 OFFCURVE",
"435 233 CURVE SMOOTH",
"416 132 LINE SMOOTH",
"415 128 OFFCURVE",
"412 104 OFFCURVE",
"412 99 CURVE SMOOTH",
"412 90 OFFCURVE",
"416 78 OFFCURVE",
"426 78 CURVE SMOOTH",
"448 78 OFFCURVE",
"494 133 OFFCURVE",
"497 139 CURVE",
"504 139 OFFCURVE",
"511 118 OFFCURVE",
"511 112 CURVE",
"494 80 OFFCURVE",
"406 -8 OFFCURVE",
"352 -8 CURVE SMOOTH",
"319 -8 OFFCURVE",
"289 12 OFFCURVE",
"289 63 CURVE SMOOTH",
"289 77 OFFCURVE",
"296 115 OFFCURVE",
"298 123 CURVE",
"321 242 LINE SMOOTH",
"324 254 OFFCURVE",
"333 308 OFFCURVE",
"333 318 CURVE SMOOTH",
"333 328 OFFCURVE",
"328 339 OFFCURVE",
"317 339 CURVE SMOOTH",
"288 339 OFFCURVE",
"210 218 OFFCURVE",
"182 91 CURVE SMOOTH",
"162 0 LINE",
"152 -3 OFFCURVE",
"117 -6 OFFCURVE",
"106 -6 CURVE SMOOTH",
"95 -6 OFFCURVE",
"59 -3 OFFCURVE",
"47 0 CURVE",
"106 309 LINE SMOOTH",
"107 313 OFFCURVE",
"111 337 OFFCURVE",
"111 342 CURVE SMOOTH",
"111 351 OFFCURVE",
"106 363 OFFCURVE",
"96 363 CURVE SMOOTH",
"74 363 OFFCURVE",
"28 308 OFFCURVE",
"25 302 CURVE",
"18 302 OFFCURVE",
"11 323 OFFCURVE",
"11 329 CURVE",
"28 361 OFFCURVE",
"112 449 OFFCURVE",
"166 449 CURVE SMOOTH",
"206 449 OFFCURVE",
"233 424 OFFCURVE",
"233 378 CURVE SMOOTH",
"233 364 OFFCURVE",
"226 328 OFFCURVE"
);
}
);
width = 536;
}
);
unicode = 006E;
userData = {
com.fontlab.hintData = {
hhints = (
{
position = -8;
width = 86;
},
{
position = 339;
width = 110;
},
{
position = 363;
width = 86;
}
);
vhints = (
{
position = 111;
width = 122;
},
{
position = 289;
width = 123;
},
{
position = 333;
width = 122;
}
);
};
};
},
{
glyphname = eng;
lastChange = "2017-07-12 19:24:34 +0000";
layers = (
{
layerId = "DEDDD934-E4FE-4A27-B966-8C21F8A9BC34";
paths = (
{
closed = 1;
nodes = (
"414 120 LINE SMOOTH",
"398 36 OFFCURVE",
"369 -20 OFFCURVE",
"328 -75 CURVE SMOOTH",
"285 -132 OFFCURVE",
"168 -210 OFFCURVE",
"140 -218 CURVE",
"135 -218 OFFCURVE",
"130 -205 OFFCURVE",
"130 -196 CURVE",
"235 -115 OFFCURVE",
"265 -49 OFFCURVE",
"294 100 CURVE SMOOTH",
"321 242 LINE SMOOTH",
"323 254 OFFCURVE",
"333 308 OFFCURVE",
"333 318 CURVE SMOOTH",
"333 328 OFFCURVE",
"328 339 OFFCURVE",
"317 339 CURVE SMOOTH",
"288 339 OFFCURVE",
"210 218 OFFCURVE",
"182 91 CURVE SMOOTH",
"162 0 LINE",
"152 -3 OFFCURVE",
"117 -6 OFFCURVE",
"106 -6 CURVE SMOOTH",
"95 -6 OFFCURVE",
"59 -3 OFFCURVE",
"47 0 CURVE",
"106 309 LINE SMOOTH",
"107 313 OFFCURVE",
"111 337 OFFCURVE",
"111 342 CURVE SMOOTH",
"111 351 OFFCURVE",
"106 363 OFFCURVE",
"96 363 CURVE SMOOTH",
"74 363 OFFCURVE",
"28 308 OFFCURVE",
"25 302 CURVE",
"18 302 OFFCURVE",
"11 323 OFFCURVE",
"11 329 CURVE",
"28 361 OFFCURVE",
"112 449 OFFCURVE",
"166 449 CURVE SMOOTH",
"206 449 OFFCURVE",
"233 424 OFFCURVE",
"233 378 CURVE SMOOTH",
"233 364 OFFCURVE",
"226 329 OFFCURVE",
"224 318 CURVE SMOOTH",
"221 304 OFFCURVE",
"219 295 OFFCURVE",
"214 274 CURVE",
"244 342 OFFCURVE",
"333 449 OFFCURVE",
"383 449 CURVE SMOOTH",
"439 449 OFFCURVE",
"455 419 OFFCURVE",
"455 362 CURVE SMOOTH",
"455 328 OFFCURVE",
"440 259 OFFCURVE",
"435 233 CURVE SMOOTH"
);
}
);
width = 503;
}
);
unicode = 014B;
userData = {
com.fontlab.hintData = {
hhints = (
{
position = -218;
width = 22;
},
{
position = -6;
width = 21;
},
{
position = 339;
width = 110;
},
{
position = 363;
width = 86;
}
);
vhints = (
{
position = 111;
width = 122;
},
{
position = 333;
width = 122;
}
);
};
};
},
{
glyphname = o;
lastChange = "2017-07-12 19:24:34 +0000";
layers = (
{
layerId = "DEDDD934-E4FE-4A27-B966-8C21F8A9BC34";
paths = (
{
closed = 1;
nodes = (
"262 409 CURVE SMOOTH",
"187 409 OFFCURVE",
"140 235 OFFCURVE",
"140 125 CURVE SMOOTH",
"140 101 OFFCURVE",
"140 34 OFFCURVE",
"174 34 CURVE SMOOTH",
"249 34 OFFCURVE",
"296 209 OFFCURVE",
"296 312 CURVE SMOOTH",
"296 345 OFFCURVE",
"296 409 OFFCURVE"
);
},
{
closed = 1;
nodes = (
"273 449 CURVE SMOOTH",
"356 449 OFFCURVE",
"421 416 OFFCURVE",
"421 297 CURVE SMOOTH",
"421 153 OFFCURVE",
"278 -6 OFFCURVE",
"158 -6 CURVE SMOOTH",
"75 -6 OFFCURVE",
"15 46 OFFCURVE",
"15 142 CURVE SMOOTH",
"15 286 OFFCURVE",
"153 449 OFFCURVE"
);
}
);
width = 455;
}
);
unicode = 006F;
userData = {
com.fontlab.hintData = {
hhints = (
{
position = -6;
width = 40;
},
{
position = 409;
width = 40;
}
);
vhints = (
{
position = 15;
width = 125;
},
{
position = 296;
width = 125;
}
);
};
};
},
{
glyphname = ohorn;
lastChange = "2017-07-12 19:24:34 +0000";
layers = (
{
layerId = "DEDDD934-E4FE-4A27-B966-8C21F8A9BC34";
paths = (
{
closed = 1;
nodes = (
"262 409 CURVE SMOOTH",
"187 409 OFFCURVE",
"140 235 OFFCURVE",
"140 125 CURVE SMOOTH",
"140 101 OFFCURVE",
"140 34 OFFCURVE",
"174 34 CURVE SMOOTH",
"249 34 OFFCURVE",
"296 209 OFFCURVE",
"296 312 CURVE SMOOTH",
"296 345 OFFCURVE",
"296 409 OFFCURVE"
);
},
{
closed = 1;
nodes = (
"397 396 CURVE",
"405 390 OFFCURVE",
"415 385 OFFCURVE",
"427 384 CURVE SMOOTH",
"434 383 OFFCURVE",
"451 388 OFFCURVE",
"455 398 CURVE SMOOTH",
"461 414 OFFCURVE",
"444 421 OFFCURVE",
"449 453 CURVE SMOOTH",
"454 485 OFFCURVE",
"498 500 OFFCURVE",
"525 482 CURVE",
"555 404 OFFCURVE",
"477 341 OFFCURVE",
"415 351 CURVE",
"419 335 OFFCURVE",
"421 318 OFFCURVE",
"421 297 CURVE SMOOTH",
"421 153 OFFCURVE",
"278 -6 OFFCURVE",
"158 -6 CURVE SMOOTH",
"75 -6 OFFCURVE",
"15 46 OFFCURVE",
"15 142 CURVE SMOOTH",
"15 286 OFFCURVE",
"153 449 OFFCURVE",
"273 449 CURVE SMOOTH",
"326 449 OFFCURVE",
"371 436 OFFCURVE"
);
}
);
width = 455;
}
);
unicode = 01A1;
userData = {
com.fontlab.hintData = {
hhints = (
{
position = -6;
width = 40;
},
{
position = 409;
width = 40;
}
);
vhints = (
{
position = 15;
width = 125;
},
{
position = 296;
width = 125;
},
{
position = 449;
width = 76;
}
);
};
};
},
{
glyphname = oslash;
lastChange = "2017-07-12 19:24:34 +0000";
layers = (
{
components = (
{
name = o;
}
);
layerId = "DEDDD934-E4FE-4A27-B966-8C21F8A9BC34";
paths = (
{
closed = 1;
nodes = (
"334 459 LINE",
"340 459 OFFCURVE",
"361 455 OFFCURVE",
"362 449 CURVE",
"110 -19 LINE",
"104 -20 OFFCURVE",
"86 -16 OFFCURVE",
"82 -8 CURVE"
);
}
);
width = 455;
}
);
unicode = 00F8;
userData = {
com.fontlab.hintData = {
hhints = (
{
position = -6;
width = 40;
},
{
position = 409;
width = 40;
}
);
vhints = (
{
position = 15;
width = 125;
},
{
position = 296;
width = 125;
}
);
};
};
},
{
glyphname = oe;
lastChange = "2017-07-12 19:24:34 +0000";
layers = (
{
layerId = "DEDDD934-E4FE-4A27-B966-8C21F8A9BC34";
paths = (
{
closed = 1;
nodes = (
"406 226 CURVE",
"445 226 OFFCURVE",
"521 299 OFFCURVE",
"521 373 CURVE SMOOTH",
"521 391 OFFCURVE",
"517 412 OFFCURVE",
"495 412 CURVE SMOOTH",
"447 412 OFFCURVE",
"411 277 OFFCURVE"
);
},
{
closed = 1;
nodes = (
"262 409 CURVE SMOOTH",
"187 409 OFFCURVE",
"140 235 OFFCURVE",
"140 125 CURVE SMOOTH",
"140 101 OFFCURVE",
"140 34 OFFCURVE",
"174 34 CURVE SMOOTH",
"249 34 OFFCURVE",
"296 209 OFFCURVE",
"296 312 CURVE SMOOTH",
"296 345 OFFCURVE",
"296 409 OFFCURVE"
);
},
{
closed = 1;
nodes = (
"529 449 CURVE SMOOTH",
"580 449 OFFCURVE",
"640 427 OFFCURVE",
"640 357 CURVE SMOOTH",
"640 254 OFFCURVE",
"465 188 OFFCURVE",
"403 188 CURVE",
"402 185 OFFCURVE",
"401 168 OFFCURVE",
"401 163 CURVE SMOOTH",
"401 126 OFFCURVE",
"412 77 OFFCURVE",
"462 77 CURVE SMOOTH",
"507 77 OFFCURVE",
"560 139 OFFCURVE",
"563 142 CURVE",
"572 142 OFFCURVE",
"578 118 OFFCURVE",
"578 112 CURVE",
"565 90 OFFCURVE",
"455 -6 OFFCURVE",
"392 -6 CURVE SMOOTH",
"348 -6 OFFCURVE",
"314 15 OFFCURVE",
"295 53 CURVE",
"252 17 OFFCURVE",
"203 -6 OFFCURVE",
"158 -6 CURVE SMOOTH",
"75 -6 OFFCURVE",
"15 46 OFFCURVE",
"15 142 CURVE SMOOTH",
"15 286 OFFCURVE",
"153 449 OFFCURVE",
"273 449 CURVE SMOOTH",
"328 449 OFFCURVE",
"374 434 OFFCURVE",
"400 391 CURVE",
"441 426 OFFCURVE",
"486 449 OFFCURVE"
);
}
);
width = 655;
}
);
unicode = 0153;
userData = {
com.fontlab.hintData = {
hhints = (
{
position = -6;
width = 83;
},
{
position = -6;
width = 40;
},
{
position = 188;
width = 38;
},
{
position = 412;
width = 37;
}
);
vhints = (
{
position = 15;
width = 125;
},
{
position = 296;
width = 105;
},
{
position = 521;
width = 119;
}
);
};
};
},
{
glyphname = p;
lastChange = "2017-07-12 19:24:34 +0000";
layers = (
{
layerId = "DEDDD934-E4FE-4A27-B966-8C21F8A9BC34";
paths = (
{
closed = 1;
nodes = (
"301 365 CURVE SMOOTH",
"271 365 OFFCURVE",
"241 345 OFFCURVE",
"219 323 CURVE",
"214 296 OFFCURVE",
"184 149 OFFCURVE",
"184 149 CURVE SMOOTH",
"169 72 OFFCURVE",
"181 39 OFFCURVE",
"207 39 CURVE SMOOTH",
"278 39 OFFCURVE",
"340 215 OFFCURVE",
"340 299 CURVE SMOOTH",
"340 332 OFFCURVE",
"333 365 OFFCURVE"
);
},
{
closed = 1;
nodes = (
"371 449 CURVE SMOOTH",
"435 449 OFFCURVE",
"469 398 OFFCURVE",
"469 328 CURVE SMOOTH",
"469 160 OFFCURVE",
"301 -5 OFFCURVE",
"179 -5 CURVE SMOOTH",
"173 -5 OFFCURVE",
"161 -4 OFFCURVE",
"152 0 CURVE",
"126 -126 LINE SMOOTH",
"124 -135 OFFCURVE",
"123 -144 OFFCURVE",
"123 -154 CURVE SMOOTH",
"123 -159 OFFCURVE",
"127 -174 OFFCURVE",
"137 -177 CURVE SMOOTH",
"154 -181 OFFCURVE",
"181 -180 OFFCURVE",
"184 -180 CURVE SMOOTH",
"188 -181 OFFCURVE",
"185 -209 OFFCURVE",
"180 -211 CURVE",
"167 -211 OFFCURVE",
"156 -210 OFFCURVE",
"145 -210 CURVE SMOOTH",
"94 -210 OFFCURVE",
"6 -212 OFFCURVE",
"-52 -219 CURVE",
"-57 -218 OFFCURVE",
"-55 -190 OFFCURVE",
"-50 -187 CURVE",
"-32 -187 OFFCURVE",
"-19 -182 OFFCURVE",
"-10 -171 CURVE SMOOTH",
"-3 -162 OFFCURVE",
"1 -151 OFFCURVE",
"6 -128 CURVE SMOOTH",
"81 232 LINE",
"33 184 LINE",
"29 189 OFFCURVE",
"26 204 OFFCURVE",
"26 211 CURVE SMOOTH",
"26 222 OFFCURVE",
"35 234 OFFCURVE",
"41 239 CURVE SMOOTH",
"92 287 LINE",
"122 444 LINE",
"133 447 OFFCURVE",
"172 449 OFFCURVE",
"183 449 CURVE SMOOTH",
"194 449 OFFCURVE",
"231 446 OFFCURVE",
"241 441 CURVE",
"238 423 OFFCURVE",
"229 382 OFFCURVE",
"227 373 CURVE",
"255 404 OFFCURVE",
"320 449 OFFCURVE"
);
}
);
width = 496;
}
);
unicode = 0070;
userData = {
com.fontlab.hintData = {
hhints = (
{
position = -219;
width = 32;
},
{
position = -210;
width = 30;
},
{
position = -5;
width = 44;
},
{
position = 365;
width = 84;
}
);
vhints = (
{
position = 340;
width = 129;
}
);
};
};
},
{
glyphname = thorn;
lastChange = "2017-07-12 19:24:34 +0000";
layers = (
{
layerId = "DEDDD934-E4FE-4A27-B966-8C21F8A9BC34";
paths = (
{
closed = 1;
nodes = (
"274 603 CURVE SMOOTH",
"271 585 OFFCURVE",
"230 382 OFFCURVE",
"228 373 CURVE",
"256 404 OFFCURVE",
"321 449 OFFCURVE",
"372 449 CURVE SMOOTH",
"436 449 OFFCURVE",
"470 398 OFFCURVE",
"470 328 CURVE SMOOTH",
"470 160 OFFCURVE",
"302 -5 OFFCURVE",
"180 -5 CURVE SMOOTH",
"174 -5 OFFCURVE",
"162 -4 OFFCURVE",
"153 0 CURVE",
"127 -126 LINE SMOOTH",
"125 -135 OFFCURVE",
"124 -144 OFFCURVE",
"124 -154 CURVE SMOOTH",
"124 -159 OFFCURVE",
"128 -174 OFFCURVE",
"138 -177 CURVE SMOOTH",
"155 -181 OFFCURVE",
"182 -180 OFFCURVE",
"185 -180 CURVE SMOOTH",
"189 -181 OFFCURVE",
"186 -209 OFFCURVE",
"181 -211 CURVE",
"168 -211 OFFCURVE",
"157 -210 OFFCURVE",
"146 -210 CURVE SMOOTH",
"95 -210 OFFCURVE",
"7 -212 OFFCURVE",
"-51 -219 CURVE",
"-56 -218 OFFCURVE",
"-54 -190 OFFCURVE",
"-49 -187 CURVE",
"-31 -187 OFFCURVE",
"-18 -182 OFFCURVE",
"-9 -171 CURVE SMOOTH",
"-2 -162 OFFCURVE",
"2 -151 OFFCURVE",
"7 -128 CURVE SMOOTH",
"82 232 LINE",
"34 184 LINE",
"30 189 OFFCURVE",
"27 204 OFFCURVE",
"27 211 CURVE SMOOTH",
"27 222 OFFCURVE",
"36 234 OFFCURVE",
"42 239 CURVE SMOOTH",
"93 287 LINE",
"149 561 LINE SMOOTH",
"153 579 OFFCURVE",
"158 603 OFFCURVE",
"158 614 CURVE SMOOTH",
"158 633 OFFCURVE",
"113 633 OFFCURVE",
"97 633 CURVE",
"94 637 OFFCURVE",
"97 658 OFFCURVE",
"101 662 CURVE",
"156 667 OFFCURVE",
"259 689 OFFCURVE",
"281 697 CURVE",
"286 694 OFFCURVE",
"287 684 OFFCURVE",
"287 678 CURVE SMOOTH",
"287 670 OFFCURVE",
"279 627 OFFCURVE"
);
},
{
closed = 1;
nodes = (
"302 365 CURVE SMOOTH",
"272 365 OFFCURVE",
"242 345 OFFCURVE",
"220 323 CURVE",
"215 296 OFFCURVE",
"185 149 OFFCURVE",
"185 149 CURVE SMOOTH",
"170 72 OFFCURVE",
"182 39 OFFCURVE",
"208 39 CURVE SMOOTH",
"279 39 OFFCURVE",
"341 215 OFFCURVE",
"341 299 CURVE SMOOTH",
"341 332 OFFCURVE",
"334 365 OFFCURVE"
);
}
);
width = 497;
}
);
unicode = 00FE;
userData = {
com.fontlab.hintData = {
hhints = (
{
position = -219;
width = 32;
},
{
position = -210;
width = 30;
},
{
position = -5;
width = 44;
},
{
position = 365;
width = 84;
},
{
position = 633;
width = 29;
},
{
position = 677;
width = 20;
}
);
vhints = (
{
position = 158;
width = 129;
},
{
position = 341;
width = 129;
}
);
};
};
},
{
glyphname = q;
lastChange = "2017-07-12 19:24:34 +0000";
layers = (
{
layerId = "DEDDD934-E4FE-4A27-B966-8C21F8A9BC34";
paths = (
{
closed = 1;
nodes = (
"357 -211 CURVE",
"343 -211 OFFCURVE",
"289 -210 OFFCURVE",
"276 -210 CURVE SMOOTH",
"218 -210 OFFCURVE",
"161 -216 OFFCURVE",
"124 -220 CURVE",
"122 -218 OFFCURVE",
"122 -188 OFFCURVE",
"128 -188 CURVE SMOOTH",
"157 -185 OFFCURVE",
"185 -172 OFFCURVE",
"190 -146 CURVE SMOOTH",
"234 84 LINE",
"212 49 OFFCURVE",
"153 -7 OFFCURVE",
"95 -7 CURVE SMOOTH",
"36 -7 OFFCURVE",
"11 56 OFFCURVE",
"11 114 CURVE SMOOTH",
"11 276 OFFCURVE",
"173 449 OFFCURVE",
"322 449 CURVE SMOOTH",
"357 449 OFFCURVE",
"393 443 OFFCURVE",
"419 427 CURVE",
"364 139 LINE SMOOTH",
"363 135 OFFCURVE",
"312 -133 OFFCURVE",
"312 -133 CURVE SMOOTH",
"311 -140 OFFCURVE",
"310 -148 OFFCURVE",
"310 -154 CURVE SMOOTH",
"310 -170 OFFCURVE",
"317 -181 OFFCURVE",
"361 -181 CURVE SMOOTH",
"365 -181 OFFCURVE",
"362 -208 OFFCURVE"
);
},
{
closed = 1;
nodes = (
"287 341 CURVE SMOOTH",
"290 358 OFFCURVE",
"289 394 OFFCURVE",
"262 394 CURVE SMOOTH",
"195 394 OFFCURVE",
"137 272 OFFCURVE",
"137 157 CURVE SMOOTH",
"137 102 OFFCURVE",
"154 81 OFFCURVE",
"171 81 CURVE SMOOTH",
"206 81 OFFCURVE",
"259 186 OFFCURVE",
"276 275 CURVE SMOOTH",
"281 302 OFFCURVE",
"283 314 OFFCURVE"
);
}
);
width = 454;
}
);
unicode = 0071;
userData = {
com.fontlab.hintData = {
hhints = (
{
position = -220;
width = 21;
},
{
position = -210;
width = 22;
},
{
position = -7;
width = 88;
},
{
position = 394;
width = 55;
}
);
vhints = (
{
position = 11;
width = 126;
}
);
};
};
},
{
glyphname = r;
lastChange = "2017-07-12 19:24:34 +0000";
layers = (
{
layerId = "DEDDD934-E4FE-4A27-B966-8C21F8A9BC34";
paths = (
{
closed = 1;
nodes = (
"375 449 CURVE SMOOTH",
"404 449 OFFCURVE",
"413 445 OFFCURVE",
"430 436 CURVE",
"438 426 OFFCURVE",
"446 411 OFFCURVE",
"446 392 CURVE SMOOTH",
"446 344 OFFCURVE",
"415 320 OFFCURVE",
"388 320 CURVE SMOOTH",
"368 320 OFFCURVE",
"354 332 OFFCURVE",
"342 338 CURVE SMOOTH",
"332 343 OFFCURVE",
"331 346 OFFCURVE",
"315 346 CURVE SMOOTH",
"286 346 OFFCURVE",
"210 218 OFFCURVE",
"182 91 CURVE SMOOTH",
"162 0 LINE",
"152 -3 OFFCURVE",
"117 -6 OFFCURVE",
"106 -6 CURVE SMOOTH",
"95 -6 OFFCURVE",
"59 -3 OFFCURVE",
"47 0 CURVE",
"106 309 LINE SMOOTH",
"107 313 OFFCURVE",
"111 337 OFFCURVE",
"111 342 CURVE SMOOTH",
"111 351 OFFCURVE",
"106 363 OFFCURVE",
"96 363 CURVE SMOOTH",
"74 363 OFFCURVE",
"28 308 OFFCURVE",
"25 302 CURVE",
"18 302 OFFCURVE",
"11 323 OFFCURVE",
"11 329 CURVE",
"28 361 OFFCURVE",
"112 449 OFFCURVE",
"166 449 CURVE SMOOTH",
"206 449 OFFCURVE",
"233 424 OFFCURVE",
"233 378 CURVE SMOOTH",
"233 364 OFFCURVE",
"226 328 OFFCURVE",
"224 318 CURVE SMOOTH",
"222 306 OFFCURVE",
"210 253 OFFCURVE",
"210 254 CURVE",
"235 346 OFFCURVE",
"321 449 OFFCURVE"
);
}
);
width = 432;
}
);
unicode = 0072;
userData = {
com.fontlab.hintData = {
hhints = (
{
position = -6;
width = 21;
},
{
position = 346;
width = 103;
},
{
position = 363;
width = 86;
}
);
vhints = (
{
position = 111;
width = 122;
},
{
position = 210;
width = 236;
}
);
};
};
},
{
glyphname = s;
lastChange = "2017-07-12 19:24:34 +0000";
layers = (
{
layerId = "DEDDD934-E4FE-4A27-B966-8C21F8A9BC34";
paths = (
{
closed = 1;
nodes = (
"223 449 CURVE SMOOTH",
"276 449 OFFCURVE",
"311 435 OFFCURVE",
"333 418 CURVE",
"342 408 OFFCURVE",
"344 386 OFFCURVE",
"344 378 CURVE SMOOTH",
"344 356 OFFCURVE",
"326 327 OFFCURVE",
"294 327 CURVE SMOOTH",
"269 327 OFFCURVE",
"248 354 OFFCURVE",
"235 373 CURVE SMOOTH",
"222 393 OFFCURVE",
"210 410 OFFCURVE",
"186 410 CURVE SMOOTH",
"164 410 OFFCURVE",
"146 391 OFFCURVE",
"146 364 CURVE SMOOTH",
"146 327 OFFCURVE",
"206 287 OFFCURVE",
"243 251 CURVE SMOOTH",
"267 228 OFFCURVE",
"299 199 OFFCURVE",
"299 137 CURVE SMOOTH",
"299 48 OFFCURVE",
"213 -7 OFFCURVE",
"116 -7 CURVE SMOOTH",
"76 -7 OFFCURVE",
"33 7 OFFCURVE",
"11 24 CURVE",
"2 35 OFFCURVE",
"-1 51 OFFCURVE",
"-1 62 CURVE SMOOTH",
"-1 88 OFFCURVE",
"18 116 OFFCURVE",
"47 116 CURVE SMOOTH",
"72 116 OFFCURVE",
"88 98 OFFCURVE",
"107 71 CURVE SMOOTH",
"124 47 OFFCURVE",
"136 33 OFFCURVE",
"161 33 CURVE SMOOTH",
"183 33 OFFCURVE",
"206 58 OFFCURVE",
"206 76 CURVE SMOOTH",
"206 120 OFFCURVE",
"141 160 OFFCURVE",
"103 202 CURVE SMOOTH",
"78 230 OFFCURVE",
"54 250 OFFCURVE",
"54 310 CURVE SMOOTH",
"54 390 OFFCURVE",
"126 449 OFFCURVE"
);
}
);
width = 366;
}
);
unicode = 0073;
userData = {
com.fontlab.hintData = {
hhints = (
{
position = -7;
width = 40;
},
{
position = 410;
width = 39;
}
);
vhints = (
{
position = 54;
width = 92;
},
{
position = 206;
width = 93;
}
);
};
};
},
{
glyphname = germandbls;
lastChange = "2017-07-12 19:24:34 +0000";
layers = (
{
layerId = "DEDDD934-E4FE-4A27-B966-8C21F8A9BC34";
paths = (
{
closed = 1;
nodes = (
"115 424 LINE",
"147 588 OFFCURVE",
"288 695 OFFCURVE",
"368 695 CURVE SMOOTH",
"434 695 OFFCURVE",
"507 648 OFFCURVE",
"507 570 CURVE SMOOTH",
"507 468 OFFCURVE",
"407 414 OFFCURVE",
"376 391 CURVE SMOOTH",
"363 382 OFFCURVE",
"360 371 OFFCURVE",
"360 361 CURVE SMOOTH",
"360 334 OFFCURVE",
"389 295 OFFCURVE",
"410 266 CURVE SMOOTH",
"449 213 OFFCURVE",
"473 174 OFFCURVE",
"473 127 CURVE SMOOTH",
"473 57 OFFCURVE",
"400 -4 OFFCURVE",
"321 -4 CURVE SMOOTH",
"261 -4 OFFCURVE",
"247 0 OFFCURVE",
"230 11 CURVE",
"224 16 OFFCURVE",
"213 29 OFFCURVE",
"213 52 CURVE SMOOTH",
"213 80 OFFCURVE",
"238 97 OFFCURVE",
"259 97 CURVE SMOOTH",
"296 97 OFFCURVE",
"291 30 OFFCURVE",
"340 30 CURVE SMOOTH",
"356 30 OFFCURVE",
"382 44 OFFCURVE",
"382 76 CURVE SMOOTH",
"382 107 OFFCURVE",
"336 157 OFFCURVE",
"309 193 CURVE SMOOTH",
"280 232 OFFCURVE",
"261 264 OFFCURVE",
"261 310 CURVE SMOOTH",
"261 360 OFFCURVE",
"314 398 OFFCURVE",
"344 430 CURVE SMOOTH",
"359 446 OFFCURVE",
"400 492 OFFCURVE",
"400 556 CURVE SMOOTH",
"400 568 OFFCURVE",
"398 655 OFFCURVE",
"347 655 CURVE SMOOTH",
"289 655 OFFCURVE",
"253 563 OFFCURVE",
"230 424 CURVE SMOOTH",
"206 282 OFFCURVE",
"190 184 OFFCURVE",
"166 58 CURVE SMOOTH",
"134 -106 OFFCURVE",
"21 -218 OFFCURVE",
"-59 -218 CURVE SMOOTH",
"-93 -218 OFFCURVE",
"-122 -208 OFFCURVE",
"-133 -200 CURVE",
"-138 -192 OFFCURVE",
"-142 -180 OFFCURVE",
"-142 -167 CURVE SMOOTH",
"-142 -142 OFFCURVE",
"-127 -118 OFFCURVE",
"-104 -118 CURVE SMOOTH",
"-87 -118 OFFCURVE",
"-73 -127 OFFCURVE",
"-62 -142 CURVE SMOOTH",
"-53 -155 OFFCURVE",
"-43 -172 OFFCURVE",
"-25 -172 CURVE SMOOTH",
"14 -172 OFFCURVE",
"20 -105 OFFCURVE",
"51 54 CURVE"
);
}
);
width = 527;
}
);
unicode = 00DF;
userData = {
com.fontlab.hintData = {
hhints = (
{
position = -218;
width = 46;
},
{
position = -4;
width = 34;
},
{
position = 378;
width = 46;
},
{
position = 655;
width = 40;
}
);
vhints = (
{
position = 261;
width = 99;
},
{
position = 382;
width = 91;
},
{
position = 400;
width = 107;
}
);
};
};
},
{
glyphname = longs;
lastChange = "2017-07-12 19:24:34 +0000";
layers = (
{
layerId = "DEDDD934-E4FE-4A27-B966-8C21F8A9BC34";
paths = (
{
closed = 1;
nodes = (
"115 424 LINE",
"147 588 OFFCURVE",
"276 695 OFFCURVE",
"343 695 CURVE SMOOTH",
"377 695 OFFCURVE",
"406 685 OFFCURVE",
"417 677 CURVE",
"422 669 OFFCURVE",
"426 657 OFFCURVE",
"426 644 CURVE SMOOTH",
"426 619 OFFCURVE",
"411 595 OFFCURVE",
"388 595 CURVE SMOOTH",
"371 595 OFFCURVE",
"357 604 OFFCURVE",
"346 619 CURVE SMOOTH",
"337 632 OFFCURVE",
"327 649 OFFCURVE",
"309 649 CURVE SMOOTH",
"274 649 OFFCURVE",
"255 571 OFFCURVE",
"222 378 CURVE SMOOTH",
"222 378 OFFCURVE",
"191 184 OFFCURVE",
"167 58 CURVE SMOOTH",
"135 -106 OFFCURVE",
"22 -218 OFFCURVE",
"-58 -218 CURVE SMOOTH",
"-92 -218 OFFCURVE",
"-121 -208 OFFCURVE",
"-132 -200 CURVE",
"-137 -192 OFFCURVE",
"-141 -180 OFFCURVE",
"-141 -167 CURVE SMOOTH",
"-141 -142 OFFCURVE",
"-126 -118 OFFCURVE",
"-103 -118 CURVE SMOOTH",
"-86 -118 OFFCURVE",
"-72 -127 OFFCURVE",
"-61 -142 CURVE SMOOTH",
"-52 -155 OFFCURVE",
"-42 -172 OFFCURVE",
"-24 -172 CURVE SMOOTH",
"15 -172 OFFCURVE",
"20 -105 OFFCURVE",
"51 54 CURVE"
);
}
);
width = 318;
}
);
unicode = 017F;
userData = {
com.fontlab.hintData = {
hhints = (
{
position = -218;
width = 46;
},
{
position = 378;
width = 46;
},
{
position = 649;
width = 46;
}
);
};
};
},
{
glyphname = t;
lastChange = "2017-07-12 19:24:34 +0000";
layers = (
{
layerId = "DEDDD934-E4FE-4A27-B966-8C21F8A9BC34";
paths = (
{
closed = 1;
nodes = (
"118 424 LINE",
"133 504 LINE",
"144 518 OFFCURVE",
"235 570 OFFCURVE",
"243 570 CURVE SMOOTH",
"249 570 OFFCURVE",
"256 567 OFFCURVE",
"260 564 CURVE",
"234 424 LINE",
"322 424 LINE SMOOTH",
"326 424 OFFCURVE",
"326 417 OFFCURVE",
"326 412 CURVE SMOOTH",
"326 402 OFFCURVE",
"321 386 OFFCURVE",
"316 378 CURVE",
"225 378 LINE",
"177 132 LINE SMOOTH",
"176 126 OFFCURVE",
"173 104 OFFCURVE",
"173 99 CURVE SMOOTH",
"173 90 OFFCURVE",
"177 78 OFFCURVE",
"187 78 CURVE SMOOTH",
"209 78 OFFCURVE",
"255 133 OFFCURVE",
"258 139 CURVE",
"265 139 OFFCURVE",
"272 118 OFFCURVE",
"272 112 CURVE",
"255 80 OFFCURVE",
"167 -8 OFFCURVE",
"113 -8 CURVE SMOOTH",
"80 -8 OFFCURVE",
"50 12 OFFCURVE",
"50 63 CURVE SMOOTH",
"50 77 OFFCURVE",
"56 110 OFFCURVE",
"59 123 CURVE SMOOTH",
"109 378 LINE",
"35 378 LINE SMOOTH",
"34 378 OFFCURVE",
"33 379 OFFCURVE",
"33 381 CURVE SMOOTH",
"33 391 OFFCURVE",
"58 424 OFFCURVE",
"81 424 CURVE SMOOTH"
);
}
);
width = 328;
}
);
unicode = 0074;
userData = {
com.fontlab.hintData = {
hhints = (
{
position = -8;
width = 86;
},
{
position = 378;
width = 46;
}
);
vhints = (
{
position = 50;
width = 123;
}
);
};
};
},
{
glyphname = tbar;
lastChange = "2017-07-12 19:24:34 +0000";
layers = (
{
components = (
{
name = t;
transform = "{1, 0, 0, 1, 24, 0}";
}
);
layerId = "DEDDD934-E4FE-4A27-B966-8C21F8A9BC34";
paths = (
{
closed = 1;
nodes = (
"34 318 CURVE",
"62 318 OFFCURVE",
"296 318 OFFCURVE",
"309 318 CURVE SMOOTH",
"313 318 OFFCURVE",
"315 314 OFFCURVE",
"314 310 CURVE SMOOTH",
"313 305 OFFCURVE",
"308 286 OFFCURVE",
"303 279 CURVE",
"275 279 OFFCURVE",
"40 279 OFFCURVE",
"27 279 CURVE SMOOTH",
"23 279 OFFCURVE",
"23 286 OFFCURVE",
"24 290 CURVE SMOOTH",
"25 295 OFFCURVE",
"27 311 OFFCURVE"
);
}
);
width = 351;
}
);
unicode = 0167;
userData = {
com.fontlab.hintData = {
hhints = (
{
position = -8;
width = 86;
},
{
position = 279;
width = 39;
},
{
position = 378;
width = 46;
}
);
vhints = (
{
position = 74;
width = 123;
}
);
};
};
},
{
glyphname = u;
lastChange = "2017-07-12 19:24:34 +0000";
layers = (
{
layerId = "DEDDD934-E4FE-4A27-B966-8C21F8A9BC34";
paths = (
{
closed = 1;
nodes = (
"289 113 CURVE SMOOTH",
"293 134 OFFCURVE",
"298 155 OFFCURVE",
"301 166 CURVE",
"263 85 OFFCURVE",
"169 -8 OFFCURVE",
"126 -8 CURVE SMOOTH",
"75 -8 OFFCURVE",
"63 17 OFFCURVE",
"63 78 CURVE SMOOTH",
"63 110 OFFCURVE",
"77 178 OFFCURVE",
"82 204 CURVE SMOOTH",
"90 245 OFFCURVE",
"96 268 OFFCURVE",
"102 309 CURVE SMOOTH",
"103 313 OFFCURVE",
"107 337 OFFCURVE",
"107 342 CURVE SMOOTH",
"107 351 OFFCURVE",
"102 363 OFFCURVE",
"92 363 CURVE SMOOTH",
"70 363 OFFCURVE",
"24 308 OFFCURVE",
"21 302 CURVE",
"14 302 OFFCURVE",
"7 323 OFFCURVE",
"7 329 CURVE",
"24 361 OFFCURVE",
"108 449 OFFCURVE",
"162 449 CURVE SMOOTH",
"202 449 OFFCURVE",
"229 424 OFFCURVE",
"229 378 CURVE SMOOTH",
"229 364 OFFCURVE",
"222 328 OFFCURVE",
"220 318 CURVE SMOOTH",
"218 306 OFFCURVE",
"197 199 OFFCURVE",
"197 199 CURVE SMOOTH",
"195 187 OFFCURVE",
"185 133 OFFCURVE",
"185 123 CURVE SMOOTH",
"185 113 OFFCURVE",
"190 102 OFFCURVE",
"201 102 CURVE SMOOTH",
"230 102 OFFCURVE",
"313 249 OFFCURVE",
"338 372 CURVE SMOOTH",
"352 441 LINE",
"362 444 OFFCURVE",
"397 447 OFFCURVE",
"408 447 CURVE SMOOTH",
"419 447 OFFCURVE",
"455 444 OFFCURVE",
"467 441 CURVE",
"409 132 LINE SMOOTH",
"408 127 OFFCURVE",
"405 104 OFFCURVE",
"405 99 CURVE SMOOTH",
"405 90 OFFCURVE",
"409 78 OFFCURVE",
"419 78 CURVE SMOOTH",
"441 78 OFFCURVE",
"487 133 OFFCURVE",
"490 139 CURVE",
"497 139 OFFCURVE",
"504 118 OFFCURVE",
"504 112 CURVE",
"487 80 OFFCURVE",
"399 -8 OFFCURVE",
"345 -8 CURVE SMOOTH",
"312 -8 OFFCURVE",
"282 12 OFFCURVE",
"282 63 CURVE SMOOTH",
"282 70 OFFCURVE",
"285 91 OFFCURVE"
);
}
);
width = 533;
}
);
unicode = 0075;
userData = {
com.fontlab.hintData = {
hhints = (
{
position = -8;
width = 110;
},
{
position = -8;
width = 86;
},
{
position = 363;
width = 86;
}
);
vhints = (
{
position = 63;
width = 122;
},
{
position = 107;
width = 122;
},
{
position = 282;
width = 123;
}
);
};
};
},
{
glyphname = uhorn;
lastChange = "2017-07-12 19:24:34 +0000";
layers = (
{
layerId = "DEDDD934-E4FE-4A27-B966-8C21F8A9BC34";
paths = (
{
closed = 1;
nodes = (
"289 113 CURVE SMOOTH",
"293 134 OFFCURVE",
"298 155 OFFCURVE",
"301 166 CURVE",
"263 85 OFFCURVE",
"169 -8 OFFCURVE",
"126 -8 CURVE SMOOTH",
"75 -8 OFFCURVE",
"63 17 OFFCURVE",
"63 78 CURVE SMOOTH",
"63 110 OFFCURVE",
"77 178 OFFCURVE",
"82 204 CURVE SMOOTH",
"90 245 OFFCURVE",
"96 268 OFFCURVE",
"102 309 CURVE SMOOTH",
"103 313 OFFCURVE",
"107 337 OFFCURVE",
"107 342 CURVE SMOOTH",
"107 351 OFFCURVE",
"102 363 OFFCURVE",
"92 363 CURVE SMOOTH",
"70 363 OFFCURVE",
"24 308 OFFCURVE",
"21 302 CURVE",
"14 302 OFFCURVE",
"7 323 OFFCURVE",
"7 329 CURVE",
"24 361 OFFCURVE",
"108 449 OFFCURVE",
"162 449 CURVE SMOOTH",
"202 449 OFFCURVE",
"229 424 OFFCURVE",
"229 378 CURVE SMOOTH",
"229 364 OFFCURVE",
"222 328 OFFCURVE",
"220 318 CURVE SMOOTH",
"218 306 OFFCURVE",
"197 199 OFFCURVE",
"197 199 CURVE SMOOTH",
"195 187 OFFCURVE",
"185 133 OFFCURVE",
"185 123 CURVE SMOOTH",
"185 113 OFFCURVE",
"190 102 OFFCURVE",
"201 102 CURVE SMOOTH",
"230 102 OFFCURVE",
"313 249 OFFCURVE",
"338 372 CURVE SMOOTH",
"352 441 LINE",
"362 444 OFFCURVE",
"397 447 OFFCURVE",
"408 447 CURVE SMOOTH",
"443 447 OFFCURVE",
"470 437 OFFCURVE",
"492 457 CURVE SMOOTH",
"508 472 OFFCURVE",
"488 481 OFFCURVE",
"493 513 CURVE SMOOTH",
"498 545 OFFCURVE",
"536 564 OFFCURVE",
"572 542 CURVE",
"575 534 OFFCURVE",
"577 522 OFFCURVE",
"577 514 CURVE SMOOTH",
"578 452 OFFCURVE",
"525 421 OFFCURVE",
"475 408 CURVE SMOOTH",
"464 405 OFFCURVE",
"460 407 OFFCURVE",
"458 395 CURVE SMOOTH",
"409 132 LINE SMOOTH",
"408 127 OFFCURVE",
"405 104 OFFCURVE",
"405 99 CURVE SMOOTH",
"405 90 OFFCURVE",
"409 78 OFFCURVE",
"419 78 CURVE SMOOTH",
"441 78 OFFCURVE",
"487 133 OFFCURVE",
"490 139 CURVE",
"497 139 OFFCURVE",
"504 118 OFFCURVE",
"504 112 CURVE",
"487 80 OFFCURVE",
"399 -8 OFFCURVE",
"345 -8 CURVE SMOOTH",
"312 -8 OFFCURVE",
"282 12 OFFCURVE",
"282 63 CURVE SMOOTH",
"282 70 OFFCURVE",
"285 91 OFFCURVE"
);
}
);
width = 533;
}
);
unicode = 01B0;
userData = {
com.fontlab.hintData = {
hhints = (
{
position = -8;
width = 110;
},
{
position = -8;
width = 86;
},
{
position = 363;
width = 86;
}
);
vhints = (
{
position = 63;
width = 122;
},
{
position = 107;
width = 122;
},
{
position = 282;
width = 123;
}
);
};
};
},
{
glyphname = uogonek;
lastChange = "2017-07-12 19:24:34 +0000";
layers = (
{
layerId = "DEDDD934-E4FE-4A27-B966-8C21F8A9BC34";
paths = (
{
closed = 1;
nodes = (
"241 -160 CURVE SMOOTH",
"241 -96 OFFCURVE",
"292 -52 OFFCURVE",
"334 -7 CURVE",
"304 -3 OFFCURVE",
"282 19 OFFCURVE",
"282 59 CURVE SMOOTH",
"282 66 OFFCURVE",
"285 91 OFFCURVE",
"289 113 CURVE SMOOTH",
"293 134 OFFCURVE",
"298 155 OFFCURVE",
"301 166 CURVE",
"263 85 OFFCURVE",
"169 -8 OFFCURVE",
"126 -8 CURVE SMOOTH",
"75 -8 OFFCURVE",
"63 17 OFFCURVE",
"63 78 CURVE SMOOTH",
"63 110 OFFCURVE",
"77 178 OFFCURVE",
"82 204 CURVE SMOOTH",
"90 245 OFFCURVE",
"96 268 OFFCURVE",
"102 309 CURVE SMOOTH",
"103 313 OFFCURVE",
"107 337 OFFCURVE",
"107 342 CURVE SMOOTH",
"107 351 OFFCURVE",
"102 363 OFFCURVE",
"92 363 CURVE SMOOTH",
"70 363 OFFCURVE",
"24 308 OFFCURVE",
"21 302 CURVE",
"14 302 OFFCURVE",
"7 323 OFFCURVE",
"7 329 CURVE",
"24 361 OFFCURVE",
"108 449 OFFCURVE",
"162 449 CURVE SMOOTH",
"202 449 OFFCURVE",
"229 424 OFFCURVE",
"229 378 CURVE SMOOTH",
"229 364 OFFCURVE",
"222 328 OFFCURVE",
"220 318 CURVE SMOOTH",
"218 306 OFFCURVE",
"197 199 OFFCURVE",
"197 199 CURVE SMOOTH",
"195 187 OFFCURVE",
"185 133 OFFCURVE",
"185 123 CURVE SMOOTH",
"185 113 OFFCURVE",
"190 102 OFFCURVE",
"201 102 CURVE SMOOTH",
"230 102 OFFCURVE",
"313 249 OFFCURVE",
"338 372 CURVE SMOOTH",
"352 441 LINE",
"362 444 OFFCURVE",
"397 447 OFFCURVE",
"408 447 CURVE SMOOTH",
"419 447 OFFCURVE",
"455 444 OFFCURVE",
"467 441 CURVE",
"409 132 LINE SMOOTH",
"408 127 OFFCURVE",
"405 104 OFFCURVE",
"405 99 CURVE SMOOTH",
"405 90 OFFCURVE",
"409 78 OFFCURVE",
"419 78 CURVE SMOOTH",
"441 78 OFFCURVE",
"487 133 OFFCURVE",
"490 139 CURVE",
"497 139 OFFCURVE",
"504 118 OFFCURVE",
"504 112 CURVE",
"495 95 OFFCURVE",
"465 62 OFFCURVE",
"431 34 CURVE SMOOTH",
"370 -16 OFFCURVE",
"302 -67 OFFCURVE",
"302 -122 CURVE SMOOTH",
"302 -146 OFFCURVE",
"313 -156 OFFCURVE",
"338 -156 CURVE SMOOTH",
"380 -156 OFFCURVE",
"405 -125 OFFCURVE",
"412 -120 CURVE",
"419 -122 OFFCURVE",
"417 -142 OFFCURVE",
"415 -146 CURVE SMOOTH",
"392 -185 OFFCURVE",
"343 -218 OFFCURVE",
"301 -218 CURVE SMOOTH",
"262 -218 OFFCURVE",
"241 -187 OFFCURVE"
);
}
);
width = 534;
}
);
unicode = 0173;
userData = {
com.fontlab.hintData = {
hhints = (
{
position = -218;
width = 62;
},
{
position = -8;
width = 110;
},
{
position = 363;
width = 86;
}
);
vhints = (
{
position = 63;
width = 122;
},
{
position = 107;
width = 122;
},
{
position = 241;
width = 61;
}
);
};
};
},
{
glyphname = v;
lastChange = "2017-07-12 19:24:34 +0000";
layers = (
{
layerId = "DEDDD934-E4FE-4A27-B966-8C21F8A9BC34";
paths = (
{
closed = 1;
nodes = (
"236 112 CURVE",
"268 135 OFFCURVE",
"302 170 OFFCURVE",
"324 211 CURVE SMOOTH",
"346 253 OFFCURVE",
"348 286 OFFCURVE",
"348 307 CURVE SMOOTH",
"348 332 OFFCURVE",
"331 364 OFFCURVE",
"306 384 CURVE",
"306 421 OFFCURVE",
"348 449 OFFCURVE",
"372 449 CURVE SMOOTH",
"410 449 OFFCURVE",
"450 425 OFFCURVE",
"450 357 CURVE SMOOTH",
"450 230 OFFCURVE",
"192 -5 OFFCURVE",
"129 -5 CURVE",
"107 45 OFFCURVE",
"92 168 OFFCURVE",
"92 290 CURVE SMOOTH",
"92 334 LINE SMOOTH",
"92 343 OFFCURVE",
"91 356 OFFCURVE",
"81 356 CURVE SMOOTH",
"66 356 OFFCURVE",
"26 308 OFFCURVE",
"23 302 CURVE",
"16 302 OFFCURVE",
"9 323 OFFCURVE",
"9 329 CURVE",
"27 362 OFFCURVE",
"110 449 OFFCURVE",
"164 449 CURVE SMOOTH",
"207 449 OFFCURVE",
"214 423 OFFCURVE",
"214 393 CURVE SMOOTH",
"214 393 OFFCURVE",
"214 373 OFFCURVE",
"214 361 CURVE SMOOTH",
"214 341 LINE SMOOTH",
"214 231 OFFCURVE",
"228 122 OFFCURVE"
);
}
);
width = 465;
}
);
unicode = 0076;
userData = {
com.fontlab.hintData = {
hhints = (
{
position = -5;
width = 21;
},
{
position = 356;
width = 93;
}
);
vhints = (
{
position = 92;
width = 122;
},
{
position = 348;
width = 102;
}
);
};
};
},
{
glyphname = w;
lastChange = "2017-07-12 19:24:34 +0000";
layers = (
{
layerId = "DEDDD934-E4FE-4A27-B966-8C21F8A9BC34";
paths = (
{
closed = 1;
nodes = (
"458 406 CURVE",
"458 354 OFFCURVE",
"464 287 OFFCURVE",
"471 230 CURVE SMOOTH",
"479 168 OFFCURVE",
"489 117 OFFCURVE",
"493 112 CURVE",
"519 126 OFFCURVE",
"559 161 OFFCURVE",
"585 206 CURVE SMOOTH",
"607 244 OFFCURVE",
"609 279 OFFCURVE",
"609 302 CURVE SMOOTH",
"609 331 OFFCURVE",
"592 364 OFFCURVE",
"567 384 CURVE",
"567 421 OFFCURVE",
"609 449 OFFCURVE",
"633 449 CURVE SMOOTH",
"671 449 OFFCURVE",
"711 425 OFFCURVE",
"711 357 CURVE SMOOTH",
"711 230 OFFCURVE",
"464 -4 OFFCURVE",
"390 -4 CURVE",
"376 15 OFFCURVE",
"366 58 OFFCURVE",
"358 102 CURVE SMOOTH",
"352 135 OFFCURVE",
"348 168 OFFCURVE",
"347 192 CURVE",
"315 125 OFFCURVE",
"202 24 OFFCURVE",
"130 -5 CURVE",
"108 45 OFFCURVE",
"91 168 OFFCURVE",
"91 290 CURVE SMOOTH",
"91 334 LINE SMOOTH",
"91 343 OFFCURVE",
"90 356 OFFCURVE",
"80 356 CURVE SMOOTH",
"65 356 OFFCURVE",
"25 308 OFFCURVE",
"22 302 CURVE",
"15 302 OFFCURVE",
"8 323 OFFCURVE",
"8 329 CURVE",
"26 362 OFFCURVE",
"109 449 OFFCURVE",
"163 449 CURVE SMOOTH",
"206 449 OFFCURVE",
"213 423 OFFCURVE",
"213 393 CURVE SMOOTH",
"213 393 OFFCURVE",
"213 373 OFFCURVE",
"213 361 CURVE SMOOTH",
"213 341 LINE SMOOTH",
"213 231 OFFCURVE",
"227 131 OFFCURVE",
"235 121 CURVE",
"260 138 OFFCURVE",
"291 180 OFFCURVE",
"310 218 CURVE SMOOTH",
"324 246 OFFCURVE",
"339 287 OFFCURVE",
"345 323 CURVE",
"353 357 OFFCURVE",
"436 406 OFFCURVE"
);
}
);
width = 726;
}
);
unicode = 0077;
userData = {
com.fontlab.hintData = {
hhints = (
{
position = -5;
width = 22;
},
{
position = 356;
width = 93;
}
);
vhints = (
{
position = 91;
width = 122;
},
{
position = 347;
width = 111;
},
{
position = 609;
width = 102;
}
);
};
};
},
{
glyphname = x;
lastChange = "2017-07-12 19:24:34 +0000";
layers = (
{
layerId = "DEDDD934-E4FE-4A27-B966-8C21F8A9BC34";
paths = (
{
closed = 1;
nodes = (
"204 449 CURVE SMOOTH",
"232 449 OFFCURVE",
"246 422 OFFCURVE",
"254 393 CURVE SMOOTH",
"281 297 LINE",
"321 375 LINE",
"346 421 OFFCURVE",
"377 449 OFFCURVE",
"417 449 CURVE SMOOTH",
"442 449 OFFCURVE",
"476 440 OFFCURVE",
"489 428 CURVE",
"494 419 OFFCURVE",
"501 396 OFFCURVE",
"501 380 CURVE SMOOTH",
"501 353 OFFCURVE",
"482 319 OFFCURVE",
"446 319 CURVE SMOOTH",
"422 319 OFFCURVE",
"408 337 OFFCURVE",
"401 348 CURVE SMOOTH",
"395 358 OFFCURVE",
"386 373 OFFCURVE",
"379 373 CURVE SMOOTH",
"368 373 OFFCURVE",
"359 360 OFFCURVE",
"347 340 CURVE SMOOTH",
"295 251 LINE",
"335 118 LINE SMOOTH",
"341 99 OFFCURVE",
"349 78 OFFCURVE",
"366 78 CURVE SMOOTH",
"388 78 OFFCURVE",
"434 133 OFFCURVE",
"437 139 CURVE",
"444 139 OFFCURVE",
"451 118 OFFCURVE",
"451 112 CURVE",
"434 80 OFFCURVE",
"345 -8 OFFCURVE",
"291 -8 CURVE SMOOTH",
"256 -8 OFFCURVE",
"241 24 OFFCURVE",
"229 58 CURVE SMOOTH",
"229 60 OFFCURVE",
"219 96 OFFCURVE",
"205 143 CURVE",
"166 67 LINE",
"141 21 OFFCURVE",
"110 -7 OFFCURVE",
"70 -7 CURVE SMOOTH",
"38 -7 OFFCURVE",
"19 0 OFFCURVE",
"3 11 CURVE",
"-4 17 OFFCURVE",
"-12 37 OFFCURVE",
"-12 59 CURVE SMOOTH",
"-12 86 OFFCURVE",
"5 123 OFFCURVE",
"41 123 CURVE SMOOTH",
"65 123 OFFCURVE",
"79 105 OFFCURVE",
"86 94 CURVE SMOOTH",
"92 85 OFFCURVE",
"101 69 OFFCURVE",
"108 69 CURVE SMOOTH",
"118 69 OFFCURVE",
"128 75 OFFCURVE",
"144 104 CURVE SMOOTH",
"191 189 LINE",
"154 315 LINE SMOOTH",
"151 324 OFFCURVE",
"141 356 OFFCURVE",
"121 356 CURVE SMOOTH",
"106 356 OFFCURVE",
"66 308 OFFCURVE",
"63 302 CURVE",
"56 302 OFFCURVE",
"49 323 OFFCURVE",
"49 329 CURVE",
"67 362 OFFCURVE",
"150 449 OFFCURVE"
);
}
);
width = 511;
}
);
unicode = 0078;
userData = {
com.fontlab.hintData = {
hhints = (
{
position = -8;
width = 86;
},
{
position = -7;
width = 76;
},
{
position = 356;
width = 93;
},
{
position = 373;
width = 76;
}
);
};
};
},
{
glyphname = y;
lastChange = "2017-07-12 19:24:34 +0000";
layers = (
{
layerId = "DEDDD934-E4FE-4A27-B966-8C21F8A9BC34";
paths = (
{
closed = 1;
nodes = (
"129 449 CURVE SMOOTH",
"272 449 OFFCURVE",
"263 87 OFFCURVE",
"263 26 CURVE",
"299 70 OFFCURVE",
"369 195 OFFCURVE",
"369 304 CURVE SMOOTH",
"369 343 OFFCURVE",
"342 372 OFFCURVE",
"327 384 CURVE",
"327 418 OFFCURVE",
"365 449 OFFCURVE",
"394 449 CURVE SMOOTH",
"430 449 OFFCURVE",
"471 426 OFFCURVE",
"471 356 CURVE SMOOTH",
"471 122 OFFCURVE",
"124 -218 OFFCURVE",
"-11 -218 CURVE SMOOTH",
"-47 -218 OFFCURVE",
"-76 -199 OFFCURVE",
"-76 -156 CURVE SMOOTH",
"-76 -139 OFFCURVE",
"-61 -114 OFFCURVE",
"-46 -106 CURVE",
"-31 -115 OFFCURVE",
"15 -138 OFFCURVE",
"53 -138 CURVE SMOOTH",
"115 -138 OFFCURVE",
"131 -106 OFFCURVE",
"133 -100 CURVE SMOOTH",
"143 -69 OFFCURVE",
"142 8 OFFCURVE",
"142 51 CURVE SMOOTH",
"142 165 OFFCURVE",
"120 356 OFFCURVE",
"71 356 CURVE SMOOTH",
"46 356 OFFCURVE",
"16 305 OFFCURVE",
"13 302 CURVE",
"5 303 OFFCURVE",
"-2 326 OFFCURVE",
"-1 329 CURVE",
"10 348 OFFCURVE",
"82 449 OFFCURVE"
);
}
);
width = 501;
}
);
unicode = 0079;
userData = {
com.fontlab.hintData = {
hhints = (
{
position = -218;
width = 80;
},
{
position = 356;
width = 93;
}
);
vhints = (
{
position = 142;
width = 121;
},
{
position = 369;
width = 102;
}
);
};
};
},
{
glyphname = z;
lastChange = "2017-07-12 19:24:34 +0000";
layers = (
{
layerId = "DEDDD934-E4FE-4A27-B966-8C21F8A9BC34";
paths = (
{
closed = 1;
nodes = (
"170 450 CURVE SMOOTH",
"212 450 OFFCURVE",
"238 440 OFFCURVE",
"265 428 CURVE SMOOTH",
"283 420 OFFCURVE",
"309 409 OFFCURVE",
"348 409 CURVE SMOOTH",
"371 409 OFFCURVE",
"402 434 OFFCURVE",
"418 449 CURVE",
"438 449 OFFCURVE",
"438 430 OFFCURVE",
"439 421 CURVE SMOOTH",
"439 407 OFFCURVE",
"135 129 OFFCURVE",
"132 125 CURVE",
"137 127 OFFCURVE",
"161 133 OFFCURVE",
"174 133 CURVE SMOOTH",
"202 133 OFFCURVE",
"229 128 OFFCURVE",
"249 118 CURVE SMOOTH",
"266 110 OFFCURVE",
"293 95 OFFCURVE",
"314 95 CURVE SMOOTH",
"344 95 OFFCURVE",
"364 136 OFFCURVE",
"371 145 CURVE",
"381 145 OFFCURVE",
"388 129 OFFCURVE",
"389 121 CURVE",
"370 82 OFFCURVE",
"306 -3 OFFCURVE",
"253 -3 CURVE SMOOTH",
"211 -3 OFFCURVE",
"185 7 OFFCURVE",
"158 19 CURVE SMOOTH",
"140 27 OFFCURVE",
"114 38 OFFCURVE",
"75 38 CURVE SMOOTH",
"52 38 OFFCURVE",
"21 13 OFFCURVE",
"5 -2 CURVE",
"-15 -2 OFFCURVE",
"-15 17 OFFCURVE",
"-16 26 CURVE",
"-16 42 OFFCURVE",
"289 318 OFFCURVE",
"291 322 CURVE",
"286 320 OFFCURVE",
"262 314 OFFCURVE",
"249 314 CURVE SMOOTH",
"221 314 OFFCURVE",
"194 319 OFFCURVE",
"174 329 CURVE SMOOTH",
"157 337 OFFCURVE",
"130 352 OFFCURVE",
"109 352 CURVE SMOOTH",
"79 352 OFFCURVE",
"59 311 OFFCURVE",
"52 302 CURVE",
"42 302 OFFCURVE",
"35 318 OFFCURVE",
"34 326 CURVE",
"53 365 OFFCURVE",
"117 450 OFFCURVE"
);
}
);
width = 441;
}
);
unicode = 007A;
userData = {
com.fontlab.hintData = {
hhints = (
{
position = -3;
width = 98;
},
{
position = 38;
width = 95;
},
{
position = 314;
width = 95;
},
{
position = 352;
width = 98;
}
);
};
};
},
{
glyphname = T_h;
lastChange = "2017-07-12 19:24:34 +0000";
layers = (
{
layerId = "DEDDD934-E4FE-4A27-B966-8C21F8A9BC34";
paths = (
{
closed = 1;
nodes = (
"639 533 LINE SMOOTH",
"650 589 OFFCURVE",
"622 613 OFFCURVE",
"585 613 CURVE SMOOTH",
"430 613 LINE",
"339 145 LINE SMOOTH",
"331 102 OFFCURVE",
"324 71 OFFCURVE",
"328 51 CURVE SMOOTH",
"330 38 OFFCURVE",
"372 34 OFFCURVE",
"384 33 CURVE",
"387 26 OFFCURVE",
"382 2 OFFCURVE",
"377 -4 CURVE",
"342 0 OFFCURVE",
"285 3 OFFCURVE",
"246 3 CURVE SMOOTH",
"207 3 OFFCURVE",
"150 0 OFFCURVE",
"113 -4 CURVE",
"110 2 OFFCURVE",
"114 26 OFFCURVE",
"120 33 CURVE",
"132 34 OFFCURVE",
"176 38 OFFCURVE",
"183 51 CURVE SMOOTH",
"194 71 OFFCURVE",
"201 102 OFFCURVE",
"209 145 CURVE SMOOTH",
"300 613 LINE",
"213 613 LINE SMOOTH",
"166 613 OFFCURVE",
"111 552 OFFCURVE",
"89 487 CURVE SMOOTH",
"87 483 OFFCURVE",
"84 482 OFFCURVE",
"79 482 CURVE SMOOTH",
"71 482 OFFCURVE",
"56 486 OFFCURVE",
"54 489 CURVE",
"114 673 LINE",
"118 675 OFFCURVE",
"119 676 OFFCURVE",
"126 676 CURVE SMOOTH",
"143 676 OFFCURVE",
"152 657 OFFCURVE",
"219 657 CURVE SMOOTH",
"364 657 LINE SMOOTH",
"520 657 OFFCURVE",
"684 658 OFFCURVE",
"795 701 CURVE",
"800 698 OFFCURVE",
"801 688 OFFCURVE",
"801 682 CURVE SMOOTH",
"801 674 OFFCURVE",
"771 616 OFFCURVE",
"768 602 CURVE SMOOTH",
"768 602 OFFCURVE",
"713 323 OFFCURVE",
"711 314 CURVE SMOOTH",
"708 302 OFFCURVE",
"705 284 OFFCURVE",
"703 274 CURVE",
"733 342 OFFCURVE",
"822 449 OFFCURVE",
"872 449 CURVE SMOOTH",
"928 449 OFFCURVE",
"944 419 OFFCURVE",
"944 362 CURVE SMOOTH",
"944 328 OFFCURVE",
"929 259 OFFCURVE",
"924 233 CURVE SMOOTH",
"905 132 LINE SMOOTH",
"904 128 OFFCURVE",
"901 104 OFFCURVE",
"901 99 CURVE SMOOTH",
"901 90 OFFCURVE",
"905 78 OFFCURVE",
"915 78 CURVE SMOOTH",
"937 78 OFFCURVE",
"983 133 OFFCURVE",
"986 139 CURVE",
"993 139 OFFCURVE",
"1000 118 OFFCURVE",
"1000 112 CURVE",
"983 80 OFFCURVE",
"895 -8 OFFCURVE",
"841 -8 CURVE SMOOTH",
"808 -8 OFFCURVE",
"778 12 OFFCURVE",
"778 63 CURVE SMOOTH",
"778 77 OFFCURVE",
"785 115 OFFCURVE",
"787 123 CURVE",
"810 242 LINE SMOOTH",
"813 254 OFFCURVE",
"822 308 OFFCURVE",
"822 318 CURVE SMOOTH",
"822 328 OFFCURVE",
"817 339 OFFCURVE",
"806 339 CURVE SMOOTH",
"777 339 OFFCURVE",
"699 218 OFFCURVE",
"671 91 CURVE SMOOTH",
"651 0 LINE",
"641 -3 OFFCURVE",
"606 -6 OFFCURVE",
"595 -6 CURVE SMOOTH",
"584 -6 OFFCURVE",
"548 -3 OFFCURVE",
"536 0 CURVE"
);
}
);
width = 1025;
}
);
userData = {
com.fontlab.hintData = {
hhints = (
{
position = -8;
width = 86;
},
{
position = -4;
width = 37;
},
{
position = 339;
width = 110;
},
{
position = 613;
width = 44;
}
);
vhints = (
{
position = 778;
width = 123;
},
{
position = 822;
width = 122;
}
);
};
};
},
{
glyphname = f_b;
lastChange = "2017-07-12 19:24:34 +0000";
layers = (
{
layerId = "DEDDD934-E4FE-4A27-B966-8C21F8A9BC34";
paths = (
{
closed = 1;
nodes = (
"514 336 LINE",
"542 379 OFFCURVE",
"622 449 OFFCURVE",
"670 449 CURVE SMOOTH",
"726 449 OFFCURVE",
"761 410 OFFCURVE",
"761 337 CURVE SMOOTH",
"761 149 OFFCURVE",
"589 -6 OFFCURVE",
"475 -6 CURVE SMOOTH",
"412 -6 OFFCURVE",
"359 38 OFFCURVE",
"359 107 CURVE SMOOTH",
"359 120 OFFCURVE",
"362 148 OFFCURVE",
"365 162 CURVE SMOOTH",
"443 560 LINE SMOOTH",
"444 564 OFFCURVE",
"445 568 OFFCURVE",
"446 572 CURVE",
"429 615 OFFCURVE",
"390 639 OFFCURVE",
"354 639 CURVE SMOOTH",
"302 640 OFFCURVE",
"259 565 OFFCURVE",
"231 424 CURVE",
"331 424 LINE SMOOTH",
"335 424 OFFCURVE",
"336 417 OFFCURVE",
"336 412 CURVE SMOOTH",
"336 402 OFFCURVE",
"330 386 OFFCURVE",
"325 378 CURVE",
"222 378 LINE",
"222 378 OFFCURVE",
"191 184 OFFCURVE",
"167 58 CURVE SMOOTH",
"135 -106 OFFCURVE",
"22 -218 OFFCURVE",
"-58 -218 CURVE SMOOTH",
"-92 -218 OFFCURVE",
"-121 -208 OFFCURVE",
"-132 -200 CURVE",
"-137 -192 OFFCURVE",
"-141 -180 OFFCURVE",
"-141 -167 CURVE SMOOTH",
"-141 -142 OFFCURVE",
"-126 -118 OFFCURVE",
"-103 -118 CURVE SMOOTH",
"-86 -118 OFFCURVE",
"-72 -127 OFFCURVE",
"-61 -142 CURVE SMOOTH",
"-52 -155 OFFCURVE",
"-42 -172 OFFCURVE",
"-24 -172 CURVE SMOOTH",
"15 -172 OFFCURVE",
"20 -105 OFFCURVE",
"51 54 CURVE",
"107 378 LINE",
"42 378 LINE SMOOTH",
"41 378 OFFCURVE",
"40 379 OFFCURVE",
"40 381 CURVE SMOOTH",
"40 391 OFFCURVE",
"65 424 OFFCURVE",
"88 424 CURVE SMOOTH",
"115 424 LINE",
"147 588 OFFCURVE",
"265 683 OFFCURVE",
"381 683 CURVE SMOOTH",
"407 683 OFFCURVE",
"432 678 OFFCURVE",
"453 669 CURVE",
"507 678 OFFCURVE",
"570 691 OFFCURVE",
"595 701 CURVE",
"600 698 OFFCURVE",
"601 688 OFFCURVE",
"601 682 CURVE SMOOTH",
"601 674 OFFCURVE",
"573 626 OFFCURVE",
"568 602 CURVE SMOOTH"
);
},
{
closed = 1;
nodes = (
"604 361 CURVE SMOOTH",
"559 361 OFFCURVE",
"499 255 OFFCURVE",
"482 167 CURVE SMOOTH",
"471 111 OFFCURVE",
"471 39 OFFCURVE",
"507 39 CURVE SMOOTH",
"571 39 OFFCURVE",
"632 206 OFFCURVE",
"632 302 CURVE SMOOTH",
"632 327 OFFCURVE",
"628 361 OFFCURVE"
);
}
);
width = 789;
}
);
userData = {
com.fontlab.hintData = {
hhints = (
{
position = -218;
width = 46;
},
{
position = -6;
width = 45;
},
{
position = 361;
width = 88;
},
{
position = 378;
width = 46;
},
{
position = 639;
width = 44;
}
);
vhints = (
{
position = 632;
width = 129;
}
);
};
};
},
{
glyphname = f_f;
lastChange = "2017-07-12 19:24:34 +0000";
layers = (
{
layerId = "DEDDD934-E4FE-4A27-B966-8C21F8A9BC34";
paths = (
{
closed = 1;
nodes = (
"623 695 CURVE SMOOTH",
"657 695 OFFCURVE",
"686 685 OFFCURVE",
"697 677 CURVE",
"702 669 OFFCURVE",
"706 657 OFFCURVE",
"706 644 CURVE SMOOTH",
"706 619 OFFCURVE",
"691 595 OFFCURVE",
"668 595 CURVE SMOOTH",
"651 595 OFFCURVE",
"637 604 OFFCURVE",
"626 619 CURVE SMOOTH",
"617 632 OFFCURVE",
"607 649 OFFCURVE",
"589 649 CURVE SMOOTH",
"558 649 OFFCURVE",
"542 583 OFFCURVE",
"511 424 CURVE",
"611 424 LINE SMOOTH",
"615 424 OFFCURVE",
"616 417 OFFCURVE",
"616 412 CURVE SMOOTH",
"616 402 OFFCURVE",
"610 386 OFFCURVE",
"605 378 CURVE",
"502 378 LINE",
"502 378 OFFCURVE",
"471 184 OFFCURVE",
"447 58 CURVE SMOOTH",
"415 -106 OFFCURVE",
"302 -218 OFFCURVE",
"222 -218 CURVE SMOOTH",
"188 -218 OFFCURVE",
"159 -208 OFFCURVE",
"148 -200 CURVE",
"143 -192 OFFCURVE",
"139 -180 OFFCURVE",
"139 -167 CURVE SMOOTH",
"139 -142 OFFCURVE",
"154 -118 OFFCURVE",
"177 -118 CURVE SMOOTH",
"194 -118 OFFCURVE",
"208 -127 OFFCURVE",
"219 -142 CURVE SMOOTH",
"228 -155 OFFCURVE",
"238 -172 OFFCURVE",
"256 -172 CURVE SMOOTH",
"295 -172 OFFCURVE",
"300 -105 OFFCURVE",
"331 54 CURVE",
"387 378 LINE",
"222 378 LINE",
"222 378 OFFCURVE",
"191 184 OFFCURVE",
"167 58 CURVE SMOOTH",
"135 -106 OFFCURVE",
"22 -218 OFFCURVE",
"-58 -218 CURVE SMOOTH",
"-92 -218 OFFCURVE",
"-121 -208 OFFCURVE",
"-132 -200 CURVE",
"-137 -192 OFFCURVE",
"-141 -180 OFFCURVE",
"-141 -167 CURVE SMOOTH",
"-141 -142 OFFCURVE",
"-126 -118 OFFCURVE",
"-103 -118 CURVE SMOOTH",
"-86 -118 OFFCURVE",
"-72 -127 OFFCURVE",
"-61 -142 CURVE SMOOTH",
"-52 -155 OFFCURVE",
"-42 -172 OFFCURVE",
"-24 -172 CURVE SMOOTH",
"15 -172 OFFCURVE",
"20 -105 OFFCURVE",
"51 54 CURVE",
"107 378 LINE",
"42 378 LINE SMOOTH",
"41 378 OFFCURVE",
"40 379 OFFCURVE",
"40 381 CURVE SMOOTH",
"40 391 OFFCURVE",
"65 424 OFFCURVE",
"88 424 CURVE SMOOTH",
"115 424 LINE",
"147 588 OFFCURVE",
"265 683 OFFCURVE",
"381 683 CURVE SMOOTH",
"438 683 OFFCURVE",
"488 657 OFFCURVE",
"505 630 CURVE",
"547 672 OFFCURVE",
"592 695 OFFCURVE"
);
},
{
closed = 1;
nodes = (
"395 424 LINE",
"405 476 OFFCURVE",
"425 523 OFFCURVE",
"450 562 CURVE",
"426 611 OFFCURVE",
"392 638 OFFCURVE",
"354 639 CURVE SMOOTH",
"302 640 OFFCURVE",
"259 565 OFFCURVE",
"231 424 CURVE"
);
}
);
width = 598;
}
);
userData = {
com.fontlab.hintData = {
hhints = (
{
position = -218;
width = 46;
},
{
position = -200;
width = 82;
},
{
position = 378;
width = 46;
},
{
position = 639;
width = 44;
},
{
position = 649;
width = 46;
}
);
};
};
},
{
glyphname = f_f_b;
lastChange = "2017-07-12 19:24:34 +0000";
layers = (
{
layerId = "DEDDD934-E4FE-4A27-B966-8C21F8A9BC34";
paths = (
{
closed = 1;
nodes = (
"794 336 LINE",
"822 379 OFFCURVE",
"902 449 OFFCURVE",
"950 449 CURVE SMOOTH",
"1006 449 OFFCURVE",
"1041 410 OFFCURVE",
"1041 337 CURVE SMOOTH",
"1041 149 OFFCURVE",
"869 -6 OFFCURVE",
"755 -6 CURVE SMOOTH",
"692 -6 OFFCURVE",
"639 38 OFFCURVE",
"639 107 CURVE SMOOTH",
"639 120 OFFCURVE",
"642 148 OFFCURVE",
"645 162 CURVE SMOOTH",
"723 560 LINE SMOOTH",
"724 564 OFFCURVE",
"725 568 OFFCURVE",
"726 572 CURVE",
"709 615 OFFCURVE",
"670 639 OFFCURVE",
"634 639 CURVE SMOOTH",
"582 640 OFFCURVE",
"539 565 OFFCURVE",
"511 424 CURVE",
"611 424 LINE SMOOTH",
"615 424 OFFCURVE",
"616 417 OFFCURVE",
"616 412 CURVE SMOOTH",
"616 402 OFFCURVE",
"610 386 OFFCURVE",
"605 378 CURVE",
"502 378 LINE",
"502 378 OFFCURVE",
"471 184 OFFCURVE",
"447 58 CURVE SMOOTH",
"415 -106 OFFCURVE",
"302 -218 OFFCURVE",
"222 -218 CURVE SMOOTH",
"188 -218 OFFCURVE",
"159 -208 OFFCURVE",
"148 -200 CURVE",
"143 -192 OFFCURVE",
"139 -180 OFFCURVE",
"139 -167 CURVE SMOOTH",
"139 -142 OFFCURVE",
"154 -118 OFFCURVE",
"177 -118 CURVE SMOOTH",
"194 -118 OFFCURVE",
"208 -127 OFFCURVE",
"219 -142 CURVE SMOOTH",
"228 -155 OFFCURVE",
"238 -172 OFFCURVE",
"256 -172 CURVE SMOOTH",
"295 -172 OFFCURVE",
"300 -105 OFFCURVE",
"331 54 CURVE",
"387 378 LINE",
"222 378 LINE",
"222 378 OFFCURVE",
"191 184 OFFCURVE",
"167 58 CURVE SMOOTH",
"135 -106 OFFCURVE",
"22 -218 OFFCURVE",
"-58 -218 CURVE SMOOTH",
"-92 -218 OFFCURVE",
"-121 -208 OFFCURVE",
"-132 -200 CURVE",
"-137 -192 OFFCURVE",
"-141 -180 OFFCURVE",
"-141 -167 CURVE SMOOTH",
"-141 -142 OFFCURVE",
"-126 -118 OFFCURVE",
"-103 -118 CURVE SMOOTH",
"-86 -118 OFFCURVE",
"-72 -127 OFFCURVE",
"-61 -142 CURVE SMOOTH",
"-52 -155 OFFCURVE",
"-42 -172 OFFCURVE",
"-24 -172 CURVE SMOOTH",
"15 -172 OFFCURVE",
"20 -105 OFFCURVE",
"51 54 CURVE",
"107 378 LINE",
"42 378 LINE SMOOTH",
"41 378 OFFCURVE",
"40 379 OFFCURVE",
"40 381 CURVE SMOOTH",
"40 391 OFFCURVE",
"65 424 OFFCURVE",
"88 424 CURVE SMOOTH",
"115 424 LINE",
"147 588 OFFCURVE",
"265 683 OFFCURVE",
"381 683 CURVE SMOOTH",
"441 683 OFFCURVE",
"494 653 OFFCURVE",
"508 625 CURVE",
"554 663 OFFCURVE",
"607 683 OFFCURVE",
"661 683 CURVE SMOOTH",
"687 683 OFFCURVE",
"712 678 OFFCURVE",
"733 669 CURVE",
"787 678 OFFCURVE",
"850 691 OFFCURVE",
"875 701 CURVE",
"880 698 OFFCURVE",
"881 688 OFFCURVE",
"881 682 CURVE SMOOTH",
"881 674 OFFCURVE",
"853 626 OFFCURVE",
"848 602 CURVE SMOOTH"
);
},
{
closed = 1;
nodes = (
"884 361 CURVE SMOOTH",
"839 361 OFFCURVE",
"779 255 OFFCURVE",
"762 167 CURVE SMOOTH",
"751 111 OFFCURVE",
"751 39 OFFCURVE",
"787 39 CURVE SMOOTH",
"851 39 OFFCURVE",
"912 206 OFFCURVE",
"912 302 CURVE SMOOTH",
"912 327 OFFCURVE",
"908 361 OFFCURVE"
);
},
{
closed = 1;
nodes = (
"451 561 CURVE",
"427 610 OFFCURVE",
"393 638 OFFCURVE",
"354 639 CURVE SMOOTH",
"302 640 OFFCURVE",
"259 565 OFFCURVE",
"231 424 CURVE",
"395 424 LINE",
"405 477 OFFCURVE",
"425 523 OFFCURVE"
);
}
);
width = 1069;
}
);
userData = {
com.fontlab.hintData = {
hhints = (
{
position = -218;
width = 46;
},
{
position = -200;
width = 82;
},
{
position = -6;
width = 45;
},
{
position = 361;
width = 88;
},
{
position = 378;
width = 46;
},
{
position = 639;
width = 44;
}
);
vhints = (
{
position = 912;
width = 129;
}
);
};
};
},
{
glyphname = f_f_h;
lastChange = "2017-07-12 19:24:34 +0000";
layers = (
{
layerId = "DEDDD934-E4FE-4A27-B966-8C21F8A9BC34";
paths = (
{
closed = 1;
nodes = (
"848 602 CURVE SMOOTH",
"848 602 OFFCURVE",
"793 323 OFFCURVE",
"791 314 CURVE SMOOTH",
"788 302 OFFCURVE",
"785 284 OFFCURVE",
"783 274 CURVE",
"813 342 OFFCURVE",
"902 449 OFFCURVE",
"952 449 CURVE SMOOTH",
"1008 449 OFFCURVE",
"1024 419 OFFCURVE",
"1024 362 CURVE SMOOTH",
"1024 328 OFFCURVE",
"1009 259 OFFCURVE",
"1004 233 CURVE SMOOTH",
"985 132 LINE SMOOTH",
"984 128 OFFCURVE",
"981 104 OFFCURVE",
"981 99 CURVE SMOOTH",
"981 90 OFFCURVE",
"985 78 OFFCURVE",
"995 78 CURVE SMOOTH",
"1017 78 OFFCURVE",
"1063 133 OFFCURVE",
"1066 139 CURVE",
"1073 139 OFFCURVE",
"1080 118 OFFCURVE",
"1080 112 CURVE",
"1063 80 OFFCURVE",
"975 -8 OFFCURVE",
"921 -8 CURVE SMOOTH",
"888 -8 OFFCURVE",
"858 12 OFFCURVE",
"858 63 CURVE SMOOTH",
"858 77 OFFCURVE",
"865 115 OFFCURVE",
"867 123 CURVE SMOOTH",
"890 242 LINE SMOOTH",
"893 254 OFFCURVE",
"902 308 OFFCURVE",
"902 318 CURVE SMOOTH",
"902 328 OFFCURVE",
"897 339 OFFCURVE",
"886 339 CURVE SMOOTH",
"857 339 OFFCURVE",
"779 218 OFFCURVE",
"751 91 CURVE SMOOTH",
"731 0 LINE",
"721 -3 OFFCURVE",
"686 -6 OFFCURVE",
"675 -6 CURVE SMOOTH",
"664 -6 OFFCURVE",
"628 -3 OFFCURVE",
"616 0 CURVE",
"622 31 OFFCURVE",
"722 554 OFFCURVE",
"723 560 CURVE SMOOTH",
"724 564 OFFCURVE",
"725 568 OFFCURVE",
"726 572 CURVE",
"709 615 OFFCURVE",
"670 639 OFFCURVE",
"634 639 CURVE SMOOTH",
"582 640 OFFCURVE",
"539 565 OFFCURVE",
"511 424 CURVE",
"611 424 LINE SMOOTH",
"615 424 OFFCURVE",
"616 417 OFFCURVE",
"616 412 CURVE SMOOTH",
"616 402 OFFCURVE",
"610 386 OFFCURVE",
"605 378 CURVE",
"502 378 LINE",
"502 378 OFFCURVE",
"471 184 OFFCURVE",
"447 58 CURVE SMOOTH",
"415 -106 OFFCURVE",
"302 -218 OFFCURVE",
"222 -218 CURVE SMOOTH",
"188 -218 OFFCURVE",
"159 -208 OFFCURVE",
"148 -200 CURVE",
"143 -192 OFFCURVE",
"139 -180 OFFCURVE",
"139 -167 CURVE SMOOTH",
"139 -142 OFFCURVE",
"154 -118 OFFCURVE",
"177 -118 CURVE SMOOTH",
"194 -118 OFFCURVE",
"208 -127 OFFCURVE",
"219 -142 CURVE SMOOTH",
"228 -155 OFFCURVE",
"238 -172 OFFCURVE",
"256 -172 CURVE SMOOTH",
"295 -172 OFFCURVE",
"300 -105 OFFCURVE",
"331 54 CURVE",
"387 378 LINE",
"222 378 LINE",
"222 378 OFFCURVE",
"191 184 OFFCURVE",
"167 58 CURVE SMOOTH",
"135 -106 OFFCURVE",
"22 -218 OFFCURVE",
"-58 -218 CURVE SMOOTH",
"-92 -218 OFFCURVE",
"-121 -208 OFFCURVE",
"-132 -200 CURVE",
"-137 -192 OFFCURVE",
"-141 -180 OFFCURVE",
"-141 -167 CURVE SMOOTH",
"-141 -142 OFFCURVE",
"-126 -118 OFFCURVE",
"-103 -118 CURVE SMOOTH",
"-86 -118 OFFCURVE",
"-72 -127 OFFCURVE",
"-61 -142 CURVE SMOOTH",
"-52 -155 OFFCURVE",
"-42 -172 OFFCURVE",
"-24 -172 CURVE SMOOTH",
"15 -172 OFFCURVE",
"20 -105 OFFCURVE",
"51 54 CURVE",
"107 378 LINE",
"42 378 LINE SMOOTH",
"41 378 OFFCURVE",
"40 379 OFFCURVE",
"40 381 CURVE SMOOTH",
"40 391 OFFCURVE",
"65 424 OFFCURVE",
"88 424 CURVE SMOOTH",
"115 424 LINE",
"147 588 OFFCURVE",
"265 683 OFFCURVE",
"381 683 CURVE SMOOTH",
"441 683 OFFCURVE",
"494 653 OFFCURVE",
"508 625 CURVE",
"554 663 OFFCURVE",
"607 683 OFFCURVE",
"661 683 CURVE SMOOTH",
"687 683 OFFCURVE",
"712 678 OFFCURVE",
"733 669 CURVE",
"787 678 OFFCURVE",
"849 691 OFFCURVE",
"875 701 CURVE",
"880 698 OFFCURVE",
"881 688 OFFCURVE",
"881 682 CURVE SMOOTH",
"881 674 OFFCURVE",
"851 616 OFFCURVE"
);
},
{
closed = 1;
nodes = (
"451 561 CURVE",
"427 610 OFFCURVE",
"393 638 OFFCURVE",
"354 639 CURVE SMOOTH",
"302 640 OFFCURVE",
"259 565 OFFCURVE",
"231 424 CURVE",
"395 424 LINE",
"405 477 OFFCURVE",
"425 523 OFFCURVE"
);
}
);
width = 1105;
}
);
userData = {
com.fontlab.hintData = {
hhints = (
{
position = -218;
width = 46;
},
{
position = -200;
width = 82;
},
{
position = -8;
width = 86;
},
{
position = 339;
width = 110;
},
{
position = 378;
width = 46;
},
{
position = 639;
width = 44;
}
);
vhints = (
{
position = 858;
width = 123;
},
{
position = 902;
width = 122;
}
);
};
};
},
{
glyphname = f_f_i;
lastChange = "2017-07-12 19:24:34 +0000";
layers = (
{
layerId = "DEDDD934-E4FE-4A27-B966-8C21F8A9BC34";
paths = (
{
closed = 1;
nodes = (
"758 418 CURVE SMOOTH",
"762 418 OFFCURVE",
"782 400 OFFCURVE",
"782 391 CURVE SMOOTH",
"782 353 OFFCURVE",
"750 210 OFFCURVE",
"735 132 CURVE SMOOTH",
"734 128 OFFCURVE",
"731 104 OFFCURVE",
"731 99 CURVE SMOOTH",
"731 90 OFFCURVE",
"735 78 OFFCURVE",
"745 78 CURVE SMOOTH",
"767 78 OFFCURVE",
"813 133 OFFCURVE",
"816 139 CURVE",
"823 139 OFFCURVE",
"830 118 OFFCURVE",
"830 112 CURVE",
"813 80 OFFCURVE",
"725 -8 OFFCURVE",
"671 -8 CURVE SMOOTH",
"638 -8 OFFCURVE",
"608 12 OFFCURVE",
"608 63 CURVE SMOOTH",
"608 77 OFFCURVE",
"615 115 OFFCURVE",
"617 123 CURVE SMOOTH",
"648 279 LINE",
"652 306 OFFCURVE",
"670 369 OFFCURVE",
"610 367 CURVE SMOOTH",
"499 362 LINE",
"499 362 OFFCURVE",
"471 184 OFFCURVE",
"447 58 CURVE SMOOTH",
"415 -106 OFFCURVE",
"302 -218 OFFCURVE",
"222 -218 CURVE SMOOTH",
"188 -218 OFFCURVE",
"159 -208 OFFCURVE",
"148 -200 CURVE",
"143 -192 OFFCURVE",
"139 -180 OFFCURVE",
"139 -167 CURVE SMOOTH",
"139 -142 OFFCURVE",
"154 -118 OFFCURVE",
"177 -118 CURVE SMOOTH",
"194 -118 OFFCURVE",
"208 -127 OFFCURVE",
"219 -142 CURVE SMOOTH",
"228 -155 OFFCURVE",
"238 -172 OFFCURVE",
"256 -172 CURVE SMOOTH",
"295 -172 OFFCURVE",
"300 -105 OFFCURVE",
"331 54 CURVE",
"384 362 LINE",
"219 362 LINE",
"219 362 OFFCURVE",
"191 184 OFFCURVE",
"167 58 CURVE SMOOTH",
"135 -106 OFFCURVE",
"22 -218 OFFCURVE",
"-58 -218 CURVE SMOOTH",
"-92 -218 OFFCURVE",
"-121 -208 OFFCURVE",
"-132 -200 CURVE",
"-137 -192 OFFCURVE",
"-141 -180 OFFCURVE",
"-141 -167 CURVE SMOOTH",
"-141 -142 OFFCURVE",
"-126 -118 OFFCURVE",
"-103 -118 CURVE SMOOTH",
"-86 -118 OFFCURVE",
"-72 -127 OFFCURVE",
"-61 -142 CURVE SMOOTH",
"-52 -155 OFFCURVE",
"-42 -172 OFFCURVE",
"-24 -172 CURVE SMOOTH",
"15 -172 OFFCURVE",
"20 -105 OFFCURVE",
"51 54 CURVE",
"104 362 LINE",
"39 362 LINE SMOOTH",
"38 362 OFFCURVE",
"37 363 OFFCURVE",
"37 365 CURVE SMOOTH",
"37 375 OFFCURVE",
"62 408 OFFCURVE",
"85 408 CURVE SMOOTH",
"112 408 LINE",
"144 591 OFFCURVE",
"265 683 OFFCURVE",
"381 683 CURVE SMOOTH",
"441 683 OFFCURVE",
"492 654 OFFCURVE",
"507 626 CURVE",
"551 662 OFFCURVE",
"604 683 OFFCURVE",
"661 683 CURVE SMOOTH",
"725 683 OFFCURVE",
"774 653 OFFCURVE",
"785 645 CURVE",
"790 637 OFFCURVE",
"794 625 OFFCURVE",
"794 612 CURVE SMOOTH",
"794 587 OFFCURVE",
"787 559 OFFCURVE",
"765 553 CURVE SMOOTH",
"739 545 OFFCURVE",
"710 562 OFFCURVE",
"699 577 CURVE SMOOTH",
"675 612 OFFCURVE",
"684 639 OFFCURVE",
"634 639 CURVE SMOOTH",
"578 639 OFFCURVE",
"533 553 OFFCURVE",
"508 408 CURVE",
"611 410 OFFCURVE",
"665 418 OFFCURVE"
);
},
{
closed = 1;
nodes = (
"392 408 LINE",
"402 467 OFFCURVE",
"422 520 OFFCURVE",
"450 562 CURVE",
"426 611 OFFCURVE",
"392 638 OFFCURVE",
"354 639 CURVE SMOOTH",
"302 640 OFFCURVE",
"256 560 OFFCURVE",
"228 408 CURVE"
);
}
);
width = 858;
}
);
userData = {
com.fontlab.hintData = {
hhints = (
{
position = -218;
width = 46;
},
{
position = -200;
width = 82;
},
{
position = -8;
width = 86;
},
{
position = 362;
width = 46;
},
{
position = 639;
width = 44;
}
);
vhints = (
{
position = 608;
width = 123;
}
);
};
};
},
{
glyphname = f_f_j;
lastChange = "2017-07-12 19:24:34 +0000";
layers = (
{
layerId = "DEDDD934-E4FE-4A27-B966-8C21F8A9BC34";
paths = (
{
closed = 1;
nodes = (
"614 100 CURVE SMOOTH",
"648 279 LINE",
"652 306 OFFCURVE",
"670 369 OFFCURVE",
"610 367 CURVE SMOOTH",
"499 362 LINE",
"499 362 OFFCURVE",
"471 184 OFFCURVE",
"447 58 CURVE SMOOTH",
"415 -106 OFFCURVE",
"302 -218 OFFCURVE",
"222 -218 CURVE SMOOTH",
"188 -218 OFFCURVE",
"159 -208 OFFCURVE",
"148 -200 CURVE",
"143 -192 OFFCURVE",
"139 -180 OFFCURVE",
"139 -167 CURVE SMOOTH",
"139 -142 OFFCURVE",
"154 -118 OFFCURVE",
"177 -118 CURVE SMOOTH",
"194 -118 OFFCURVE",
"208 -127 OFFCURVE",
"219 -142 CURVE SMOOTH",
"228 -155 OFFCURVE",
"238 -172 OFFCURVE",
"256 -172 CURVE SMOOTH",
"295 -172 OFFCURVE",
"300 -105 OFFCURVE",
"331 54 CURVE",
"384 362 LINE",
"219 362 LINE",
"219 362 OFFCURVE",
"191 184 OFFCURVE",
"167 58 CURVE SMOOTH",
"135 -106 OFFCURVE",
"22 -218 OFFCURVE",
"-58 -218 CURVE SMOOTH",
"-92 -218 OFFCURVE",
"-121 -208 OFFCURVE",
"-132 -200 CURVE",
"-137 -192 OFFCURVE",
"-141 -180 OFFCURVE",
"-141 -167 CURVE SMOOTH",
"-141 -142 OFFCURVE",
"-126 -118 OFFCURVE",
"-103 -118 CURVE SMOOTH",
"-86 -118 OFFCURVE",
"-72 -127 OFFCURVE",
"-61 -142 CURVE SMOOTH",
"-52 -155 OFFCURVE",
"-42 -172 OFFCURVE",
"-24 -172 CURVE SMOOTH",
"15 -172 OFFCURVE",
"20 -105 OFFCURVE",
"51 54 CURVE",
"104 362 LINE",
"39 362 LINE SMOOTH",
"38 362 OFFCURVE",
"37 363 OFFCURVE",
"37 365 CURVE SMOOTH",
"37 375 OFFCURVE",
"62 408 OFFCURVE",
"85 408 CURVE SMOOTH",
"112 408 LINE",
"144 591 OFFCURVE",
"265 683 OFFCURVE",
"381 683 CURVE SMOOTH",
"441 683 OFFCURVE",
"492 654 OFFCURVE",
"507 626 CURVE",
"551 662 OFFCURVE",
"604 683 OFFCURVE",
"661 683 CURVE SMOOTH",
"725 683 OFFCURVE",
"774 653 OFFCURVE",
"785 645 CURVE",
"790 637 OFFCURVE",
"794 625 OFFCURVE",
"794 612 CURVE SMOOTH",
"794 587 OFFCURVE",
"787 559 OFFCURVE",
"765 553 CURVE SMOOTH",
"739 545 OFFCURVE",
"710 562 OFFCURVE",
"699 577 CURVE SMOOTH",
"675 612 OFFCURVE",
"684 639 OFFCURVE",
"634 639 CURVE SMOOTH",
"578 639 OFFCURVE",
"533 553 OFFCURVE",
"508 408 CURVE",
"611 410 OFFCURVE",
"665 418 OFFCURVE",
"758 418 CURVE SMOOTH",
"762 418 OFFCURVE",
"785 400 OFFCURVE",
"784 391 CURVE SMOOTH",
"769 297 OFFCURVE",
"763 264 OFFCURVE",
"734 120 CURVE SMOOTH",
"718 36 OFFCURVE",
"688 -20 OFFCURVE",
"647 -75 CURVE SMOOTH",
"604 -132 OFFCURVE",
"487 -210 OFFCURVE",
"459 -218 CURVE",
"454 -218 OFFCURVE",
"450 -205 OFFCURVE",
"450 -196 CURVE",
"555 -115 OFFCURVE",
"585 -49 OFFCURVE"
);
},
{
closed = 1;
nodes = (
"392 408 LINE",
"402 467 OFFCURVE",
"422 520 OFFCURVE",
"450 562 CURVE",
"426 611 OFFCURVE",
"392 638 OFFCURVE",
"354 639 CURVE SMOOTH",
"302 640 OFFCURVE",
"256 560 OFFCURVE",
"228 408 CURVE"
);
}
);
width = 824;
}
);
userData = {
com.fontlab.hintData = {
hhints = (
{
position = -218;
width = 46;
},
{
position = -200;
width = 82;
},
{
position = 362;
width = 46;
},
{
position = 639;
width = 44;
}
);
};
};
},
{
glyphname = f_f_k;
lastChange = "2017-07-12 19:24:34 +0000";
layers = (
{
layerId = "DEDDD934-E4FE-4A27-B966-8C21F8A9BC34";
paths = (
{
closed = 1;
nodes = (
"902 374 CURVE SMOOTH",
"843 374 OFFCURVE",
"780 272 OFFCURVE",
"780 248 CURVE",
"842 248 OFFCURVE",
"930 288 OFFCURVE",
"930 342 CURVE SMOOTH",
"930 352 OFFCURVE",
"925 374 OFFCURVE"
);
},
{
closed = 1;
nodes = (
"977 449 CURVE SMOOTH",
"1035 449 OFFCURVE",
"1059 423 OFFCURVE",
"1059 377 CURVE SMOOTH",
"1059 311 OFFCURVE",
"962 255 OFFCURVE",
"887 230 CURVE",
"904 182 OFFCURVE",
"948 82 OFFCURVE",
"991 82 CURVE SMOOTH",
"1015 82 OFFCURVE",
"1051 127 OFFCURVE",
"1059 138 CURVE",
"1069 138 OFFCURVE",
"1073 117 OFFCURVE",
"1073 112 CURVE",
"1063 85 OFFCURVE",
"982 -4 OFFCURVE",
"922 -4 CURVE SMOOTH",
"845 -4 OFFCURVE",
"793 137 OFFCURVE",
"772 208 CURVE",
"757 133 OFFCURVE",
"731 0 OFFCURVE",
"731 0 CURVE",
"721 -3 OFFCURVE",
"686 -6 OFFCURVE",
"675 -6 CURVE SMOOTH",
"664 -6 OFFCURVE",
"628 -3 OFFCURVE",
"616 0 CURVE",
"622 31 OFFCURVE",
"722 554 OFFCURVE",
"723 560 CURVE SMOOTH",
"724 564 OFFCURVE",
"725 568 OFFCURVE",
"726 572 CURVE",
"709 615 OFFCURVE",
"670 639 OFFCURVE",
"634 639 CURVE SMOOTH",
"582 640 OFFCURVE",
"539 565 OFFCURVE",
"511 424 CURVE",
"611 424 LINE SMOOTH",
"615 424 OFFCURVE",
"616 417 OFFCURVE",
"616 412 CURVE SMOOTH",
"616 402 OFFCURVE",
"610 386 OFFCURVE",
"605 378 CURVE",
"502 378 LINE",
"502 378 OFFCURVE",
"471 184 OFFCURVE",
"447 58 CURVE SMOOTH",
"415 -106 OFFCURVE",
"302 -218 OFFCURVE",
"222 -218 CURVE SMOOTH",
"188 -218 OFFCURVE",
"159 -208 OFFCURVE",
"148 -200 CURVE",
"143 -192 OFFCURVE",
"139 -180 OFFCURVE",
"139 -167 CURVE SMOOTH",
"139 -142 OFFCURVE",
"154 -118 OFFCURVE",
"177 -118 CURVE SMOOTH",
"194 -118 OFFCURVE",
"208 -127 OFFCURVE",
"219 -142 CURVE SMOOTH",
"228 -155 OFFCURVE",
"238 -172 OFFCURVE",
"256 -172 CURVE SMOOTH",
"295 -172 OFFCURVE",
"300 -105 OFFCURVE",
"331 54 CURVE",
"387 378 LINE",
"222 378 LINE",
"222 378 OFFCURVE",
"191 184 OFFCURVE",
"167 58 CURVE SMOOTH",
"135 -106 OFFCURVE",
"22 -218 OFFCURVE",
"-58 -218 CURVE SMOOTH",
"-92 -218 OFFCURVE",
"-121 -208 OFFCURVE",
"-132 -200 CURVE",
"-137 -192 OFFCURVE",
"-141 -180 OFFCURVE",
"-141 -167 CURVE SMOOTH",
"-141 -142 OFFCURVE",
"-126 -118 OFFCURVE",
"-103 -118 CURVE SMOOTH",
"-86 -118 OFFCURVE",
"-72 -127 OFFCURVE",
"-61 -142 CURVE SMOOTH",
"-52 -155 OFFCURVE",
"-42 -172 OFFCURVE",
"-24 -172 CURVE SMOOTH",
"15 -172 OFFCURVE",
"20 -105 OFFCURVE",
"51 54 CURVE",
"107 378 LINE",
"42 378 LINE SMOOTH",
"41 378 OFFCURVE",
"40 379 OFFCURVE",
"40 381 CURVE SMOOTH",
"40 391 OFFCURVE",
"65 424 OFFCURVE",
"88 424 CURVE SMOOTH",
"115 424 LINE",
"147 588 OFFCURVE",
"265 683 OFFCURVE",
"381 683 CURVE SMOOTH",
"441 683 OFFCURVE",
"494 653 OFFCURVE",
"508 625 CURVE",
"554 663 OFFCURVE",
"607 683 OFFCURVE",
"661 683 CURVE SMOOTH",
"687 683 OFFCURVE",
"712 678 OFFCURVE",
"733 669 CURVE",
"784 677 OFFCURVE",
"844 690 OFFCURVE",
"875 701 CURVE",
"880 698 OFFCURVE",
"881 688 OFFCURVE",
"881 682 CURVE SMOOTH",
"881 674 OFFCURVE",
"851 616 OFFCURVE",
"848 602 CURVE SMOOTH",
"799 341 LINE",
"811 367 OFFCURVE",
"893 449 OFFCURVE"
);
},
{
closed = 1;
nodes = (
"451 561 CURVE",
"427 610 OFFCURVE",
"393 638 OFFCURVE",
"354 639 CURVE SMOOTH",
"302 640 OFFCURVE",
"259 565 OFFCURVE",
"231 424 CURVE",
"395 424 LINE",
"405 477 OFFCURVE",
"425 523 OFFCURVE"
);
}
);
width = 1104;
}
);
userData = {
com.fontlab.hintData = {
hhints = (
{
position = -218;
width = 46;
},
{
position = -200;
width = 82;
},
{
position = -4;
width = 86;
},
{
position = 374;
width = 75;
},
{
position = 378;
width = 46;
},
{
position = 639;
width = 44;
}
);
vhints = (
{
position = 930;
width = 129;
}
);
};
};
},
{
glyphname = f_f_l;
lastChange = "2017-07-12 19:24:34 +0000";
layers = (
{
layerId = "DEDDD934-E4FE-4A27-B966-8C21F8A9BC34";
paths = (
{
closed = 1;
nodes = (
"508 625 CURVE",
"554 663 OFFCURVE",
"607 683 OFFCURVE",
"661 683 CURVE SMOOTH",
"687 683 OFFCURVE",
"712 678 OFFCURVE",
"733 669 CURVE",
"794 678 OFFCURVE",
"858 695 OFFCURVE",
"875 701 CURVE",
"880 698 OFFCURVE",
"881 688 OFFCURVE",
"881 682 CURVE SMOOTH",
"881 674 OFFCURVE",
"853 626 OFFCURVE",
"848 602 CURVE SMOOTH",
"756 132 LINE SMOOTH",
"755 126 OFFCURVE",
"752 104 OFFCURVE",
"752 99 CURVE SMOOTH",
"752 90 OFFCURVE",
"756 78 OFFCURVE",
"766 78 CURVE SMOOTH",
"788 78 OFFCURVE",
"834 133 OFFCURVE",
"837 139 CURVE",
"844 139 OFFCURVE",
"851 118 OFFCURVE",
"851 112 CURVE",
"834 80 OFFCURVE",
"746 -8 OFFCURVE",
"692 -8 CURVE SMOOTH",
"659 -8 OFFCURVE",
"629 12 OFFCURVE",
"629 63 CURVE SMOOTH",
"629 77 OFFCURVE",
"636 115 OFFCURVE",
"638 123 CURVE SMOOTH",
"723 560 LINE SMOOTH",
"724 564 OFFCURVE",
"724 569 OFFCURVE",
"725 573 CURVE",
"707 615 OFFCURVE",
"670 639 OFFCURVE",
"634 639 CURVE SMOOTH",
"582 640 OFFCURVE",
"539 565 OFFCURVE",
"511 424 CURVE",
"611 424 LINE SMOOTH",
"615 424 OFFCURVE",
"616 417 OFFCURVE",
"616 412 CURVE SMOOTH",
"616 402 OFFCURVE",
"610 386 OFFCURVE",
"605 378 CURVE",
"502 378 LINE",
"502 378 OFFCURVE",
"471 184 OFFCURVE",
"447 58 CURVE SMOOTH",
"415 -106 OFFCURVE",
"302 -218 OFFCURVE",
"222 -218 CURVE SMOOTH",
"188 -218 OFFCURVE",
"159 -208 OFFCURVE",
"148 -200 CURVE",
"143 -192 OFFCURVE",
"139 -180 OFFCURVE",
"139 -167 CURVE SMOOTH",
"139 -142 OFFCURVE",
"154 -118 OFFCURVE",
"177 -118 CURVE SMOOTH",
"194 -118 OFFCURVE",
"208 -127 OFFCURVE",
"219 -142 CURVE SMOOTH",
"228 -155 OFFCURVE",
"238 -172 OFFCURVE",
"256 -172 CURVE SMOOTH",
"295 -172 OFFCURVE",
"300 -105 OFFCURVE",
"331 54 CURVE",
"387 378 LINE",
"222 378 LINE",
"222 378 OFFCURVE",
"191 184 OFFCURVE",
"167 58 CURVE SMOOTH",
"135 -106 OFFCURVE",
"22 -218 OFFCURVE",
"-58 -218 CURVE SMOOTH",
"-92 -218 OFFCURVE",
"-121 -208 OFFCURVE",
"-132 -200 CURVE",
"-137 -192 OFFCURVE",
"-141 -180 OFFCURVE",
"-141 -167 CURVE SMOOTH",
"-141 -142 OFFCURVE",
"-126 -118 OFFCURVE",
"-103 -118 CURVE SMOOTH",
"-86 -118 OFFCURVE",
"-72 -127 OFFCURVE",
"-61 -142 CURVE SMOOTH",
"-52 -155 OFFCURVE",
"-42 -172 OFFCURVE",
"-24 -172 CURVE SMOOTH",
"15 -172 OFFCURVE",
"20 -105 OFFCURVE",
"51 54 CURVE",
"107 378 LINE",
"42 378 LINE SMOOTH",
"41 378 OFFCURVE",
"40 379 OFFCURVE",
"40 381 CURVE SMOOTH",
"40 391 OFFCURVE",
"65 424 OFFCURVE",
"88 424 CURVE SMOOTH",
"115 424 LINE",
"147 588 OFFCURVE",
"265 683 OFFCURVE",
"381 683 CURVE SMOOTH",
"441 683 OFFCURVE",
"494 653 OFFCURVE"
);
},
{
closed = 1;
nodes = (
"451 561 CURVE",
"427 610 OFFCURVE",
"393 638 OFFCURVE",
"354 639 CURVE SMOOTH",
"302 640 OFFCURVE",
"259 565 OFFCURVE",
"231 424 CURVE",
"395 424 LINE",
"405 477 OFFCURVE",
"425 523 OFFCURVE"
);
}
);
width = 881;
}
);
userData = {
com.fontlab.hintData = {
hhints = (
{
position = -218;
width = 46;
},
{
position = -200;
width = 82;
},
{
position = -8;
width = 86;
},
{
position = 378;
width = 46;
},
{
position = 639;
width = 44;
}
);
vhints = (
{
position = 629;
width = 123;
}
);
};
};
},
{
glyphname = f_h;
lastChange = "2017-07-12 19:24:34 +0000";
layers = (
{
layerId = "DEDDD934-E4FE-4A27-B966-8C21F8A9BC34";
paths = (
{
closed = 1;
nodes = (
"568 602 CURVE SMOOTH",
"568 602 OFFCURVE",
"513 323 OFFCURVE",
"511 314 CURVE SMOOTH",
"508 302 OFFCURVE",
"505 284 OFFCURVE",
"503 274 CURVE",
"533 342 OFFCURVE",
"622 449 OFFCURVE",
"672 449 CURVE SMOOTH",
"728 449 OFFCURVE",
"744 419 OFFCURVE",
"744 362 CURVE SMOOTH",
"744 328 OFFCURVE",
"729 259 OFFCURVE",
"724 233 CURVE SMOOTH",
"705 132 LINE SMOOTH",
"704 128 OFFCURVE",
"701 104 OFFCURVE",
"701 99 CURVE SMOOTH",
"701 90 OFFCURVE",
"705 78 OFFCURVE",
"715 78 CURVE SMOOTH",
"737 78 OFFCURVE",
"783 133 OFFCURVE",
"786 139 CURVE",
"793 139 OFFCURVE",
"800 118 OFFCURVE",
"800 112 CURVE",
"783 80 OFFCURVE",
"695 -8 OFFCURVE",
"641 -8 CURVE SMOOTH",
"608 -8 OFFCURVE",
"578 12 OFFCURVE",
"578 63 CURVE SMOOTH",
"578 77 OFFCURVE",
"585 115 OFFCURVE",
"587 123 CURVE SMOOTH",
"610 242 LINE SMOOTH",
"613 254 OFFCURVE",
"622 308 OFFCURVE",
"622 318 CURVE SMOOTH",
"622 328 OFFCURVE",
"617 339 OFFCURVE",
"606 339 CURVE SMOOTH",
"577 339 OFFCURVE",
"499 218 OFFCURVE",
"471 91 CURVE SMOOTH",
"451 0 LINE",
"441 -3 OFFCURVE",
"406 -6 OFFCURVE",
"395 -6 CURVE SMOOTH",
"384 -6 OFFCURVE",
"348 -3 OFFCURVE",
"336 0 CURVE",
"342 31 OFFCURVE",
"442 554 OFFCURVE",
"443 560 CURVE SMOOTH",
"444 564 OFFCURVE",
"445 568 OFFCURVE",
"446 572 CURVE",
"429 615 OFFCURVE",
"390 639 OFFCURVE",
"354 639 CURVE SMOOTH",
"302 640 OFFCURVE",
"259 565 OFFCURVE",
"231 424 CURVE",
"331 424 LINE SMOOTH",
"335 424 OFFCURVE",
"336 417 OFFCURVE",
"336 412 CURVE SMOOTH",
"336 402 OFFCURVE",
"330 386 OFFCURVE",
"325 378 CURVE",
"222 378 LINE",
"222 378 OFFCURVE",
"191 184 OFFCURVE",
"167 58 CURVE SMOOTH",
"135 -106 OFFCURVE",
"22 -218 OFFCURVE",
"-58 -218 CURVE SMOOTH",
"-92 -218 OFFCURVE",
"-121 -208 OFFCURVE",
"-132 -200 CURVE",
"-137 -192 OFFCURVE",
"-141 -180 OFFCURVE",
"-141 -167 CURVE SMOOTH",
"-141 -142 OFFCURVE",
"-126 -118 OFFCURVE",
"-103 -118 CURVE SMOOTH",
"-86 -118 OFFCURVE",
"-72 -127 OFFCURVE",
"-61 -142 CURVE SMOOTH",
"-52 -155 OFFCURVE",
"-42 -172 OFFCURVE",
"-24 -172 CURVE SMOOTH",
"15 -172 OFFCURVE",
"20 -105 OFFCURVE",
"51 54 CURVE",
"107 378 LINE",
"42 378 LINE SMOOTH",
"41 378 OFFCURVE",
"40 379 OFFCURVE",
"40 381 CURVE SMOOTH",
"40 391 OFFCURVE",
"65 424 OFFCURVE",
"88 424 CURVE SMOOTH",
"115 424 LINE",
"147 588 OFFCURVE",
"265 683 OFFCURVE",
"381 683 CURVE SMOOTH",
"407 683 OFFCURVE",
"432 678 OFFCURVE",
"453 669 CURVE",
"507 678 OFFCURVE",
"569 691 OFFCURVE",
"595 701 CURVE",
"600 698 OFFCURVE",
"601 688 OFFCURVE",
"601 682 CURVE SMOOTH",
"601 674 OFFCURVE",
"571 616 OFFCURVE"
);
}
);
width = 825;
}
);
userData = {
com.fontlab.hintData = {
hhints = (
{
position = -218;
width = 46;
},
{
position = -8;
width = 86;
},
{
position = 339;
width = 110;
},
{
position = 378;
width = 46;
},
{
position = 639;
width = 44;
}
);
vhints = (
{
position = 578;
width = 123;
},
{
position = 622;
width = 122;
}
);
};
};
},
{
glyphname = f_i;
lastChange = "2017-07-12 19:24:34 +0000";
layers = (
{
layerId = "DEDDD934-E4FE-4A27-B966-8C21F8A9BC34";
paths = (
{
closed = 1;
nodes = (
"478 418 CURVE SMOOTH",
"482 418 OFFCURVE",
"502 400 OFFCURVE",
"502 391 CURVE SMOOTH",
"502 353 OFFCURVE",
"470 210 OFFCURVE",
"455 132 CURVE SMOOTH",
"454 128 OFFCURVE",
"451 104 OFFCURVE",
"451 99 CURVE SMOOTH",
"451 90 OFFCURVE",
"455 78 OFFCURVE",
"465 78 CURVE SMOOTH",
"487 78 OFFCURVE",
"533 133 OFFCURVE",
"536 139 CURVE",
"543 139 OFFCURVE",
"550 118 OFFCURVE",
"550 112 CURVE",
"533 80 OFFCURVE",
"445 -8 OFFCURVE",
"391 -8 CURVE SMOOTH",
"358 -8 OFFCURVE",
"328 12 OFFCURVE",
"328 63 CURVE SMOOTH",
"328 77 OFFCURVE",
"335 115 OFFCURVE",
"337 123 CURVE",
"368 279 LINE",
"372 306 OFFCURVE",
"390 369 OFFCURVE",
"330 367 CURVE SMOOTH",
"219 362 LINE",
"219 362 OFFCURVE",
"191 184 OFFCURVE",
"167 58 CURVE SMOOTH",
"135 -106 OFFCURVE",
"22 -218 OFFCURVE",
"-58 -218 CURVE SMOOTH",
"-92 -218 OFFCURVE",
"-121 -208 OFFCURVE",
"-132 -200 CURVE",
"-137 -192 OFFCURVE",
"-141 -180 OFFCURVE",
"-141 -167 CURVE SMOOTH",
"-141 -142 OFFCURVE",
"-126 -118 OFFCURVE",
"-103 -118 CURVE SMOOTH",
"-86 -118 OFFCURVE",
"-72 -127 OFFCURVE",
"-61 -142 CURVE SMOOTH",
"-52 -155 OFFCURVE",
"-42 -172 OFFCURVE",
"-24 -172 CURVE SMOOTH",
"15 -172 OFFCURVE",
"20 -105 OFFCURVE",
"51 54 CURVE",
"104 362 LINE",
"39 362 LINE SMOOTH",
"38 362 OFFCURVE",
"37 363 OFFCURVE",
"37 365 CURVE SMOOTH",
"37 375 OFFCURVE",
"62 408 OFFCURVE",
"85 408 CURVE SMOOTH",
"112 408 LINE",
"139 572 OFFCURVE",
"249 682 OFFCURVE",
"381 683 CURVE SMOOTH",
"445 683 OFFCURVE",
"494 653 OFFCURVE",
"505 645 CURVE",
"510 637 OFFCURVE",
"514 625 OFFCURVE",
"514 612 CURVE SMOOTH",
"514 587 OFFCURVE",
"507 559 OFFCURVE",
"485 553 CURVE SMOOTH",
"459 545 OFFCURVE",
"430 562 OFFCURVE",
"419 577 CURVE SMOOTH",
"395 612 OFFCURVE",
"404 639 OFFCURVE",
"354 639 CURVE SMOOTH",
"298 639 OFFCURVE",
"253 553 OFFCURVE",
"228 408 CURVE",
"331 410 OFFCURVE",
"385 418 OFFCURVE"
);
}
);
width = 578;
}
);
userData = {
com.fontlab.hintData = {
hhints = (
{
position = -218;
width = 46;
},
{
position = -8;
width = 86;
},
{
position = 362;
width = 46;
},
{
position = 639;
width = 44;
}
);
vhints = (
{
position = 328;
width = 123;
}
);
};
};
},
{
glyphname = f_j;
lastChange = "2017-07-12 19:24:34 +0000";
layers = (
{
layerId = "DEDDD934-E4FE-4A27-B966-8C21F8A9BC34";
paths = (
{
closed = 1;
nodes = (
"334 100 CURVE SMOOTH",
"368 279 LINE SMOOTH",
"372 306 OFFCURVE",
"390 369 OFFCURVE",
"330 367 CURVE SMOOTH",
"219 362 LINE",
"219 362 OFFCURVE",
"191 184 OFFCURVE",
"167 58 CURVE SMOOTH",
"135 -106 OFFCURVE",
"22 -218 OFFCURVE",
"-58 -218 CURVE SMOOTH",
"-92 -218 OFFCURVE",
"-121 -208 OFFCURVE",
"-132 -200 CURVE",
"-137 -192 OFFCURVE",
"-141 -180 OFFCURVE",
"-141 -167 CURVE SMOOTH",
"-141 -142 OFFCURVE",
"-126 -118 OFFCURVE",
"-103 -118 CURVE SMOOTH",
"-86 -118 OFFCURVE",
"-72 -127 OFFCURVE",
"-61 -142 CURVE SMOOTH",
"-52 -155 OFFCURVE",
"-42 -172 OFFCURVE",
"-24 -172 CURVE SMOOTH",
"15 -172 OFFCURVE",
"20 -105 OFFCURVE",
"51 54 CURVE",
"104 362 LINE",
"39 362 LINE SMOOTH",
"38 362 OFFCURVE",
"37 363 OFFCURVE",
"37 365 CURVE SMOOTH",
"37 375 OFFCURVE",
"62 408 OFFCURVE",
"85 408 CURVE SMOOTH",
"112 408 LINE",
"139 572 OFFCURVE",
"249 682 OFFCURVE",
"381 683 CURVE SMOOTH",
"445 683 OFFCURVE",
"494 653 OFFCURVE",
"505 645 CURVE",
"510 637 OFFCURVE",
"514 625 OFFCURVE",
"514 612 CURVE SMOOTH",
"514 587 OFFCURVE",
"507 559 OFFCURVE",
"485 553 CURVE SMOOTH",
"459 545 OFFCURVE",
"430 562 OFFCURVE",
"419 577 CURVE SMOOTH",
"395 612 OFFCURVE",
"404 639 OFFCURVE",
"354 639 CURVE SMOOTH",
"298 639 OFFCURVE",
"253 553 OFFCURVE",
"228 408 CURVE",
"331 410 OFFCURVE",
"385 418 OFFCURVE",
"478 418 CURVE SMOOTH",
"482 418 OFFCURVE",
"505 400 OFFCURVE",
"504 391 CURVE SMOOTH",
"489 297 OFFCURVE",
"483 264 OFFCURVE",
"454 120 CURVE SMOOTH",
"438 36 OFFCURVE",
"408 -20 OFFCURVE",
"367 -75 CURVE SMOOTH",
"324 -132 OFFCURVE",
"207 -210 OFFCURVE",
"179 -218 CURVE",
"174 -218 OFFCURVE",
"170 -205 OFFCURVE",
"170 -196 CURVE",
"275 -115 OFFCURVE",
"305 -49 OFFCURVE"
);
}
);
width = 544;
}
);
userData = {
com.fontlab.hintData = {
hhints = (
{
position = -218;
width = 46;
},
{
position = -218;
width = 22;
},
{
position = 362;
width = 46;
},
{
position = 639;
width = 44;
}
);
};
};
},
{
glyphname = f_k;
lastChange = "2017-07-12 19:24:34 +0000";
layers = (
{
layerId = "DEDDD934-E4FE-4A27-B966-8C21F8A9BC34";
paths = (
{
closed = 1;
nodes = (
"622 374 CURVE SMOOTH",
"563 374 OFFCURVE",
"500 272 OFFCURVE",
"500 248 CURVE",
"562 248 OFFCURVE",
"650 288 OFFCURVE",
"650 342 CURVE SMOOTH",
"650 352 OFFCURVE",
"645 374 OFFCURVE"
);
},
{
closed = 1;
nodes = (
"697 449 CURVE SMOOTH",
"755 449 OFFCURVE",
"779 423 OFFCURVE",
"779 377 CURVE SMOOTH",
"779 311 OFFCURVE",
"682 255 OFFCURVE",
"607 230 CURVE",
"624 182 OFFCURVE",
"668 82 OFFCURVE",
"711 82 CURVE SMOOTH",
"735 82 OFFCURVE",
"771 127 OFFCURVE",
"779 138 CURVE",
"789 138 OFFCURVE",
"793 117 OFFCURVE",
"793 112 CURVE",
"783 85 OFFCURVE",
"702 -4 OFFCURVE",
"642 -4 CURVE SMOOTH",
"565 -4 OFFCURVE",
"513 137 OFFCURVE",
"492 208 CURVE",
"477 133 OFFCURVE",
"451 0 OFFCURVE",
"451 0 CURVE",
"441 -3 OFFCURVE",
"406 -6 OFFCURVE",
"395 -6 CURVE SMOOTH",
"384 -6 OFFCURVE",
"348 -3 OFFCURVE",
"336 0 CURVE",
"342 31 OFFCURVE",
"442 554 OFFCURVE",
"443 560 CURVE SMOOTH",
"444 564 OFFCURVE",
"445 568 OFFCURVE",
"446 572 CURVE",
"429 615 OFFCURVE",
"390 639 OFFCURVE",
"354 639 CURVE SMOOTH",
"302 640 OFFCURVE",
"259 565 OFFCURVE",
"231 424 CURVE",
"331 424 LINE SMOOTH",
"335 424 OFFCURVE",
"336 417 OFFCURVE",
"336 412 CURVE SMOOTH",
"336 402 OFFCURVE",
"330 386 OFFCURVE",
"325 378 CURVE",
"222 378 LINE",
"222 378 OFFCURVE",
"191 184 OFFCURVE",
"167 58 CURVE SMOOTH",
"135 -106 OFFCURVE",
"22 -218 OFFCURVE",
"-58 -218 CURVE SMOOTH",
"-92 -218 OFFCURVE",
"-121 -208 OFFCURVE",
"-132 -200 CURVE",
"-137 -192 OFFCURVE",
"-141 -180 OFFCURVE",
"-141 -167 CURVE SMOOTH",
"-141 -142 OFFCURVE",
"-126 -118 OFFCURVE",
"-103 -118 CURVE SMOOTH",
"-86 -118 OFFCURVE",
"-72 -127 OFFCURVE",
"-61 -142 CURVE SMOOTH",
"-52 -155 OFFCURVE",
"-42 -172 OFFCURVE",
"-24 -172 CURVE SMOOTH",
"15 -172 OFFCURVE",
"20 -105 OFFCURVE",
"51 54 CURVE",
"107 378 LINE",
"42 378 LINE SMOOTH",
"41 378 OFFCURVE",
"40 379 OFFCURVE",
"40 381 CURVE SMOOTH",
"40 391 OFFCURVE",
"65 424 OFFCURVE",
"88 424 CURVE SMOOTH",
"115 424 LINE",
"147 588 OFFCURVE",
"265 683 OFFCURVE",
"381 683 CURVE SMOOTH",
"407 683 OFFCURVE",
"432 678 OFFCURVE",
"453 669 CURVE",
"504 677 OFFCURVE",
"564 690 OFFCURVE",
"595 701 CURVE",
"600 698 OFFCURVE",
"601 688 OFFCURVE",
"601 682 CURVE SMOOTH",
"601 674 OFFCURVE",
"571 616 OFFCURVE",
"568 602 CURVE SMOOTH",
"519 341 LINE",
"531 367 OFFCURVE",
"613 449 OFFCURVE"
);
}
);
width = 824;
}
);
userData = {
com.fontlab.hintData = {
hhints = (
{
position = -218;
width = 46;
},
{
position = -4;
width = 86;
},
{
position = 374;
width = 75;
},
{
position = 378;
width = 46;
},
{
position = 639;
width = 44;
}
);
vhints = (
{
position = 650;
width = 129;
}
);
};
};
},
{
glyphname = f_l;
lastChange = "2017-07-12 19:24:34 +0000";
layers = (
{
layerId = "DEDDD934-E4FE-4A27-B966-8C21F8A9BC34";
paths = (
{
closed = 1;
nodes = (
"445 573 CURVE",
"427 615 OFFCURVE",
"390 639 OFFCURVE",
"354 639 CURVE SMOOTH",
"302 640 OFFCURVE",
"259 565 OFFCURVE",
"231 424 CURVE",
"331 424 LINE SMOOTH",
"335 424 OFFCURVE",
"336 417 OFFCURVE",
"336 412 CURVE SMOOTH",
"336 402 OFFCURVE",
"330 386 OFFCURVE",
"325 378 CURVE",
"222 378 LINE",
"222 378 OFFCURVE",
"191 184 OFFCURVE",
"167 58 CURVE SMOOTH",
"135 -106 OFFCURVE",
"22 -218 OFFCURVE",
"-58 -218 CURVE SMOOTH",
"-92 -218 OFFCURVE",
"-121 -208 OFFCURVE",
"-132 -200 CURVE",
"-137 -192 OFFCURVE",
"-141 -180 OFFCURVE",
"-141 -167 CURVE SMOOTH",
"-141 -142 OFFCURVE",
"-126 -118 OFFCURVE",
"-103 -118 CURVE SMOOTH",
"-86 -118 OFFCURVE",
"-72 -127 OFFCURVE",
"-61 -142 CURVE SMOOTH",
"-52 -155 OFFCURVE",
"-42 -172 OFFCURVE",
"-24 -172 CURVE SMOOTH",
"15 -172 OFFCURVE",
"20 -105 OFFCURVE",
"51 54 CURVE",
"107 378 LINE",
"42 378 LINE SMOOTH",
"41 378 OFFCURVE",
"40 379 OFFCURVE",
"40 381 CURVE SMOOTH",
"40 391 OFFCURVE",
"65 424 OFFCURVE",
"88 424 CURVE SMOOTH",
"115 424 LINE",
"147 588 OFFCURVE",
"265 683 OFFCURVE",
"381 683 CURVE SMOOTH",
"407 683 OFFCURVE",
"432 678 OFFCURVE",
"453 669 CURVE",
"514 678 OFFCURVE",
"578 695 OFFCURVE",
"595 701 CURVE",
"600 698 OFFCURVE",
"601 688 OFFCURVE",
"601 682 CURVE SMOOTH",
"601 674 OFFCURVE",
"573 626 OFFCURVE",
"568 602 CURVE SMOOTH",
"476 132 LINE SMOOTH",
"475 126 OFFCURVE",
"472 104 OFFCURVE",
"472 99 CURVE SMOOTH",
"472 90 OFFCURVE",
"476 78 OFFCURVE",
"486 78 CURVE SMOOTH",
"508 78 OFFCURVE",
"554 133 OFFCURVE",
"557 139 CURVE",
"564 139 OFFCURVE",
"571 118 OFFCURVE",
"571 112 CURVE",
"554 80 OFFCURVE",
"466 -8 OFFCURVE",
"412 -8 CURVE SMOOTH",
"379 -8 OFFCURVE",
"349 12 OFFCURVE",
"349 63 CURVE SMOOTH",
"349 77 OFFCURVE",
"356 115 OFFCURVE",
"358 123 CURVE SMOOTH",
"443 560 LINE SMOOTH",
"444 564 OFFCURVE",
"444 569 OFFCURVE"
);
}
);
width = 601;
}
);
userData = {
com.fontlab.hintData = {
hhints = (
{
position = -218;
width = 46;
},
{
position = -8;
width = 86;
},
{
position = 378;
width = 46;
},
{
position = 639;
width = 44;
}
);
vhints = (
{
position = 349;
width = 123;
}
);
};
};
},
{
glyphname = ordfeminine;
lastChange = "2017-07-12 19:24:34 +0000";
layers = (
{
layerId = "DEDDD934-E4FE-4A27-B966-8C21F8A9BC34";
paths = (
{
closed = 1;
nodes = (
"266 246 CURVE SMOOTH",
"241 246 OFFCURVE",
"219 257 OFFCURVE",
"219 287 CURVE SMOOTH",
"219 290 OFFCURVE",
"220 296 OFFCURVE",
"221 301 CURVE SMOOTH",
"222 306 OFFCURVE",
"222 310 OFFCURVE",
"223 313 CURVE",
"208 288 OFFCURVE",
"162 247 OFFCURVE",
"118 247 CURVE SMOOTH",
"77 247 OFFCURVE",
"55 283 OFFCURVE",
"55 329 CURVE SMOOTH",
"55 450 OFFCURVE",
"188 554 OFFCURVE",
"280 554 CURVE SMOOTH",
"307 554 OFFCURVE",
"344 547 OFFCURVE",
"358 542 CURVE",
"314 349 LINE SMOOTH",
"314 346 OFFCURVE",
"311 330 OFFCURVE",
"311 327 CURVE SMOOTH",
"311 321 OFFCURVE",
"314 313 OFFCURVE",
"322 313 CURVE SMOOTH",
"338 313 OFFCURVE",
"372 350 OFFCURVE",
"374 354 CURVE",
"379 351 OFFCURVE",
"384 336 OFFCURVE",
"382 327 CURVE",
"370 305 OFFCURVE",
"306 246 OFFCURVE"
);
},
{
closed = 1;
nodes = (
"237 510 CURVE SMOOTH",
"187 510 OFFCURVE",
"147 434 OFFCURVE",
"147 354 CURVE SMOOTH",
"147 322 OFFCURVE",
"157 306 OFFCURVE",
"173 306 CURVE SMOOTH",
"198 306 OFFCURVE",
"234 374 OFFCURVE",
"249 441 CURVE SMOOTH",
"263 502 LINE",
"258 507 OFFCURVE",
"247 510 OFFCURVE"
);
}
);
width = 399;
}
);
unicode = 00AA;
userData = {
com.fontlab.hintData = {
hhints = (
{
position = 247;
width = 59;
},
{
position = 510;
width = 44;
}
);
vhints = (
{
position = 55;
width = 92;
}
);
};
};
},
{
glyphname = ordmasculine;
lastChange = "2017-07-12 19:24:34 +0000";
layers = (
{
layerId = "DEDDD934-E4FE-4A27-B966-8C21F8A9BC34";
paths = (
{
closed = 1;
nodes = (
"237 523 CURVE SMOOTH",
"183 523 OFFCURVE",
"149 411 OFFCURVE",
"149 338 CURVE SMOOTH",
"149 322 OFFCURVE",
"151 281 OFFCURVE",
"174 281 CURVE SMOOTH",
"228 281 OFFCURVE",
"261 394 OFFCURVE",
"261 462 CURVE SMOOTH",
"261 484 OFFCURVE",
"257 523 OFFCURVE"
);
},
{
closed = 1;
nodes = (
"245 552 CURVE SMOOTH",
"305 552 OFFCURVE",
"353 531 OFFCURVE",
"353 452 CURVE SMOOTH",
"353 357 OFFCURVE",
"249 251 OFFCURVE",
"162 251 CURVE SMOOTH",
"102 251 OFFCURVE",
"57 285 OFFCURVE",
"57 349 CURVE SMOOTH",
"57 444 OFFCURVE",
"158 552 OFFCURVE"
);
}
);
width = 358;
}
);
unicode = 00BA;
userData = {
com.fontlab.hintData = {
hhints = (
{
position = 251;
width = 30;
},
{
position = 523;
width = 29;
}
);
vhints = (
{
position = 57;
width = 92;
},
{
position = 261;
width = 92;
}
);
};
};
},
{
glyphname = zero;
lastChange = "2017-07-12 19:24:34 +0000";
layers = (
{
layerId = "DEDDD934-E4FE-4A27-B966-8C21F8A9BC34";
paths = (
{
closed = 1;
nodes = (
"208.132 152 CURVE SMOOTH",
"208.132 93 OFFCURVE",
"220.132 33 OFFCURVE",
"252.132 33 CURVE SMOOTH",
"313.132 33 OFFCURVE",
"397.132 239 OFFCURVE",
"397.132 462 CURVE SMOOTH",
"397.132 494 OFFCURVE",
"396.132 604 OFFCURVE",
"353.132 604 CURVE SMOOTH",
"290.132 604 OFFCURVE",
"208.132 398 OFFCURVE"
);
},
{
closed = 1;
nodes = (
"84.132 295 CURVE SMOOTH",
"122.132 488 OFFCURVE",
"256.132 642 OFFCURVE",
"364.132 642 CURVE SMOOTH",
"494.132 642 OFFCURVE",
"552.132 503 OFFCURVE",
"519.132 334 CURVE SMOOTH",
"486.132 165 OFFCURVE",
"359.132 -5 OFFCURVE",
"235.132 -5 CURVE SMOOTH",
"122.132 -5 OFFCURVE",
"51.132 126 OFFCURVE"
);
}
);
width = 481;
}
);
unicode = 0030;
userData = {
com.fontlab.hintData = {
hhints = (
{
position = -5;
width = 38;
},
{
position = 604;
width = 38;
}
);
};
};
},
{
glyphname = one;
lastChange = "2017-07-12 19:24:34 +0000";
layers = (
{
layerId = "DEDDD934-E4FE-4A27-B966-8C21F8A9BC34";
paths = (
{
closed = 1;
nodes = (
"205.631 479 CURVE",
"198.631 483 OFFCURVE",
"195.631 495 OFFCURVE",
"195.631 502 CURVE SMOOTH",
"195.631 504 OFFCURVE",
"196.631 507 OFFCURVE",
"199.631 510 CURVE",
"301.631 565 OFFCURVE",
"380.631 609 OFFCURVE",
"431.631 642 CURVE",
"433.631 642 LINE SMOOTH",
"438.631 642 OFFCURVE",
"443.631 619 OFFCURVE",
"441.631 606 CURVE",
"441.631 606 OFFCURVE",
"413.631 550 OFFCURVE",
"392.631 439 CURVE SMOOTH",
"336.631 135 LINE SMOOTH",
"330.631 102 OFFCURVE",
"325.631 73 OFFCURVE",
"326.631 46 CURVE SMOOTH",
"327.631 35 OFFCURVE",
"377.631 26 OFFCURVE",
"384.631 26 CURVE SMOOTH",
"387.631 26 OFFCURVE",
"385.631 15 OFFCURVE",
"384.631 8 CURVE SMOOTH",
"383.631 3 OFFCURVE",
"382.631 -1 OFFCURVE",
"381.631 -3 CURVE",
"344.631 -1 OFFCURVE",
"260.631 2 OFFCURVE",
"223.631 2 CURVE SMOOTH",
"186.631 2 OFFCURVE",
"158.631 -1 OFFCURVE",
"120.631 -3 CURVE",
"116.631 2 OFFCURVE",
"121.631 26 OFFCURVE",
"126.631 26 CURVE SMOOTH",
"137.631 26 OFFCURVE",
"185.631 35 OFFCURVE",
"190.631 46 CURVE SMOOTH",
"199.631 66 OFFCURVE",
"203.631 84 OFFCURVE",
"206.631 103 CURVE SMOOTH",
"267.631 415 LINE SMOOTH",
"279.631 475 OFFCURVE",
"285.631 506 OFFCURVE",
"266.631 506 CURVE SMOOTH",
"259.631 506 OFFCURVE",
"223.631 488 OFFCURVE"
);
}
);
width = 481;
}
);
unicode = 0031;
userData = {
com.fontlab.hintData = {
hhints = (
{
position = -3;
width = 29;
},
{
position = 622;
width = 20;
}
);
vhints = (
{
position = 121;
width = 321;
}
);
};
};
},
{
glyphname = two;
lastChange = "2017-07-12 19:24:34 +0000";
layers = (
{
layerId = "DEDDD934-E4FE-4A27-B966-8C21F8A9BC34";
paths = (
{
closed = 1;
nodes = (
"508.938 490 CURVE SMOOTH",
"508.938 404 OFFCURVE",
"449.938 338 OFFCURVE",
"372.938 270 CURVE SMOOTH",
"281.938 190 OFFCURVE",
"181.938 110 OFFCURVE",
"183.938 110 CURVE",
"355.938 110 LINE SMOOTH",
"408.938 110 OFFCURVE",
"428.938 144 OFFCURVE",
"440.938 176 CURVE SMOOTH",
"442.938 181 OFFCURVE",
"447.938 185 OFFCURVE",
"455.938 185 CURVE SMOOTH",
"462.938 185 OFFCURVE",
"468.938 181 OFFCURVE",
"472.938 178 CURVE",
"451.938 128 OFFCURVE",
"401.938 18 OFFCURVE",
"393.938 0 CURVE",
"393.938 0 OFFCURVE",
"60.938 0 OFFCURVE",
"53.938 0 CURVE",
"49.938 0 OFFCURVE",
"45.938 10 OFFCURVE",
"46.938 22 CURVE",
"101.938 72 OFFCURVE",
"215.938 191 OFFCURVE",
"271.938 260 CURVE SMOOTH",
"333.938 336 OFFCURVE",
"366.938 406 OFFCURVE",
"366.938 468 CURVE SMOOTH",
"366.938 520 OFFCURVE",
"337.938 557 OFFCURVE",
"283.938 557 CURVE SMOOTH",
"225.938 557 OFFCURVE",
"179.938 502 OFFCURVE",
"172.938 493 CURVE",
"163.938 493 OFFCURVE",
"154.938 505 OFFCURVE",
"153.938 513 CURVE",
"164.938 538 OFFCURVE",
"259.938 642 OFFCURVE",
"356.938 642 CURVE SMOOTH",
"429.938 642 OFFCURVE",
"508.938 587 OFFCURVE"
);
}
);
width = 481;
}
);
unicode = 0032;
userData = {
com.fontlab.hintData = {
hhints = (
{
position = 0;
width = 110;
},
{
position = 557;
width = 85;
}
);
vhints = (
{
position = 367;
width = 142;
}
);
};
};
},
